<?xml version="1.0" encoding="UTF-8"?>
<svg xmlns="http://www.w3.org/2000/svg" xmlns:xlink="http://www.w3.org/1999/xlink" width="108pt" height="108pt" viewBox="0 0 108 108" version="1.1">
<g id="surface1">
<path style="fill-rule:nonzero;fill:rgb(100%,100%,100%);fill-opacity:1;stroke-width:1;stroke-linecap:round;stroke-linejoin:round;stroke:rgb(13.729858%,12.159729%,12.548828%);stroke-opacity:1;stroke-miterlimit:4;" d="M 302.1875 441.71875 C 536.601562 441.71875 726.601562 485.351562 726.601562 539.101562 C 726.601562 592.890625 536.601562 636.484375 302.1875 636.484375 " transform="matrix(0.1,0,0,-0.1,0,108)"/>
<path style=" stroke:none;fill-rule:nonzero;fill:rgb(13.729858%,12.159729%,12.548828%);fill-opacity:1;" d="M 30.21875 63.828125 C 28.117188 63.828125 26.46875 59.457031 26.46875 54.171875 C 26.46875 48.894531 28.117188 44.351562 30.21875 44.351562 C 34.175781 44.351562 37.289062 48.894531 37.289062 54.171875 C 37.289062 59.457031 34.175781 63.828125 30.21875 63.828125 "/>
<path style="fill:none;stroke-width:1;stroke-linecap:butt;stroke-linejoin:miter;stroke:rgb(13.729858%,12.159729%,12.548828%);stroke-opacity:1;stroke-miterlimit:4;" d="M 302.1875 441.71875 C 281.171875 441.71875 264.6875 485.429688 264.6875 538.28125 C 264.6875 591.054688 281.171875 636.484375 302.1875 636.484375 C 341.757812 636.484375 372.890625 591.054688 372.890625 538.28125 C 372.890625 485.429688 341.757812 441.71875 302.1875 441.71875 Z M 302.1875 441.71875 " transform="matrix(0.1,0,0,-0.1,0,108)"/>
<path style="fill-rule:nonzero;fill:rgb(13.729858%,12.159729%,12.548828%);fill-opacity:1;stroke-width:2;stroke-linecap:butt;stroke-linejoin:miter;stroke:rgb(13.729858%,12.159729%,12.548828%);stroke-opacity:1;stroke-miterlimit:4;" d="M 366.5625 566.210938 C 366.5625 566.210938 413.554688 562.929688 520.507812 557.460938 C 607.539062 553.046875 818.515625 543.90625 818.515625 543.90625 C 818.515625 543.90625 605.664062 535.664062 518.632812 531.210938 C 411.679688 525.78125 366.5625 521.5625 366.5625 521.5625 " transform="matrix(0.1,0,0,-0.1,0,108)"/>
</g>
</svg>
