<?xml version="1.0" encoding="UTF-8"?>
<svg xmlns="http://www.w3.org/2000/svg" xmlns:xlink="http://www.w3.org/1999/xlink" width="108pt" height="108pt" viewBox="0 0 108 108" version="1.1">
<g id="surface1">
<path style="fill-rule:nonzero;fill:rgb(99.996948%,99.996948%,99.996948%);fill-opacity:1;stroke-width:1;stroke-linecap:round;stroke-linejoin:round;stroke:rgb(13.729858%,12.159729%,12.548828%);stroke-opacity:1;stroke-miterlimit:4;" d="M 739.882812 483.398438 C 739.882812 587.578125 652.695312 672.03125 545.117188 672.03125 C 437.578125 672.03125 350.390625 587.578125 350.390625 483.398438 " transform="matrix(0.1,0,0,-0.1,0,108)"/>
<path style="fill-rule:nonzero;fill:rgb(13.729858%,12.159729%,12.548828%);fill-opacity:1;stroke-width:1;stroke-linecap:butt;stroke-linejoin:miter;stroke:rgb(13.729858%,12.159729%,12.548828%);stroke-opacity:1;stroke-miterlimit:4;" d="M 739.882812 483.398438 C 739.882812 518.554688 652.460938 546.210938 546.796875 546.210938 C 441.25 546.210938 350.390625 518.554688 350.390625 483.398438 " transform="matrix(0.1,0,0,-0.1,0,108)"/>
<path style="fill-rule:nonzero;fill:rgb(13.729858%,12.159729%,12.548828%);fill-opacity:1;stroke-width:1;stroke-linecap:butt;stroke-linejoin:miter;stroke:rgb(13.729858%,12.159729%,12.548828%);stroke-opacity:1;stroke-miterlimit:4;" d="M 362.226562 452.851562 C 512.421875 447.148438 591.367188 449.101562 634.101562 446.835938 C 693.59375 443.710938 672.226562 446.679688 739.570312 441.054688 C 682.148438 437.226562 683.828125 437.773438 632.265625 437.773438 C 571.640625 437.773438 476.796875 434.804688 367.539062 433.4375 " transform="matrix(0.1,0,0,-0.1,0,108)"/>
<path style="fill-rule:nonzero;fill:rgb(13.729858%,12.159729%,12.548828%);fill-opacity:1;stroke-width:1;stroke-linecap:butt;stroke-linejoin:miter;stroke:rgb(13.729858%,12.159729%,12.548828%);stroke-opacity:1;stroke-miterlimit:4;" d="M 402.890625 607.8125 C 442.539062 576.835938 459.570312 556.757812 471.328125 548.398438 C 487.734375 536.796875 480.429688 539.570312 500.546875 528.007812 C 490 544.453125 490 543.632812 477.851562 555.78125 C 463.632812 570.039062 443.671875 594.6875 419.023438 621.40625 " transform="matrix(0.1,0,0,-0.1,0,108)"/>
<path style="fill-rule:nonzero;fill:rgb(13.729858%,12.159729%,12.548828%);fill-opacity:1;stroke-width:1;stroke-linecap:butt;stroke-linejoin:miter;stroke:rgb(13.729858%,12.159729%,12.548828%);stroke-opacity:1;stroke-miterlimit:4;" d="M 471.484375 636.40625 C 511.171875 605.429688 528.203125 585.351562 539.960938 576.992188 C 556.367188 565.390625 577.65625 539.570312 597.773438 528.007812 C 587.265625 544.453125 558.59375 572.226562 546.484375 584.375 C 532.265625 598.632812 512.304688 623.28125 487.65625 650.039062 " transform="matrix(0.1,0,0,-0.1,0,108)"/>
<path style="fill-rule:nonzero;fill:rgb(13.729858%,12.159729%,12.548828%);fill-opacity:1;stroke-width:1;stroke-linecap:butt;stroke-linejoin:miter;stroke:rgb(13.729858%,12.159729%,12.548828%);stroke-opacity:1;stroke-miterlimit:4;" d="M 574.453125 642.109375 C 614.140625 611.132812 631.171875 591.054688 642.929688 582.734375 C 659.296875 571.09375 686.328125 539.570312 706.445312 528.007812 C 695.898438 544.453125 661.5625 577.929688 649.453125 590.078125 C 635.234375 604.375 615.234375 628.984375 590.585938 655.742188 " transform="matrix(0.1,0,0,-0.1,0,108)"/>
</g>
</svg>
