<?xml version="1.0" encoding="UTF-8"?>
<svg xmlns="http://www.w3.org/2000/svg" xmlns:xlink="http://www.w3.org/1999/xlink" width="108pt" height="108pt" viewBox="0 0 108 108" version="1.1">
<g id="surface1">
<path style=" stroke:none;fill-rule:nonzero;fill:rgb(13.729858%,12.159729%,12.548828%);fill-opacity:1;" d="M 53.15625 73.625 C 63.789062 73.625 72.410156 65.003906 72.410156 54.363281 C 72.410156 43.730469 63.789062 35.105469 53.15625 35.105469 C 42.519531 35.105469 33.894531 43.730469 33.894531 54.363281 C 33.894531 65.003906 42.519531 73.625 53.15625 73.625 "/>
<path style="fill:none;stroke-width:1;stroke-linecap:round;stroke-linejoin:round;stroke:rgb(13.729858%,12.159729%,12.548828%);stroke-opacity:1;stroke-miterlimit:4;" d="M 531.5625 343.75 C 637.890625 343.75 724.101562 429.960938 724.101562 536.367188 C 724.101562 642.695312 637.890625 728.945312 531.5625 728.945312 C 425.195312 728.945312 338.945312 642.695312 338.945312 536.367188 C 338.945312 429.960938 425.195312 343.75 531.5625 343.75 Z M 531.5625 343.75 " transform="matrix(0.1,0,0,-0.1,0,108)"/>
<path style="fill-rule:nonzero;fill:rgb(13.729858%,12.159729%,12.548828%);fill-opacity:1;stroke-width:1;stroke-linecap:butt;stroke-linejoin:miter;stroke:rgb(13.729858%,12.159729%,12.548828%);stroke-opacity:1;stroke-miterlimit:4;" d="M 341.40625 565.820312 C 351.71875 566.484375 363.359375 567.070312 377.148438 568.125 C 410.195312 570.625 491.953125 575.625 491.953125 575.625 C 491.953125 575.625 382.34375 581.289062 375.898438 582.5 C 372.578125 583.164062 360.9375 582.695312 346.71875 583.164062 " transform="matrix(0.1,0,0,-0.1,0,108)"/>
<path style="fill-rule:nonzero;fill:rgb(13.729858%,12.159729%,12.548828%);fill-opacity:1;stroke-width:1;stroke-linecap:butt;stroke-linejoin:miter;stroke:rgb(13.729858%,12.159729%,12.548828%);stroke-opacity:1;stroke-miterlimit:4;" d="M 346.71875 583.164062 C 332.539062 583.632812 315.78125 585.039062 302.226562 589.414062 L 303.671875 561.875 C 315.195312 564.0625 327.03125 564.960938 341.40625 565.820312 " transform="matrix(0.1,0,0,-0.1,0,108)"/>
<path style="fill-rule:nonzero;fill:rgb(13.729858%,12.159729%,12.548828%);fill-opacity:1;stroke-width:1;stroke-linecap:butt;stroke-linejoin:miter;stroke:rgb(13.729858%,12.159729%,12.548828%);stroke-opacity:1;stroke-miterlimit:4;" d="M 345.039062 490.546875 C 354.453125 491.09375 364.921875 491.679688 377.148438 492.65625 C 410.195312 495.15625 491.953125 500.15625 491.953125 500.15625 C 491.953125 500.15625 382.34375 505.820312 375.898438 507.03125 C 372.1875 507.734375 357.890625 507.070312 341.289062 507.890625 " transform="matrix(0.1,0,0,-0.1,0,108)"/>
<path style="fill-rule:nonzero;fill:rgb(13.729858%,12.159729%,12.548828%);fill-opacity:1;stroke-width:1;stroke-linecap:butt;stroke-linejoin:miter;stroke:rgb(13.729858%,12.159729%,12.548828%);stroke-opacity:1;stroke-miterlimit:4;" d="M 341.289062 507.890625 C 328.398438 508.515625 314.0625 510.078125 302.226562 513.90625 L 303.671875 486.367188 C 316.132812 488.789062 328.984375 489.609375 345.039062 490.546875 " transform="matrix(0.1,0,0,-0.1,0,108)"/>
<path style="fill-rule:nonzero;fill:rgb(13.729858%,12.159729%,12.548828%);fill-opacity:1;stroke-width:1;stroke-linecap:butt;stroke-linejoin:miter;stroke:rgb(13.729858%,12.159729%,12.548828%);stroke-opacity:1;stroke-miterlimit:4;" d="M 722.578125 566.796875 C 727.65625 567.148438 733.007812 567.460938 738.828125 567.890625 C 771.835938 570.429688 825.039062 575.429688 825.039062 575.429688 C 825.039062 575.429688 743.984375 581.09375 737.539062 582.304688 C 735.078125 582.8125 728.046875 582.65625 718.789062 582.734375 " transform="matrix(0.1,0,0,-0.1,0,108)"/>
<path style="fill-rule:nonzero;fill:rgb(13.729858%,12.159729%,12.548828%);fill-opacity:1;stroke-width:1;stroke-linecap:butt;stroke-linejoin:miter;stroke:rgb(13.729858%,12.159729%,12.548828%);stroke-opacity:1;stroke-miterlimit:4;" d="M 718.789062 582.734375 C 703.085938 582.890625 680.898438 583.710938 663.867188 589.21875 L 665.351562 561.679688 C 681.679688 564.765625 698.59375 565.3125 722.578125 566.796875 " transform="matrix(0.1,0,0,-0.1,0,108)"/>
<path style="fill-rule:nonzero;fill:rgb(13.729858%,12.159729%,12.548828%);fill-opacity:1;stroke-width:1;stroke-linecap:butt;stroke-linejoin:miter;stroke:rgb(13.729858%,12.159729%,12.548828%);stroke-opacity:1;stroke-miterlimit:4;" d="M 716.914062 490.976562 C 723.632812 491.367188 730.859375 491.835938 738.828125 492.421875 C 771.835938 494.960938 825.039062 499.960938 825.039062 499.960938 C 825.039062 499.960938 743.984375 505.585938 737.539062 506.835938 C 735.273438 507.265625 729.023438 507.1875 720.703125 507.265625 " transform="matrix(0.1,0,0,-0.1,0,108)"/>
<path style="fill-rule:nonzero;fill:rgb(13.729858%,12.159729%,12.548828%);fill-opacity:1;stroke-width:1;stroke-linecap:butt;stroke-linejoin:miter;stroke:rgb(13.729858%,12.159729%,12.548828%);stroke-opacity:1;stroke-miterlimit:4;" d="M 720.703125 507.265625 C 704.882812 507.34375 681.640625 508.007812 663.867188 513.710938 L 665.351562 486.171875 C 680.351562 489.023438 695.898438 489.726562 716.914062 490.976562 " transform="matrix(0.1,0,0,-0.1,0,108)"/>
<path style="fill-rule:nonzero;fill:rgb(13.729858%,12.159729%,12.548828%);fill-opacity:1;stroke-width:1;stroke-linecap:butt;stroke-linejoin:miter;stroke:rgb(13.729858%,12.159729%,12.548828%);stroke-opacity:1;stroke-miterlimit:4;" d="M 481.132812 460.507812 C 517.421875 460.507812 546.796875 496.445312 546.796875 540.859375 C 546.796875 585.234375 517.421875 621.210938 481.132812 621.210938 " transform="matrix(0.1,0,0,-0.1,0,108)"/>
</g>
</svg>
