<?xml version="1.0" encoding="UTF-8"?>
<svg xmlns="http://www.w3.org/2000/svg" xmlns:xlink="http://www.w3.org/1999/xlink" width="108pt" height="108pt" viewBox="0 0 108 108" version="1.1">
<g id="surface1">
<path style="fill-rule:nonzero;fill:rgb(13.729858%,12.159729%,12.548828%);fill-opacity:1;stroke-width:1;stroke-linecap:butt;stroke-linejoin:miter;stroke:rgb(13.729858%,12.159729%,12.548828%);stroke-opacity:1;stroke-miterlimit:4;" d="M 286.25 609.140625 C 339.84375 604.765625 368.007812 606.25 383.28125 604.53125 C 404.492188 602.1875 396.875 604.414062 420.898438 600.15625 C 400.429688 597.226562 401.015625 597.65625 382.617188 597.65625 C 360.976562 597.65625 327.148438 595.351562 288.125 594.375 " transform="matrix(0.1,0,0,-0.1,0,108)"/>
<path style="fill-rule:nonzero;fill:rgb(99.996948%,99.996948%,99.996948%);fill-opacity:1;stroke-width:1;stroke-linecap:round;stroke-linejoin:round;stroke:rgb(13.729858%,12.159729%,12.548828%);stroke-opacity:1;stroke-miterlimit:4;" d="M 748.789062 316.953125 C 748.789062 421.132812 661.601562 505.625 554.0625 505.625 C 446.484375 505.625 359.335938 421.132812 359.335938 316.953125 " transform="matrix(0.1,0,0,-0.1,0,108)"/>
<path style="fill-rule:nonzero;fill:rgb(13.729858%,12.159729%,12.548828%);fill-opacity:1;stroke-width:1;stroke-linecap:butt;stroke-linejoin:miter;stroke:rgb(13.729858%,12.159729%,12.548828%);stroke-opacity:1;stroke-miterlimit:4;" d="M 748.789062 316.953125 C 748.789062 352.148438 661.445312 379.84375 555.78125 379.84375 C 450.195312 379.84375 359.335938 352.148438 359.335938 316.953125 " transform="matrix(0.1,0,0,-0.1,0,108)"/>
<path style="fill-rule:nonzero;fill:rgb(99.996948%,99.996948%,99.996948%);fill-opacity:1;stroke-width:1;stroke-linecap:round;stroke-linejoin:round;stroke:rgb(13.729858%,12.159729%,12.548828%);stroke-opacity:1;stroke-miterlimit:4;" d="M 748.789062 751.445312 C 748.789062 647.265625 661.601562 562.8125 554.0625 562.8125 C 446.484375 562.8125 359.335938 647.265625 359.335938 751.445312 " transform="matrix(0.1,0,0,-0.1,0,108)"/>
<path style="fill-rule:nonzero;fill:rgb(13.729858%,12.159729%,12.548828%);fill-opacity:1;stroke-width:1;stroke-linecap:butt;stroke-linejoin:miter;stroke:rgb(13.729858%,12.159729%,12.548828%);stroke-opacity:1;stroke-miterlimit:4;" d="M 748.789062 751.445312 C 748.789062 716.289062 661.445312 688.554688 555.78125 688.554688 C 450.195312 688.554688 359.335938 716.289062 359.335938 751.445312 " transform="matrix(0.1,0,0,-0.1,0,108)"/>
<path style="fill-rule:nonzero;fill:rgb(13.729858%,12.159729%,12.548828%);fill-opacity:1;stroke-width:1;stroke-linecap:butt;stroke-linejoin:miter;stroke:rgb(13.729858%,12.159729%,12.548828%);stroke-opacity:1;stroke-miterlimit:4;" d="M 286.25 549.0625 C 339.84375 544.726562 368.007812 546.210938 383.28125 544.492188 C 404.492188 542.109375 396.875 544.335938 420.898438 540.117188 C 400.429688 537.1875 401.015625 537.578125 382.617188 537.578125 C 360.976562 537.578125 327.148438 535.3125 288.125 534.296875 " transform="matrix(0.1,0,0,-0.1,0,108)"/>
<path style="fill-rule:nonzero;fill:rgb(13.729858%,12.159729%,12.548828%);fill-opacity:1;stroke-width:1;stroke-linecap:butt;stroke-linejoin:miter;stroke:rgb(13.729858%,12.159729%,12.548828%);stroke-opacity:1;stroke-miterlimit:4;" d="M 286.25 477.578125 C 339.84375 473.203125 368.007812 474.726562 383.28125 473.007812 C 404.492188 470.625 396.875 472.851562 420.898438 468.59375 C 400.429688 465.703125 401.015625 466.09375 382.617188 466.09375 C 360.976562 466.09375 327.148438 463.828125 288.125 462.8125 " transform="matrix(0.1,0,0,-0.1,0,108)"/>
<path style="fill-rule:nonzero;fill:rgb(13.729858%,12.159729%,12.548828%);fill-opacity:1;stroke-width:1;stroke-linecap:butt;stroke-linejoin:miter;stroke:rgb(13.729858%,12.159729%,12.548828%);stroke-opacity:1;stroke-miterlimit:4;" d="M 446.367188 549.0625 C 500 544.726562 528.164062 546.210938 543.398438 544.492188 C 564.609375 542.109375 556.992188 544.335938 581.054688 540.117188 C 560.546875 537.1875 561.171875 537.578125 542.734375 537.578125 C 521.132812 537.578125 487.265625 535.3125 448.28125 534.296875 " transform="matrix(0.1,0,0,-0.1,0,108)"/>
<path style="fill-rule:nonzero;fill:rgb(13.729858%,12.159729%,12.548828%);fill-opacity:1;stroke-width:1;stroke-linecap:butt;stroke-linejoin:miter;stroke:rgb(13.729858%,12.159729%,12.548828%);stroke-opacity:1;stroke-miterlimit:4;" d="M 432.734375 604.257812 C 429.101562 550.625 430.9375 522.460938 429.453125 507.1875 C 427.34375 485.9375 429.492188 493.59375 425.546875 469.492188 C 422.34375 489.960938 422.773438 489.375 422.539062 507.773438 C 422.265625 529.375 419.53125 563.203125 418.007812 602.1875 " transform="matrix(0.1,0,0,-0.1,0,108)"/>
</g>
</svg>
