<?xml version="1.0" encoding="UTF-8"?>
<svg xmlns="http://www.w3.org/2000/svg" xmlns:xlink="http://www.w3.org/1999/xlink" width="40pt" height="38pt" viewBox="0 0 40 38" version="1.1">
<defs>
<clipPath id="clip1">
  <path d="M 0 19 L 39.042969 19 L 39.042969 38 L 0 38 Z M 0 19 "/>
</clipPath>
<clipPath id="clip2">
  <path d="M 0 31 L 39.042969 31 L 39.042969 38 L 0 38 Z M 0 31 "/>
</clipPath>
<clipPath id="clip3">
  <path d="M 0 0.167969 L 39 0.167969 L 39 20 L 0 20 Z M 0 0.167969 "/>
</clipPath>
<clipPath id="clip4">
  <path d="M 0 0.167969 L 39.042969 0.167969 L 39.042969 20 L 0 20 Z M 0 0.167969 "/>
</clipPath>
<clipPath id="clip5">
  <path d="M 0 0.167969 L 39 0.167969 L 39 7 L 0 7 Z M 0 0.167969 "/>
</clipPath>
<clipPath id="clip6">
  <path d="M 0 0.167969 L 39.042969 0.167969 L 39.042969 8 L 0 8 Z M 0 0.167969 "/>
</clipPath>
</defs>
<g id="surface1">
<path style=" stroke:none;fill-rule:nonzero;fill:rgb(100%,100%,100%);fill-opacity:1;" d="M 38.996094 37.949219 C 38.996094 27.53125 30.277344 19.082031 19.523438 19.082031 C 8.765625 19.082031 0.0507812 27.53125 0.0507812 37.949219 "/>
<g clip-path="url(#clip1)" clip-rule="nonzero">
<path style="fill:none;stroke-width:1;stroke-linecap:round;stroke-linejoin:round;stroke:rgb(13.729858%,12.159729%,12.548828%);stroke-opacity:1;stroke-miterlimit:4;" d="M 389.960938 0.507812 C 389.960938 104.6875 302.773438 189.179688 195.234375 189.179688 C 87.65625 189.179688 0.507812 104.6875 0.507812 0.507812 " transform="matrix(0.1,0,0,-0.1,0,38)"/>
</g>
<path style=" stroke:none;fill-rule:nonzero;fill:rgb(13.729858%,12.159729%,12.548828%);fill-opacity:1;" d="M 38.996094 37.949219 C 38.996094 34.429688 30.257812 31.660156 19.691406 31.660156 C 9.136719 31.660156 0.0507812 34.429688 0.0507812 37.949219 "/>
<g clip-path="url(#clip2)" clip-rule="nonzero">
<path style="fill:none;stroke-width:1;stroke-linecap:butt;stroke-linejoin:miter;stroke:rgb(13.729858%,12.159729%,12.548828%);stroke-opacity:1;stroke-miterlimit:4;" d="M 389.960938 0.507812 C 389.960938 35.703125 302.578125 63.398438 196.914062 63.398438 C 91.367188 63.398438 0.507812 35.703125 0.507812 0.507812 " transform="matrix(0.1,0,0,-0.1,0,38)"/>
</g>
<g clip-path="url(#clip3)" clip-rule="nonzero">
<path style=" stroke:none;fill-rule:nonzero;fill:rgb(100%,100%,100%);fill-opacity:1;" d="M 38.996094 0.21875 C 38.996094 10.640625 30.277344 19.082031 19.523438 19.082031 C 8.765625 19.082031 0.0507812 10.640625 0.0507812 0.21875 "/>
</g>
<g clip-path="url(#clip4)" clip-rule="nonzero">
<path style="fill:none;stroke-width:1;stroke-linecap:round;stroke-linejoin:round;stroke:rgb(13.729858%,12.159729%,12.548828%);stroke-opacity:1;stroke-miterlimit:4;" d="M 389.960938 377.8125 C 389.960938 273.59375 302.773438 189.179688 195.234375 189.179688 C 87.65625 189.179688 0.507812 273.59375 0.507812 377.8125 " transform="matrix(0.1,0,0,-0.1,0,38)"/>
</g>
<g clip-path="url(#clip5)" clip-rule="nonzero">
<path style=" stroke:none;fill-rule:nonzero;fill:rgb(13.729858%,12.159729%,12.548828%);fill-opacity:1;" d="M 38.996094 0.21875 C 38.996094 3.738281 30.257812 6.507812 19.691406 6.507812 C 9.136719 6.507812 0.0507812 3.738281 0.0507812 0.21875 "/>
</g>
<g clip-path="url(#clip6)" clip-rule="nonzero">
<path style="fill:none;stroke-width:1;stroke-linecap:butt;stroke-linejoin:miter;stroke:rgb(13.729858%,12.159729%,12.548828%);stroke-opacity:1;stroke-miterlimit:4;" d="M 389.960938 377.8125 C 389.960938 342.617188 302.578125 314.921875 196.914062 314.921875 C 91.367188 314.921875 0.507812 342.617188 0.507812 377.8125 " transform="matrix(0.1,0,0,-0.1,0,38)"/>
</g>
</g>
</svg>
