<?xml version="1.0" encoding="UTF-8"?>
<svg xmlns="http://www.w3.org/2000/svg" xmlns:xlink="http://www.w3.org/1999/xlink" width="108pt" height="108pt" viewBox="0 0 108 108" version="1.1">
<g transform="rotate(90 54 54)" id="surface1">
<path style=" stroke:none;fill-rule:nonzero;fill:rgb(13.729858%,12.159729%,12.548828%);fill-opacity:1;" d="M 54.496094 45.550781 C 60.03125 45.550781 64.527344 41.0625 64.527344 35.523438 C 64.527344 29.980469 60.03125 25.492188 54.496094 25.492188 C 48.957031 25.492188 44.464844 29.980469 44.464844 35.523438 C 44.464844 41.0625 48.957031 45.550781 54.496094 45.550781 "/>
<path style="fill:none;stroke-width:15;stroke-linecap:butt;stroke-linejoin:miter;stroke:rgb(13.729858%,12.159729%,12.548828%);stroke-opacity:1;stroke-miterlimit:4;" d="M 544.960938 624.492188 C 600.3125 624.492188 645.273438 669.375 645.273438 724.765625 C 645.273438 780.195312 600.3125 825.078125 544.960938 825.078125 C 489.570312 825.078125 444.648438 780.195312 444.648438 724.765625 C 444.648438 669.375 489.570312 624.492188 544.960938 624.492188 Z M 544.960938 624.492188 " transform="matrix(0.1,0,0,-0.1,0,108)"/>
<path style=" stroke:none;fill-rule:nonzero;fill:rgb(13.729858%,12.159729%,12.548828%);fill-opacity:1;" d="M 54.496094 73.550781 C 60.03125 73.550781 64.527344 69.0625 64.527344 63.523438 C 64.527344 57.980469 60.03125 53.492188 54.496094 53.492188 C 48.957031 53.492188 44.464844 57.980469 44.464844 63.523438 C 44.464844 69.0625 48.957031 73.550781 54.496094 73.550781 "/>
<path style="fill:none;stroke-width:15;stroke-linecap:butt;stroke-linejoin:miter;stroke:rgb(13.729858%,12.159729%,12.548828%);stroke-opacity:1;stroke-miterlimit:4;" d="M 544.960938 344.492188 C 600.3125 344.492188 645.273438 389.375 645.273438 444.765625 C 645.273438 500.195312 600.3125 545.078125 544.960938 545.078125 C 489.570312 545.078125 444.648438 500.195312 444.648438 444.765625 C 444.648438 389.375 489.570312 344.492188 544.960938 344.492188 Z M 544.960938 344.492188 " transform="matrix(0.1,0,0,-0.1,0,108)"/>
</g>
</svg>