<?xml version="1.0" encoding="UTF-8"?>
<svg xmlns="http://www.w3.org/2000/svg" xmlns:xlink="http://www.w3.org/1999/xlink" width="108pt" height="108pt" viewBox="0 0 108 108" version="1.1">
<g transform="rotate(90 54 54)" id="surface1">
<path style=" stroke:none;fill-rule:nonzero;fill:rgb(13.729858%,12.159729%,12.548828%);fill-opacity:1;" d="M 54.496094 36.050781 C 60.03125 36.050781 64.527344 31.5625 64.527344 26.023438 C 64.527344 20.480469 60.03125 15.992188 54.496094 15.992188 C 48.957031 15.992188 44.464844 20.480469 44.464844 26.023438 C 44.464844 31.5625 48.957031 36.050781 54.496094 36.050781 "/>
<path style="fill:none;stroke-width:15;stroke-linecap:butt;stroke-linejoin:miter;stroke:rgb(13.729858%,12.159729%,12.548828%);stroke-opacity:1;stroke-miterlimit:4;" d="M 544.960938 719.492188 C 600.3125 719.492188 645.273438 764.375 645.273438 819.765625 C 645.273438 875.195312 600.3125 920.078125 544.960938 920.078125 C 489.570312 920.078125 444.648438 875.195312 444.648438 819.765625 C 444.648438 764.375 489.570312 719.492188 544.960938 719.492188 Z M 544.960938 719.492188 " transform="matrix(0.1,0,0,-0.1,0,108)"/>
<path style=" stroke:none;fill-rule:nonzero;fill:rgb(13.729858%,12.159729%,12.548828%);fill-opacity:1;" d="M 54.496094 91.550781 C 60.03125 91.550781 64.527344 87.0625 64.527344 81.523438 C 64.527344 75.980469 60.03125 71.492188 54.496094 71.492188 C 48.957031 71.492188 44.464844 75.980469 44.464844 81.523438 C 44.464844 87.0625 48.957031 91.550781 54.496094 91.550781 "/>
<path style="fill:none;stroke-width:15;stroke-linecap:butt;stroke-linejoin:miter;stroke:rgb(13.729858%,12.159729%,12.548828%);stroke-opacity:1;stroke-miterlimit:4;" d="M 544.960938 164.492188 C 600.3125 164.492188 645.273438 209.375 645.273438 264.765625 C 645.273438 320.195312 600.3125 365.078125 544.960938 365.078125 C 489.570312 365.078125 444.648438 320.195312 444.648438 264.765625 C 444.648438 209.375 489.570312 164.492188 544.960938 164.492188 Z M 544.960938 164.492188 " transform="matrix(0.1,0,0,-0.1,0,108)"/>
<path style=" stroke:none;fill-rule:nonzero;fill:rgb(13.729858%,12.159729%,12.548828%);fill-opacity:1;" d="M 54.496094 64.050781 C 60.03125 64.050781 64.527344 59.5625 64.527344 54.023438 C 64.527344 48.480469 60.03125 43.992188 54.496094 43.992188 C 48.957031 43.992188 44.464844 48.480469 44.464844 54.023438 C 44.464844 59.5625 48.957031 64.050781 54.496094 64.050781 "/>
<path style="fill:none;stroke-width:15;stroke-linecap:butt;stroke-linejoin:miter;stroke:rgb(13.729858%,12.159729%,12.548828%);stroke-opacity:1;stroke-miterlimit:4;" d="M 544.960938 439.492188 C 600.3125 439.492188 645.273438 484.375 645.273438 539.765625 C 645.273438 595.195312 600.3125 640.078125 544.960938 640.078125 C 489.570312 640.078125 444.648438 595.195312 444.648438 539.765625 C 444.648438 484.375 489.570312 439.492188 544.960938 439.492188 Z M 544.960938 439.492188 " transform="matrix(0.1,0,0,-0.1,0,108)"/>
</g>
</svg>