<?xml version="1.0" encoding="UTF-8"?>
<svg xmlns="http://www.w3.org/2000/svg" xmlns:xlink="http://www.w3.org/1999/xlink" width="108pt" height="108pt" viewBox="0 0 108 108" version="1.1">
<g transform="rotate(90 54 54)" id="surface1">
<path style=" stroke:none;fill-rule:nonzero;fill:rgb(13.729858%,12.159729%,12.548828%);fill-opacity:1;" d="M 41.496094 36.050781 C 47.03125 36.050781 51.527344 31.5625 51.527344 26.023438 C 51.527344 20.480469 47.03125 15.992188 41.496094 15.992188 C 35.957031 15.992188 31.464844 20.480469 31.464844 26.023438 C 31.464844 31.5625 35.957031 36.050781 41.496094 36.050781 "/>
<path style="fill:none;stroke-width:15;stroke-linecap:butt;stroke-linejoin:miter;stroke:rgb(13.729858%,12.159729%,12.548828%);stroke-opacity:1;stroke-miterlimit:4;" d="M 414.960938 719.492188 C 470.3125 719.492188 515.273438 764.375 515.273438 819.765625 C 515.273438 875.195312 470.3125 920.078125 414.960938 920.078125 C 359.570312 920.078125 314.648438 875.195312 314.648438 819.765625 C 314.648438 764.375 359.570312 719.492188 414.960938 719.492188 Z M 414.960938 719.492188 " transform="matrix(0.1,0,0,-0.1,0,108)"/>
<path style=" stroke:none;fill-rule:nonzero;fill:rgb(13.729858%,12.159729%,12.548828%);fill-opacity:1;" d="M 67.496094 35.550781 C 73.03125 35.550781 77.527344 31.0625 77.527344 25.523438 C 77.527344 19.980469 73.03125 15.492188 67.496094 15.492188 C 61.957031 15.492188 57.464844 19.980469 57.464844 25.523438 C 57.464844 31.0625 61.957031 35.550781 67.496094 35.550781 "/>
<path style="fill:none;stroke-width:15;stroke-linecap:butt;stroke-linejoin:miter;stroke:rgb(13.729858%,12.159729%,12.548828%);stroke-opacity:1;stroke-miterlimit:4;" d="M 674.960938 724.492188 C 730.3125 724.492188 775.273438 769.375 775.273438 824.765625 C 775.273438 880.195312 730.3125 925.078125 674.960938 925.078125 C 619.570312 925.078125 574.648438 880.195312 574.648438 824.765625 C 574.648438 769.375 619.570312 724.492188 674.960938 724.492188 Z M 674.960938 724.492188 " transform="matrix(0.1,0,0,-0.1,0,108)"/>
<path style=" stroke:none;fill-rule:nonzero;fill:rgb(13.729858%,12.159729%,12.548828%);fill-opacity:1;" d="M 67.496094 64.050781 C 73.03125 64.050781 77.527344 59.5625 77.527344 54.023438 C 77.527344 48.480469 73.03125 43.992188 67.496094 43.992188 C 61.957031 43.992188 57.464844 48.480469 57.464844 54.023438 C 57.464844 59.5625 61.957031 64.050781 67.496094 64.050781 "/>
<path style="fill:none;stroke-width:15;stroke-linecap:butt;stroke-linejoin:miter;stroke:rgb(13.729858%,12.159729%,12.548828%);stroke-opacity:1;stroke-miterlimit:4;" d="M 674.960938 439.492188 C 730.3125 439.492188 775.273438 484.375 775.273438 539.765625 C 775.273438 595.195312 730.3125 640.078125 674.960938 640.078125 C 619.570312 640.078125 574.648438 595.195312 574.648438 539.765625 C 574.648438 484.375 619.570312 439.492188 674.960938 439.492188 Z M 674.960938 439.492188 " transform="matrix(0.1,0,0,-0.1,0,108)"/>
<path style=" stroke:none;fill-rule:nonzero;fill:rgb(13.729858%,12.159729%,12.548828%);fill-opacity:1;" d="M 41.496094 64.050781 C 47.03125 64.050781 51.527344 59.5625 51.527344 54.023438 C 51.527344 48.480469 47.03125 43.992188 41.496094 43.992188 C 35.957031 43.992188 31.464844 48.480469 31.464844 54.023438 C 31.464844 59.5625 35.957031 64.050781 41.496094 64.050781 "/>
<path style="fill:none;stroke-width:15;stroke-linecap:butt;stroke-linejoin:miter;stroke:rgb(13.729858%,12.159729%,12.548828%);stroke-opacity:1;stroke-miterlimit:4;" d="M 414.960938 439.492188 C 470.3125 439.492188 515.273438 484.375 515.273438 539.765625 C 515.273438 595.195312 470.3125 640.078125 414.960938 640.078125 C 359.570312 640.078125 314.648438 595.195312 314.648438 539.765625 C 314.648438 484.375 359.570312 439.492188 414.960938 439.492188 Z M 414.960938 439.492188 " transform="matrix(0.1,0,0,-0.1,0,108)"/>
<path style=" stroke:none;fill-rule:nonzero;fill:rgb(13.729858%,12.159729%,12.548828%);fill-opacity:1;" d="M 41.496094 90.050781 C 47.03125 90.050781 51.527344 85.5625 51.527344 80.023438 C 51.527344 74.480469 47.03125 69.992188 41.496094 69.992188 C 35.957031 69.992188 31.464844 74.480469 31.464844 80.023438 C 31.464844 85.5625 35.957031 90.050781 41.496094 90.050781 "/>
<path style="fill:none;stroke-width:15;stroke-linecap:butt;stroke-linejoin:miter;stroke:rgb(13.729858%,12.159729%,12.548828%);stroke-opacity:1;stroke-miterlimit:4;" d="M 414.960938 179.492188 C 470.3125 179.492188 515.273438 224.375 515.273438 279.765625 C 515.273438 335.195312 470.3125 380.078125 414.960938 380.078125 C 359.570312 380.078125 314.648438 335.195312 314.648438 279.765625 C 314.648438 224.375 359.570312 179.492188 414.960938 179.492188 Z M 414.960938 179.492188 " transform="matrix(0.1,0,0,-0.1,0,108)"/>
</g>
</svg>