<?xml version="1.0" encoding="UTF-8"?>
<svg xmlns="http://www.w3.org/2000/svg" xmlns:xlink="http://www.w3.org/1999/xlink" width="108pt" height="108pt" viewBox="0 0 108 108" version="1.1">
<g id="surface1">
<path style="fill:none;stroke-width:1;stroke-linecap:round;stroke-linejoin:round;stroke:rgb(13.729858%,12.159729%,12.548828%);stroke-opacity:1;stroke-miterlimit:4;" d="M 484.140625 708.75 C 718.554688 708.75 908.554688 752.34375 908.554688 806.132812 C 908.554688 859.921875 718.554688 903.476562 484.140625 903.476562 " transform="matrix(0.1,0,0,-0.1,0,108)"/>
<path style=" stroke:none;fill-rule:nonzero;fill:rgb(13.729858%,12.159729%,12.548828%);fill-opacity:1;" d="M 48.414062 37.125 C 46.316406 37.125 44.664062 32.757812 44.664062 27.472656 C 44.664062 22.195312 46.316406 17.652344 48.414062 17.652344 C 52.371094 17.652344 55.484375 22.195312 55.484375 27.472656 C 55.484375 32.757812 52.371094 37.125 48.414062 37.125 "/>
<path style="fill:none;stroke-width:1;stroke-linecap:butt;stroke-linejoin:miter;stroke:rgb(13.729858%,12.159729%,12.548828%);stroke-opacity:1;stroke-miterlimit:4;" d="M 484.140625 708.75 C 463.164062 708.75 446.640625 752.421875 446.640625 805.273438 C 446.640625 858.046875 463.164062 903.476562 484.140625 903.476562 C 523.710938 903.476562 554.84375 858.046875 554.84375 805.273438 C 554.84375 752.421875 523.710938 708.75 484.140625 708.75 Z M 484.140625 708.75 " transform="matrix(0.1,0,0,-0.1,0,108)"/>
<path style="fill:none;stroke-width:1;stroke-linecap:round;stroke-linejoin:round;stroke:rgb(13.729858%,12.159729%,12.548828%);stroke-opacity:1;stroke-miterlimit:4;" d="M 224.140625 708.75 C 458.554688 708.75 648.554688 752.34375 648.554688 806.132812 C 648.554688 859.921875 458.554688 903.476562 224.140625 903.476562 " transform="matrix(0.1,0,0,-0.1,0,108)"/>
<path style=" stroke:none;fill-rule:nonzero;fill:rgb(13.729858%,12.159729%,12.548828%);fill-opacity:1;" d="M 22.414062 37.125 C 20.316406 37.125 18.664062 32.757812 18.664062 27.472656 C 18.664062 22.195312 20.316406 17.652344 22.414062 17.652344 C 26.371094 17.652344 29.484375 22.195312 29.484375 27.472656 C 29.484375 32.757812 26.371094 37.125 22.414062 37.125 "/>
<path style="fill:none;stroke-width:1;stroke-linecap:butt;stroke-linejoin:miter;stroke:rgb(13.729858%,12.159729%,12.548828%);stroke-opacity:1;stroke-miterlimit:4;" d="M 224.140625 708.75 C 203.164062 708.75 186.640625 752.421875 186.640625 805.273438 C 186.640625 858.046875 203.164062 903.476562 224.140625 903.476562 C 263.710938 903.476562 294.84375 858.046875 294.84375 805.273438 C 294.84375 752.421875 263.710938 708.75 224.140625 708.75 Z M 224.140625 708.75 " transform="matrix(0.1,0,0,-0.1,0,108)"/>
<path style="fill:none;stroke-width:1;stroke-linecap:round;stroke-linejoin:round;stroke:rgb(13.729858%,12.159729%,12.548828%);stroke-opacity:1;stroke-miterlimit:4;" d="M 484.140625 443.75 C 718.554688 443.75 908.554688 487.34375 908.554688 541.132812 C 908.554688 594.921875 718.554688 638.476562 484.140625 638.476562 " transform="matrix(0.1,0,0,-0.1,0,108)"/>
<path style=" stroke:none;fill-rule:nonzero;fill:rgb(13.729858%,12.159729%,12.548828%);fill-opacity:1;" d="M 48.414062 63.625 C 46.316406 63.625 44.664062 59.257812 44.664062 53.972656 C 44.664062 48.695312 46.316406 44.152344 48.414062 44.152344 C 52.371094 44.152344 55.484375 48.695312 55.484375 53.972656 C 55.484375 59.257812 52.371094 63.625 48.414062 63.625 "/>
<path style="fill:none;stroke-width:1;stroke-linecap:butt;stroke-linejoin:miter;stroke:rgb(13.729858%,12.159729%,12.548828%);stroke-opacity:1;stroke-miterlimit:4;" d="M 484.140625 443.75 C 463.164062 443.75 446.640625 487.421875 446.640625 540.273438 C 446.640625 593.046875 463.164062 638.476562 484.140625 638.476562 C 523.710938 638.476562 554.84375 593.046875 554.84375 540.273438 C 554.84375 487.421875 523.710938 443.75 484.140625 443.75 Z M 484.140625 443.75 " transform="matrix(0.1,0,0,-0.1,0,108)"/>
<path style="fill:none;stroke-width:1;stroke-linecap:round;stroke-linejoin:round;stroke:rgb(13.729858%,12.159729%,12.548828%);stroke-opacity:1;stroke-miterlimit:4;" d="M 224.140625 443.75 C 458.554688 443.75 648.554688 487.34375 648.554688 541.132812 C 648.554688 594.921875 458.554688 638.476562 224.140625 638.476562 " transform="matrix(0.1,0,0,-0.1,0,108)"/>
<path style=" stroke:none;fill-rule:nonzero;fill:rgb(13.729858%,12.159729%,12.548828%);fill-opacity:1;" d="M 22.414062 63.625 C 20.316406 63.625 18.664062 59.257812 18.664062 53.972656 C 18.664062 48.695312 20.316406 44.152344 22.414062 44.152344 C 26.371094 44.152344 29.484375 48.695312 29.484375 53.972656 C 29.484375 59.257812 26.371094 63.625 22.414062 63.625 "/>
<path style="fill:none;stroke-width:1;stroke-linecap:butt;stroke-linejoin:miter;stroke:rgb(13.729858%,12.159729%,12.548828%);stroke-opacity:1;stroke-miterlimit:4;" d="M 224.140625 443.75 C 203.164062 443.75 186.640625 487.421875 186.640625 540.273438 C 186.640625 593.046875 203.164062 638.476562 224.140625 638.476562 C 263.710938 638.476562 294.84375 593.046875 294.84375 540.273438 C 294.84375 487.421875 263.710938 443.75 224.140625 443.75 Z M 224.140625 443.75 " transform="matrix(0.1,0,0,-0.1,0,108)"/>
<path style="fill:none;stroke-width:1;stroke-linecap:round;stroke-linejoin:round;stroke:rgb(13.729858%,12.159729%,12.548828%);stroke-opacity:1;stroke-miterlimit:4;" d="M 484.140625 193.75 C 718.554688 193.75 908.554688 237.34375 908.554688 291.132812 C 908.554688 344.921875 718.554688 388.476562 484.140625 388.476562 " transform="matrix(0.1,0,0,-0.1,0,108)"/>
<path style=" stroke:none;fill-rule:nonzero;fill:rgb(13.729858%,12.159729%,12.548828%);fill-opacity:1;" d="M 48.414062 88.625 C 46.316406 88.625 44.664062 84.257812 44.664062 78.972656 C 44.664062 73.695312 46.316406 69.152344 48.414062 69.152344 C 52.371094 69.152344 55.484375 73.695312 55.484375 78.972656 C 55.484375 84.257812 52.371094 88.625 48.414062 88.625 "/>
<path style="fill:none;stroke-width:1;stroke-linecap:butt;stroke-linejoin:miter;stroke:rgb(13.729858%,12.159729%,12.548828%);stroke-opacity:1;stroke-miterlimit:4;" d="M 484.140625 193.75 C 463.164062 193.75 446.640625 237.421875 446.640625 290.273438 C 446.640625 343.046875 463.164062 388.476562 484.140625 388.476562 C 523.710938 388.476562 554.84375 343.046875 554.84375 290.273438 C 554.84375 237.421875 523.710938 193.75 484.140625 193.75 Z M 484.140625 193.75 " transform="matrix(0.1,0,0,-0.1,0,108)"/>
<path style="fill:none;stroke-width:1;stroke-linecap:round;stroke-linejoin:round;stroke:rgb(13.729858%,12.159729%,12.548828%);stroke-opacity:1;stroke-miterlimit:4;" d="M 224.140625 193.75 C 458.554688 193.75 648.554688 237.34375 648.554688 291.132812 C 648.554688 344.921875 458.554688 388.476562 224.140625 388.476562 " transform="matrix(0.1,0,0,-0.1,0,108)"/>
<path style=" stroke:none;fill-rule:nonzero;fill:rgb(13.729858%,12.159729%,12.548828%);fill-opacity:1;" d="M 22.414062 88.625 C 20.316406 88.625 18.664062 84.257812 18.664062 78.972656 C 18.664062 73.695312 20.316406 69.152344 22.414062 69.152344 C 26.371094 69.152344 29.484375 73.695312 29.484375 78.972656 C 29.484375 84.257812 26.371094 88.625 22.414062 88.625 "/>
<path style="fill:none;stroke-width:1;stroke-linecap:butt;stroke-linejoin:miter;stroke:rgb(13.729858%,12.159729%,12.548828%);stroke-opacity:1;stroke-miterlimit:4;" d="M 224.140625 193.75 C 203.164062 193.75 186.640625 237.421875 186.640625 290.273438 C 186.640625 343.046875 203.164062 388.476562 224.140625 388.476562 C 263.710938 388.476562 294.84375 343.046875 294.84375 290.273438 C 294.84375 237.421875 263.710938 193.75 224.140625 193.75 Z M 224.140625 193.75 " transform="matrix(0.1,0,0,-0.1,0,108)"/>
</g>
</svg>
