<?xml version="1.0" encoding="UTF-8"?>
<svg xmlns="http://www.w3.org/2000/svg" xmlns:xlink="http://www.w3.org/1999/xlink" width="109pt" height="108pt" viewBox="0 0 109 108" version="1.1">
<g transform="rotate(90 54 54)" id="surface1">
<path style="fill-rule:nonzero;fill:rgb(13.729858%,12.159729%,12.548828%);fill-opacity:1;stroke-width:15;stroke-linecap:butt;stroke-linejoin:miter;stroke:rgb(13.729858%,12.159729%,12.548828%);stroke-opacity:1;stroke-miterlimit:4;" d="M 196.601562 529.6875 C 196.601562 529.6875 229.296875 530.507812 309.492188 534.570312 C 374.765625 537.890625 535.585938 546.445312 535.585938 546.445312 C 535.585938 546.445312 377.109375 552.34375 311.835938 555.664062 C 231.640625 559.765625 196.601562 563.203125 196.601562 563.203125 " transform="matrix(0.1,0,0,-0.1,0,108)"/>
<path style="fill-rule:nonzero;fill:rgb(13.729858%,12.159729%,12.548828%);fill-opacity:1;stroke-width:15;stroke-linecap:butt;stroke-linejoin:miter;stroke:rgb(13.729858%,12.159729%,12.548828%);stroke-opacity:1;stroke-miterlimit:4;" d="M 550.976562 529.6875 C 550.976562 529.6875 583.671875 530.507812 663.867188 534.570312 C 729.140625 537.890625 889.960938 546.445312 889.960938 546.445312 C 889.960938 546.445312 731.484375 552.34375 666.210938 555.664062 C 586.015625 559.765625 550.976562 563.203125 550.976562 563.203125 " transform="matrix(0.1,0,0,-0.1,0,108)"/>
</g>
</svg>
