<?xml version="1.0" encoding="UTF-8"?>
<svg xmlns="http://www.w3.org/2000/svg" xmlns:xlink="http://www.w3.org/1999/xlink" version="1.1"  width="555" height="400"><line stroke="#aaa" style="stroke-width: 1px;" x1="163.61840748373237" y1="153.41249652529243" x2="334.85547036505125" y2="219.56310814471863"></line><line stroke="#aaa" style="stroke-width: 1px;" x1="163.61840748373237" y1="153.41249652529243" x2="243.88119598564768" y2="272.44116165709846"></line><line stroke="#aaa" style="stroke-width: 1px;" x1="163.61840748373237" y1="153.41249652529243" x2="312.7081950539644" y2="114.34822214343208"></line><line stroke="#aaa" style="stroke-width: 1px;" x1="163.61840748373237" y1="153.41249652529243" x2="272.81857984017597" y2="38.26916769382183"></line><line stroke="#aaa" style="stroke-width: 1px;" x1="163.61840748373237" y1="153.41249652529243" x2="316.80984266556834" y2="315.0540034925022"></line><line stroke="#aaa" style="stroke-width: 1px;" x1="163.61840748373237" y1="153.41249652529243" x2="386.99608644160503" y2="273.4933369350269"></line><line stroke="#aaa" style="stroke-width: 1px;" x1="163.61840748373237" y1="153.41249652529243" x2="12.845737767171888" y2="29.231985218453083"></line><line stroke="#aaa" style="stroke-width: 1px;" x1="163.61840748373237" y1="153.41249652529243" x2="402.8107965983825" y2="234.62695059165267"></line><line stroke="#aaa" style="stroke-width: 1px;" x1="163.61840748373237" y1="153.41249652529243" x2="390.0502682407328" y2="168.63114542081095"></line><line stroke="#aaa" style="stroke-width: 1px;" x1="163.61840748373237" y1="153.41249652529243" x2="105.75043927021017" y2="314.9366524941201"></line><line stroke="#aaa" style="stroke-width: 1px;" x1="334.85547036505125" y1="219.56310814471863" x2="243.88119598564768" y2="272.44116165709846"></line><line stroke="#aaa" style="stroke-width: 1px;" x1="334.85547036505125" y1="219.56310814471863" x2="312.7081950539644" y2="114.34822214343208"></line><line stroke="#aaa" style="stroke-width: 1px;" x1="334.85547036505125" y1="219.56310814471863" x2="272.81857984017597" y2="38.26916769382183"></line><line stroke="#aaa" style="stroke-width: 1px;" x1="334.85547036505125" y1="219.56310814471863" x2="316.80984266556834" y2="315.0540034925022"></line><line stroke="#aaa" style="stroke-width: 1px;" x1="334.85547036505125" y1="219.56310814471863" x2="386.99608644160503" y2="273.4933369350269"></line><line stroke="#aaa" style="stroke-width: 1px;" x1="334.85547036505125" y1="219.56310814471863" x2="402.8107965983825" y2="234.62695059165267"></line><line stroke="#aaa" style="stroke-width: 1px;" x1="334.85547036505125" y1="219.56310814471863" x2="390.0502682407328" y2="168.63114542081095"></line><line stroke="#aaa" style="stroke-width: 1px;" x1="334.85547036505125" y1="219.56310814471863" x2="105.75043927021017" y2="314.9366524941201"></line><line stroke="#aaa" style="stroke-width: 1px;" x1="243.88119598564768" y1="272.44116165709846" x2="312.7081950539644" y2="114.34822214343208"></line><line stroke="#aaa" style="stroke-width: 1px;" x1="243.88119598564768" y1="272.44116165709846" x2="272.81857984017597" y2="38.26916769382183"></line><line stroke="#aaa" style="stroke-width: 1px;" x1="243.88119598564768" y1="272.44116165709846" x2="316.80984266556834" y2="315.0540034925022"></line><line stroke="#aaa" style="stroke-width: 1px;" x1="243.88119598564768" y1="272.44116165709846" x2="386.99608644160503" y2="273.4933369350269"></line><line stroke="#aaa" style="stroke-width: 1px;" x1="243.88119598564768" y1="272.44116165709846" x2="402.8107965983825" y2="234.62695059165267"></line><line stroke="#aaa" style="stroke-width: 1px;" x1="243.88119598564768" y1="272.44116165709846" x2="390.0502682407328" y2="168.63114542081095"></line><line stroke="#aaa" style="stroke-width: 1px;" x1="243.88119598564768" y1="272.44116165709846" x2="105.75043927021017" y2="314.9366524941201"></line><line stroke="#aaa" style="stroke-width: 1px;" x1="312.7081950539644" y1="114.34822214343208" x2="272.81857984017597" y2="38.26916769382183"></line><line stroke="#aaa" style="stroke-width: 1px;" x1="312.7081950539644" y1="114.34822214343208" x2="316.80984266556834" y2="315.0540034925022"></line><line stroke="#aaa" style="stroke-width: 1px;" x1="312.7081950539644" y1="114.34822214343208" x2="386.99608644160503" y2="273.4933369350269"></line><line stroke="#aaa" style="stroke-width: 1px;" x1="312.7081950539644" y1="114.34822214343208" x2="12.845737767171888" y2="29.231985218453083"></line><line stroke="#aaa" style="stroke-width: 1px;" x1="312.7081950539644" y1="114.34822214343208" x2="402.8107965983825" y2="234.62695059165267"></line><line stroke="#aaa" style="stroke-width: 1px;" x1="312.7081950539644" y1="114.34822214343208" x2="390.0502682407328" y2="168.63114542081095"></line><line stroke="#aaa" style="stroke-width: 1px;" x1="312.7081950539644" y1="114.34822214343208" x2="105.75043927021017" y2="314.9366524941201"></line><line stroke="#aaa" style="stroke-width: 1px;" x1="272.81857984017597" y1="38.26916769382183" x2="316.80984266556834" y2="315.0540034925022"></line><line stroke="#aaa" style="stroke-width: 1px;" x1="272.81857984017597" y1="38.26916769382183" x2="386.99608644160503" y2="273.4933369350269"></line><line stroke="#aaa" style="stroke-width: 1px;" x1="272.81857984017597" y1="38.26916769382183" x2="12.845737767171888" y2="29.231985218453083"></line><line stroke="#aaa" style="stroke-width: 1px;" x1="272.81857984017597" y1="38.26916769382183" x2="402.8107965983825" y2="234.62695059165267"></line><line stroke="#aaa" style="stroke-width: 1px;" x1="272.81857984017597" y1="38.26916769382183" x2="390.0502682407328" y2="168.63114542081095"></line><line stroke="#aaa" style="stroke-width: 1px;" x1="272.81857984017597" y1="38.26916769382183" x2="105.75043927021017" y2="314.9366524941201"></line><line stroke="#aaa" style="stroke-width: 1px;" x1="316.80984266556834" y1="315.0540034925022" x2="386.99608644160503" y2="273.4933369350269"></line><line stroke="#aaa" style="stroke-width: 1px;" x1="316.80984266556834" y1="315.0540034925022" x2="402.8107965983825" y2="234.62695059165267"></line><line stroke="#aaa" style="stroke-width: 1px;" x1="316.80984266556834" y1="315.0540034925022" x2="390.0502682407328" y2="168.63114542081095"></line><line stroke="#aaa" style="stroke-width: 1px;" x1="316.80984266556834" y1="315.0540034925022" x2="105.75043927021017" y2="314.9366524941201"></line><line stroke="#aaa" style="stroke-width: 1px;" x1="386.99608644160503" y1="273.4933369350269" x2="402.8107965983825" y2="234.62695059165267"></line><line stroke="#aaa" style="stroke-width: 1px;" x1="386.99608644160503" y1="273.4933369350269" x2="390.0502682407328" y2="168.63114542081095"></line><line stroke="#aaa" style="stroke-width: 1px;" x1="386.99608644160503" y1="273.4933369350269" x2="105.75043927021017" y2="314.9366524941201"></line><line stroke="#aaa" style="stroke-width: 1px;" x1="12.845737767171888" y1="29.231985218453083" x2="105.75043927021017" y2="314.9366524941201"></line><line stroke="#aaa" style="stroke-width: 1px;" x1="402.8107965983825" y1="234.62695059165267" x2="390.0502682407328" y2="168.63114542081095"></line><line stroke="#aaa" style="stroke-width: 1px;" x1="402.8107965983825" y1="234.62695059165267" x2="105.75043927021017" y2="314.9366524941201"></line><line stroke="#aaa" style="stroke-width: 1px;" x1="390.0502682407328" y1="168.63114542081095" x2="105.75043927021017" y2="314.9366524941201"></line><g transform="translate(163.61840748373237,153.41249652529243)"><circle fill="#F4B400" style="stroke: black; stroke-width: 0px;" r="15"></circle><text stroke="#333" dx="12" dy=".35em" style="cursor: default;">tablet</text></g><g transform="translate(334.85547036505125,219.56310814471863)"><circle fill="#DB4437" style="stroke: black; stroke-width: 0px;" r="10"></circle><text stroke="#333" dx="12" dy=".35em" style="cursor: default;">smartphone</text></g><g transform="translate(243.88119598564768,272.44116165709846)"><circle fill="#DB4437" style="stroke: black; stroke-width: 0px;" r="10"></circle><text stroke="#333" dx="12" dy=".35em" style="cursor: default;">laptop</text></g><g transform="translate(312.7081950539644,114.34822214343208)"><circle fill="#DB4437" style="stroke: black; stroke-width: 0px;" r="10"></circle><text stroke="#333" dx="12" dy=".35em" style="cursor: default;">touchscreen</text></g><g transform="translate(272.81857984017597,38.26916769382183)"><circle fill="#DB4437" style="stroke: black; stroke-width: 0px;" r="10"></circle><text stroke="#333" dx="12" dy=".35em" style="cursor: default;">stylus</text></g><g transform="translate(316.80984266556834,315.0540034925022)"><circle fill="#DB4437" style="stroke: black; stroke-width: 0px;" r="10"></circle><text stroke="#333" dx="12" dy=".35em" style="cursor: default;">device</text></g><g transform="translate(386.99608644160503,273.4933369350269)"><circle fill="#DB4437" style="stroke: black; stroke-width: 0px;" r="10"></circle><text stroke="#333" dx="12" dy=".35em" style="cursor: default;">ipad</text></g><g transform="translate(12.845737767171888,29.231985218453083)"><circle fill="#DB4437" style="stroke: black; stroke-width: 0px;" r="10"></circle><text stroke="#333" dx="12" dy=".35em" style="cursor: default;">scroll</text></g><g transform="translate(402.8107965983825,234.62695059165267)"><circle fill="#DB4437" style="stroke: black; stroke-width: 0px;" r="10"></circle><text stroke="#333" dx="12" dy=".35em" style="cursor: default;">iphone</text></g><g transform="translate(390.0502682407328,168.63114542081095)"><circle fill="#DB4437" style="stroke: black; stroke-width: 0px;" r="10"></circle><text stroke="#333" dx="12" dy=".35em" style="cursor: default;">handset</text></g><g transform="translate(105.75043927021017,314.9366524941201)"><circle fill="#DB4437" style="stroke: black; stroke-width: 0px;" r="10"></circle><text stroke="#333" dx="12" dy=".35em" style="cursor: default;">notebook</text></g></svg>
