<?xml version="1.0" encoding="UTF-8" standalone="no"?>
<svg
   width="109pt"
   height="108pt"
   viewBox="0 0 109 108"
   version="1.1"
   id="svg27"
   sodipodi:docname="M218-B-hilite.svg"
   inkscape:version="1.2 (dc2aedaf03, 2022-05-15)"
   xmlns:inkscape="http://www.inkscape.org/namespaces/inkscape"
   xmlns:sodipodi="http://sodipodi.sourceforge.net/DTD/sodipodi-0.dtd"
   xmlns="http://www.w3.org/2000/svg"
   xmlns:svg="http://www.w3.org/2000/svg">
  <defs
     id="defs31" />
  <sodipodi:namedview
     id="namedview29"
     pagecolor="#ffffff"
     bordercolor="#666666"
     borderopacity="1.0"
     inkscape:showpageshadow="2"
     inkscape:pageopacity="0.0"
     inkscape:pagecheckerboard="0"
     inkscape:deskcolor="#d1d1d1"
     inkscape:document-units="pt"
     showgrid="false"
     inkscape:zoom="4.4853533"
     inkscape:cx="75.356382"
     inkscape:cy="57.966448"
     inkscape:window-width="1291"
     inkscape:window-height="1063"
     inkscape:window-x="0"
     inkscape:window-y="13"
     inkscape:window-maximized="1"
     inkscape:current-layer="surface1" />
  <g
     id="surface1">
    <path
       style="fill-rule:nonzero;fill:rgb(13.729858%,12.159729%,12.548828%);fill-opacity:1;stroke-width:2;stroke-linecap:butt;stroke-linejoin:miter;stroke:rgb(13.729858%,12.159729%,12.548828%);stroke-opacity:1;stroke-miterlimit:4;"
       d="M 787.695312 684.882812 C 787.695312 684.882812 800.390625 667.890625 828.554688 636.640625 C 851.484375 611.289062 867.890625 594.882812 867.890625 594.882812 C 867.890625 594.882812 848.90625 608.710938 823.515625 631.640625 C 792.304688 659.804688 775.3125 672.539062 775.3125 672.539062 "
       transform="matrix(0.1,0,0,-0.1,0,108)"
       id="path10" />
    <path
       style="fill-rule:nonzero;fill:rgb(13.729858%,12.159729%,12.548828%);fill-opacity:1;stroke-width:2;stroke-linecap:butt;stroke-linejoin:miter;stroke:rgb(13.729858%,12.159729%,12.548828%);stroke-opacity:1;stroke-miterlimit:4;"
       d="M 250.625 342.929688 C 250.625 342.929688 263.320312 325.9375 291.484375 294.6875 C 314.414062 269.296875 330.859375 252.929688 330.859375 252.929688 C 330.859375 252.929688 311.835938 266.71875 286.445312 289.6875 C 255.234375 317.851562 238.242188 330.546875 238.242188 330.546875 "
       transform="matrix(0.1,0,0,-0.1,0,108)"
       id="path12" />
    <path
       style="fill-rule:nonzero;fill:rgb(13.729858%,12.159729%,12.548828%);fill-opacity:1;stroke-width:2;stroke-linecap:butt;stroke-linejoin:miter;stroke:rgb(13.729858%,12.159729%,12.548828%);stroke-opacity:1;stroke-miterlimit:4;"
       d="M 861.171875 476.445312 C 861.171875 476.445312 873.828125 459.414062 901.992188 428.242188 C 924.960938 402.8125 941.367188 386.484375 941.367188 386.484375 C 941.367188 386.484375 922.382812 400.273438 896.953125 423.203125 C 865.78125 451.367188 848.789062 464.0625 848.789062 464.0625 "
       transform="matrix(0.1,0,0,-0.1,0,108)"
       id="path14" />
    <path
       style="fill-rule:nonzero;fill:rgb(13.729858%,12.159729%,12.548828%);fill-opacity:1;stroke-width:2;stroke-linecap:butt;stroke-linejoin:miter;stroke:rgb(13.729858%,12.159729%,12.548828%);stroke-opacity:1;stroke-miterlimit:4;"
       d="M 171.601562 536.992188 C 171.601562 536.992188 184.296875 519.960938 212.421875 488.75 C 235.390625 463.359375 251.796875 447.03125 251.796875 447.03125 C 251.796875 447.03125 232.8125 460.78125 207.421875 483.710938 C 176.210938 511.914062 159.21875 524.609375 159.21875 524.609375 "
       transform="matrix(0.1,0,0,-0.1,0,108)"
       id="path16" />
    <path
       style="fill-rule:nonzero;fill:rgb(13.729858%,12.159729%,12.548828%);fill-opacity:1;stroke-width:2;stroke-linecap:butt;stroke-linejoin:miter;stroke:rgb(13.729858%,12.159729%,12.548828%);stroke-opacity:1;stroke-miterlimit:4;"
       d="M 535.742188 315.078125 C 535.742188 315.078125 548.4375 298.085938 576.601562 266.875 C 599.53125 241.484375 615.976562 225.117188 615.976562 225.117188 C 615.976562 225.117188 596.953125 238.90625 571.5625 261.835938 C 540.351562 290.039062 523.359375 302.695312 523.359375 302.695312 "
       transform="matrix(0.1,0,0,-0.1,0,108)"
       id="path18" />
    <path
       style="fill-rule:nonzero;fill:rgb(13.729858%,12.159729%,12.548828%);fill-opacity:1;stroke-width:2;stroke-linecap:butt;stroke-linejoin:miter;stroke:rgb(13.729858%,12.159729%,12.548828%);stroke-opacity:1;stroke-miterlimit:4;"
       d="M 268.515625 788.90625 C 268.515625 788.90625 281.210938 771.914062 309.335938 740.703125 C 332.304688 715.3125 348.75 698.945312 348.75 698.945312 C 348.75 698.945312 329.726562 712.734375 304.335938 735.664062 C 273.164062 763.867188 256.132812 776.523438 256.132812 776.523438 "
       transform="matrix(0.1,0,0,-0.1,0,108)"
       id="path20" />
    <path
       style="fill-rule:nonzero;fill:rgb(13.729858%,12.159729%,12.548828%);fill-opacity:1;stroke-width:2;stroke-linecap:butt;stroke-linejoin:miter;stroke:rgb(13.729858%,12.159729%,12.548828%);stroke-opacity:1;stroke-miterlimit:4;"
       d="M 518.203125 828.867188 C 518.203125 828.867188 530.898438 811.835938 559.0625 780.664062 C 581.992188 755.273438 598.4375 738.90625 598.4375 738.90625 C 598.4375 738.90625 579.414062 752.695312 554.023438 775.664062 C 522.8125 803.828125 505.820312 816.484375 505.820312 816.484375 "
       transform="matrix(0.1,0,0,-0.1,0,108)"
       id="path22" />
    <path
       style="fill-rule:nonzero;fill:rgb(13.729858%,12.159729%,12.548828%);fill-opacity:1;stroke-width:2;stroke-linecap:butt;stroke-linejoin:miter;stroke:rgb(13.729858%,12.159729%,12.548828%);stroke-opacity:1;stroke-miterlimit:4;"
       d="M 780.273438 318.320312 C 780.273438 318.320312 792.929688 301.328125 821.09375 270.117188 C 844.0625 244.726562 860.46875 228.359375 860.46875 228.359375 C 860.46875 228.359375 841.445312 242.148438 816.09375 265.117188 C 784.882812 293.28125 767.890625 305.9375 767.890625 305.9375 "
       transform="matrix(0.1,0,0,-0.1,0,108)"
       id="path24" />
  </g>
</svg>
