<?xml version="1.0" encoding="UTF-8"?>
<svg xmlns="http://www.w3.org/2000/svg" xmlns:xlink="http://www.w3.org/1999/xlink" width="108pt" height="108pt" viewBox="0 0 108 108" version="1.1">
<g id="surface1">
<path style="fill-rule:nonzero;fill:rgb(99.996948%,99.996948%,99.996948%);fill-opacity:1;stroke-width:1;stroke-linecap:round;stroke-linejoin:round;stroke:rgb(13.729858%,12.159729%,12.548828%);stroke-opacity:1;stroke-miterlimit:4;" d="M 329.140625 445.742188 C 563.554688 445.742188 753.554688 489.335938 753.554688 543.125 C 753.554688 596.914062 563.554688 640.46875 329.140625 640.46875 " transform="matrix(0.1,0,0,-0.1,0,108)"/>
<path style=" stroke:none;fill-rule:nonzero;fill:rgb(13.729858%,12.159729%,12.548828%);fill-opacity:1;" d="M 32.914062 63.425781 C 30.816406 63.425781 29.164062 59.054688 29.164062 53.773438 C 29.164062 48.492188 30.816406 43.953125 32.914062 43.953125 C 36.871094 43.953125 39.984375 48.492188 39.984375 53.773438 C 39.984375 59.054688 36.871094 63.425781 32.914062 63.425781 "/>
<path style="fill:none;stroke-width:1;stroke-linecap:butt;stroke-linejoin:miter;stroke:rgb(13.729858%,12.159729%,12.548828%);stroke-opacity:1;stroke-miterlimit:4;" d="M 329.140625 445.742188 C 308.164062 445.742188 291.640625 489.453125 291.640625 542.265625 C 291.640625 595.078125 308.164062 640.46875 329.140625 640.46875 C 368.710938 640.46875 399.84375 595.078125 399.84375 542.265625 C 399.84375 489.453125 368.710938 445.742188 329.140625 445.742188 Z M 329.140625 445.742188 " transform="matrix(0.1,0,0,-0.1,0,108)"/>
</g>
</svg>
