<?xml version="1.0" encoding="UTF-8"?>
<svg xmlns="http://www.w3.org/2000/svg" xmlns:xlink="http://www.w3.org/1999/xlink" width="108pt" height="108pt" viewBox="0 0 108 108" version="1.1">
<g id="surface1">
<path style="fill-rule:nonzero;fill:rgb(13.729858%,12.159729%,12.548828%);fill-opacity:1;stroke-width:1;stroke-linecap:butt;stroke-linejoin:miter;stroke:rgb(13.729858%,12.159729%,12.548828%);stroke-opacity:1;stroke-miterlimit:4;" d="M 580 774.257812 C 580 774.257812 619.023438 772.929688 667.03125 773.085938 C 715.742188 773.28125 807.734375 767.734375 807.734375 767.734375 C 807.734375 767.734375 718.046875 762.070312 667.03125 761.367188 C 618.203125 760.742188 580 760.273438 580 760.273438 " transform="matrix(0.1,0,0,-0.1,0,108)"/>
<path style="fill-rule:nonzero;fill:rgb(13.729858%,12.159729%,12.548828%);fill-opacity:1;stroke-width:1;stroke-linecap:butt;stroke-linejoin:miter;stroke:rgb(13.729858%,12.159729%,12.548828%);stroke-opacity:1;stroke-miterlimit:4;" d="M 167.5 789.257812 C 167.5 789.257812 206.523438 787.929688 254.53125 788.085938 C 303.28125 788.28125 395.234375 782.734375 395.234375 782.734375 C 395.234375 782.734375 305.585938 777.070312 254.53125 776.367188 C 205.703125 775.742188 167.5 775.273438 167.5 775.273438 " transform="matrix(0.1,0,0,-0.1,0,108)"/>
<path style="fill-rule:nonzero;fill:rgb(13.729858%,12.159729%,12.548828%);fill-opacity:1;stroke-width:1;stroke-linecap:butt;stroke-linejoin:miter;stroke:rgb(13.729858%,12.159729%,12.548828%);stroke-opacity:1;stroke-miterlimit:4;" d="M 135.664062 685.742188 C 135.664062 685.742188 134.335938 646.71875 134.53125 598.710938 C 134.6875 549.960938 129.140625 458.007812 129.140625 458.007812 C 129.140625 458.007812 123.476562 547.65625 122.8125 598.710938 C 122.148438 647.539062 121.71875 685.742188 121.71875 685.742188 " transform="matrix(0.1,0,0,-0.1,0,108)"/>
<path style="fill-rule:nonzero;fill:rgb(13.729858%,12.159729%,12.548828%);fill-opacity:1;stroke-width:1;stroke-linecap:butt;stroke-linejoin:miter;stroke:rgb(13.729858%,12.159729%,12.548828%);stroke-opacity:1;stroke-miterlimit:4;" d="M 848.164062 670.742188 C 848.164062 670.742188 846.835938 631.71875 847.03125 583.710938 C 847.1875 534.960938 841.640625 443.007812 841.640625 443.007812 C 841.640625 443.007812 835.9375 532.65625 835.3125 583.710938 C 834.6875 632.539062 834.179688 670.742188 834.179688 670.742188 " transform="matrix(0.1,0,0,-0.1,0,108)"/>
<path style="fill-rule:nonzero;fill:rgb(13.729858%,12.159729%,12.548828%);fill-opacity:1;stroke-width:1;stroke-linecap:butt;stroke-linejoin:miter;stroke:rgb(13.729858%,12.159729%,12.548828%);stroke-opacity:1;stroke-miterlimit:4;" d="M 182.5 361.757812 C 182.5 361.757812 221.523438 360.429688 269.53125 360.585938 C 318.28125 360.742188 410.234375 355.234375 410.234375 355.234375 C 410.234375 355.234375 320.585938 349.570312 269.53125 348.867188 C 220.703125 348.242188 182.5 347.773438 182.5 347.773438 " transform="matrix(0.1,0,0,-0.1,0,108)"/>
<path style="fill-rule:nonzero;fill:rgb(13.729858%,12.159729%,12.548828%);fill-opacity:1;stroke-width:1;stroke-linecap:butt;stroke-linejoin:miter;stroke:rgb(13.729858%,12.159729%,12.548828%);stroke-opacity:1;stroke-miterlimit:4;" d="M 580 354.257812 C 580 354.257812 619.023438 352.929688 667.03125 353.085938 C 715.742188 353.242188 807.734375 347.734375 807.734375 347.734375 C 807.734375 347.734375 718.046875 342.070312 667.03125 341.367188 C 618.203125 340.742188 580 340.273438 580 340.273438 " transform="matrix(0.1,0,0,-0.1,0,108)"/>
<path style="fill-rule:nonzero;fill:rgb(99.996948%,99.996948%,99.996948%);fill-opacity:1;stroke-width:1;stroke-linecap:round;stroke-linejoin:round;stroke:rgb(13.729858%,12.159729%,12.548828%);stroke-opacity:1;stroke-miterlimit:4;" d="M 333.28125 433.476562 C 567.695312 433.476562 757.695312 477.070312 757.695312 530.859375 C 757.695312 584.648438 567.695312 628.203125 333.28125 628.203125 " transform="matrix(0.1,0,0,-0.1,0,108)"/>
<path style=" stroke:none;fill-rule:nonzero;fill:rgb(13.729858%,12.159729%,12.548828%);fill-opacity:1;" d="M 33.328125 64.652344 C 31.226562 64.652344 29.578125 60.285156 29.578125 55 C 29.578125 49.722656 31.226562 45.179688 33.328125 45.179688 C 37.28125 45.179688 40.398438 49.722656 40.398438 55 C 40.398438 60.285156 37.28125 64.652344 33.328125 64.652344 "/>
<path style="fill:none;stroke-width:1;stroke-linecap:butt;stroke-linejoin:miter;stroke:rgb(13.729858%,12.159729%,12.548828%);stroke-opacity:1;stroke-miterlimit:4;" d="M 333.28125 433.476562 C 312.265625 433.476562 295.78125 477.148438 295.78125 530 C 295.78125 582.773438 312.265625 628.203125 333.28125 628.203125 C 372.8125 628.203125 403.984375 582.773438 403.984375 530 C 403.984375 477.148438 372.8125 433.476562 333.28125 433.476562 Z M 333.28125 433.476562 " transform="matrix(0.1,0,0,-0.1,0,108)"/>
</g>
</svg>
