<?xml version="1.0" encoding="UTF-8"?>
<svg xmlns="http://www.w3.org/2000/svg" xmlns:xlink="http://www.w3.org/1999/xlink" width="108pt" height="108pt" viewBox="0 0 108 108" version="1.1">
<g id="surface1">
<path style="fill-rule:nonzero;fill:rgb(13.729858%,12.159729%,12.548828%);fill-opacity:1;stroke-width:2;stroke-linecap:butt;stroke-linejoin:miter;stroke:rgb(13.729858%,12.159729%,12.548828%);stroke-opacity:1;stroke-miterlimit:4;" d="M 377.96875 681.25 C 377.96875 681.25 431.289062 624.21875 499.414062 556.5625 C 568.59375 487.851562 690.820312 349.960938 690.820312 349.960938 C 690.820312 349.960938 555.976562 468.75 482.8125 540 C 412.890625 608.125 358.242188 661.484375 358.242188 661.484375 " transform="matrix(0.1,0,0,-0.1,0,108)"/>
<path style="fill-rule:nonzero;fill:rgb(13.729858%,12.159729%,12.548828%);fill-opacity:1;stroke-width:2;stroke-linecap:butt;stroke-linejoin:miter;stroke:rgb(13.729858%,12.159729%,12.548828%);stroke-opacity:1;stroke-miterlimit:4;" d="M 415.46875 726.25 C 415.46875 726.25 468.789062 669.21875 536.914062 601.5625 C 606.09375 532.851562 728.320312 394.960938 728.320312 394.960938 C 728.320312 394.960938 593.476562 513.75 520.3125 585 C 450.390625 653.125 395.742188 706.484375 395.742188 706.484375 " transform="matrix(0.1,0,0,-0.1,0,108)"/>
<path style=" stroke:none;fill-rule:nonzero;fill:rgb(13.729858%,12.159729%,12.548828%);fill-opacity:1;" d="M 53.691406 63.472656 C 59.007812 63.472656 63.320312 59.164062 63.320312 53.84375 C 63.320312 48.527344 59.007812 44.214844 53.691406 44.214844 C 48.371094 44.214844 44.058594 48.527344 44.058594 53.84375 C 44.058594 59.164062 48.371094 63.472656 53.691406 63.472656 "/>
<path style="fill:none;stroke-width:1;stroke-linecap:butt;stroke-linejoin:miter;stroke:rgb(13.729858%,12.159729%,12.548828%);stroke-opacity:1;stroke-miterlimit:4;" d="M 536.914062 445.273438 C 590.078125 445.273438 633.203125 488.359375 633.203125 541.5625 C 633.203125 594.726562 590.078125 637.851562 536.914062 637.851562 C 483.710938 637.851562 440.585938 594.726562 440.585938 541.5625 C 440.585938 488.359375 483.710938 445.273438 536.914062 445.273438 Z M 536.914062 445.273438 " transform="matrix(0.1,0,0,-0.1,0,108)"/>
</g>
</svg>
