<?xml version="1.0" encoding="UTF-8"?>
<svg xmlns="http://www.w3.org/2000/svg" xmlns:xlink="http://www.w3.org/1999/xlink" width="108pt" height="108pt" viewBox="0 0 108 108" version="1.1">
<g id="surface1">
<path style="fill-rule:nonzero;fill:rgb(13.729858%,12.159729%,12.548828%);fill-opacity:1;stroke-width:1;stroke-linecap:butt;stroke-linejoin:miter;stroke:rgb(13.729858%,12.159729%,12.548828%);stroke-opacity:1;stroke-miterlimit:4;" d="M 647.304688 753.007812 C 647.304688 753.007812 687.929688 751.601562 737.929688 751.796875 C 788.710938 751.992188 884.53125 746.210938 884.53125 746.210938 C 884.53125 746.210938 791.09375 740.273438 737.929688 739.609375 C 687.109375 738.90625 647.304688 738.4375 647.304688 738.4375 " transform="matrix(0.1,0,0,-0.1,0,108)"/>
<path style="fill-rule:nonzero;fill:rgb(13.729858%,12.159729%,12.548828%);fill-opacity:1;stroke-width:1;stroke-linecap:butt;stroke-linejoin:miter;stroke:rgb(13.729858%,12.159729%,12.548828%);stroke-opacity:1;stroke-miterlimit:4;" d="M 217.617188 768.632812 C 217.617188 768.632812 258.242188 767.226562 308.242188 767.421875 C 359.023438 767.617188 454.84375 761.835938 454.84375 761.835938 C 454.84375 761.835938 361.445312 755.898438 308.242188 755.234375 C 257.421875 754.53125 217.617188 754.0625 217.617188 754.0625 " transform="matrix(0.1,0,0,-0.1,0,108)"/>
<path style="fill-rule:nonzero;fill:rgb(13.729858%,12.159729%,12.548828%);fill-opacity:1;stroke-width:1;stroke-linecap:butt;stroke-linejoin:miter;stroke:rgb(13.729858%,12.159729%,12.548828%);stroke-opacity:1;stroke-miterlimit:4;" d="M 184.453125 660.78125 C 184.453125 660.78125 183.046875 620.15625 183.242188 570.15625 C 183.4375 519.375 177.65625 423.554688 177.65625 423.554688 C 177.65625 423.554688 171.71875 516.992188 171.054688 570.15625 C 170.351562 620.976562 169.921875 660.78125 169.921875 660.78125 " transform="matrix(0.1,0,0,-0.1,0,108)"/>
<path style="fill-rule:nonzero;fill:rgb(13.729858%,12.159729%,12.548828%);fill-opacity:1;stroke-width:1;stroke-linecap:butt;stroke-linejoin:miter;stroke:rgb(13.729858%,12.159729%,12.548828%);stroke-opacity:1;stroke-miterlimit:4;" d="M 926.640625 645.15625 C 926.640625 645.15625 925.273438 604.53125 925.429688 554.53125 C 925.625 503.75 919.84375 407.929688 919.84375 407.929688 C 919.84375 407.929688 913.945312 501.367188 913.242188 554.53125 C 912.578125 605.351562 912.109375 645.15625 912.109375 645.15625 " transform="matrix(0.1,0,0,-0.1,0,108)"/>
<path style="fill-rule:nonzero;fill:rgb(13.729858%,12.159729%,12.548828%);fill-opacity:1;stroke-width:1;stroke-linecap:butt;stroke-linejoin:miter;stroke:rgb(13.729858%,12.159729%,12.548828%);stroke-opacity:1;stroke-miterlimit:4;" d="M 233.242188 323.320312 C 233.242188 323.320312 273.867188 321.914062 323.867188 322.109375 C 374.648438 322.265625 470.46875 316.523438 470.46875 316.523438 C 470.46875 316.523438 377.070312 310.585938 323.867188 309.882812 C 273.046875 309.21875 233.242188 308.789062 233.242188 308.789062 " transform="matrix(0.1,0,0,-0.1,0,108)"/>
<path style="fill-rule:nonzero;fill:rgb(13.729858%,12.159729%,12.548828%);fill-opacity:1;stroke-width:1;stroke-linecap:butt;stroke-linejoin:miter;stroke:rgb(13.729858%,12.159729%,12.548828%);stroke-opacity:1;stroke-miterlimit:4;" d="M 647.304688 315.46875 C 647.304688 315.46875 687.929688 314.101562 737.929688 314.296875 C 788.710938 314.492188 884.53125 308.710938 884.53125 308.710938 C 884.53125 308.710938 791.09375 302.8125 737.929688 302.109375 C 687.109375 301.40625 647.304688 300.9375 647.304688 300.9375 " transform="matrix(0.1,0,0,-0.1,0,108)"/>
<path style=" stroke:none;fill-rule:nonzero;fill:rgb(13.729858%,12.159729%,12.548828%);fill-opacity:1;" d="M 53.792969 64.019531 C 59.332031 64.019531 63.824219 59.53125 63.824219 53.988281 C 63.824219 48.449219 59.332031 43.960938 53.792969 43.960938 C 48.253906 43.960938 43.761719 48.449219 43.761719 53.988281 C 43.761719 59.53125 48.253906 64.019531 53.792969 64.019531 "/>
<path style="fill:none;stroke-width:1;stroke-linecap:butt;stroke-linejoin:miter;stroke:rgb(13.729858%,12.159729%,12.548828%);stroke-opacity:1;stroke-miterlimit:4;" d="M 537.929688 439.804688 C 593.320312 439.804688 638.242188 484.6875 638.242188 540.117188 C 638.242188 595.507812 593.320312 640.390625 537.929688 640.390625 C 482.539062 640.390625 437.617188 595.507812 437.617188 540.117188 C 437.617188 484.6875 482.539062 439.804688 537.929688 439.804688 Z M 537.929688 439.804688 " transform="matrix(0.1,0,0,-0.1,0,108)"/>
</g>
</svg>
