<?xml version="1.0" encoding="UTF-8"?>
<svg xmlns="http://www.w3.org/2000/svg" xmlns:xlink="http://www.w3.org/1999/xlink" width="108pt" height="108pt" viewBox="0 0 108 108" version="1.1">
<g id="surface1">
<path style=" stroke:none;fill-rule:nonzero;fill:rgb(13.729858%,12.159729%,12.548828%);fill-opacity:1;" d="M 54.496094 64.21875 C 60.03125 64.21875 64.527344 59.730469 64.527344 54.191406 C 64.527344 48.648438 60.03125 44.160156 54.496094 44.160156 C 48.957031 44.160156 44.464844 48.648438 44.464844 54.191406 C 44.464844 59.730469 48.957031 64.21875 54.496094 64.21875 "/>
<path style="fill:none;stroke-width:1;stroke-linecap:butt;stroke-linejoin:miter;stroke:rgb(13.729858%,12.159729%,12.548828%);stroke-opacity:1;stroke-miterlimit:4;" d="M 544.960938 437.8125 C 600.3125 437.8125 645.273438 482.695312 645.273438 538.085938 C 645.273438 593.515625 600.3125 638.398438 544.960938 638.398438 C 489.570312 638.398438 444.648438 593.515625 444.648438 538.085938 C 444.648438 482.695312 489.570312 437.8125 544.960938 437.8125 Z M 544.960938 437.8125 " transform="matrix(0.1,0,0,-0.1,0,108)"/>
</g>
</svg>
