<?xml version="1.0" encoding="UTF-8"?>
<svg xmlns="http://www.w3.org/2000/svg" xmlns:xlink="http://www.w3.org/1999/xlink" width="108pt" height="108pt" viewBox="0 0 108 108" version="1.1">
<g id="surface1">
<path style="fill-rule:nonzero;fill:rgb(99.996948%,99.996948%,99.996948%);fill-opacity:1;stroke-width:1;stroke-linecap:round;stroke-linejoin:round;stroke:rgb(13.729858%,12.159729%,12.548828%);stroke-opacity:1;stroke-miterlimit:4;" d="M 405.429688 771.289062 C 405.429688 643.476562 464.140625 539.84375 536.5625 539.84375 C 608.945312 539.84375 667.65625 643.476562 667.65625 771.289062 " transform="matrix(0.1,0,0,-0.1,0,108)"/>
<path style="fill-rule:nonzero;fill:rgb(99.996948%,99.996948%,99.996948%);fill-opacity:1;stroke-width:1;stroke-linecap:round;stroke-linejoin:round;stroke:rgb(13.729858%,12.159729%,12.548828%);stroke-opacity:1;stroke-miterlimit:4;" d="M 405.429688 308.945312 C 405.429688 436.679688 464.140625 540.3125 536.5625 540.3125 C 608.945312 540.3125 667.65625 436.679688 667.65625 308.945312 " transform="matrix(0.1,0,0,-0.1,0,108)"/>
<path style=" stroke:none;fill-rule:nonzero;fill:rgb(13.729858%,12.159729%,12.548828%);fill-opacity:1;" d="M 40.691406 30.726562 C 40.691406 27.925781 46.515625 25.726562 53.558594 25.726562 C 60.597656 25.726562 66.652344 27.925781 66.652344 30.726562 C 66.652344 36.003906 60.597656 40.15625 53.558594 40.15625 C 46.515625 40.15625 40.691406 36.003906 40.691406 30.726562 "/>
<path style="fill:none;stroke-width:1;stroke-linecap:butt;stroke-linejoin:miter;stroke:rgb(13.729858%,12.159729%,12.548828%);stroke-opacity:1;stroke-miterlimit:4;" d="M 406.914062 772.734375 C 406.914062 800.742188 465.15625 822.734375 535.585938 822.734375 C 605.976562 822.734375 666.523438 800.742188 666.523438 772.734375 C 666.523438 719.960938 605.976562 678.4375 535.585938 678.4375 C 465.15625 678.4375 406.914062 719.960938 406.914062 772.734375 Z M 406.914062 772.734375 " transform="matrix(0.1,0,0,-0.1,0,108)"/>
<path style=" stroke:none;fill-rule:nonzero;fill:rgb(13.729858%,12.159729%,12.548828%);fill-opacity:1;" d="M 40.691406 76.777344 C 40.691406 79.578125 46.515625 81.777344 53.558594 81.777344 C 60.597656 81.777344 66.652344 79.578125 66.652344 76.777344 C 66.652344 71.503906 60.597656 67.351562 53.558594 67.351562 C 46.515625 67.351562 40.691406 71.503906 40.691406 76.777344 "/>
<path style="fill:none;stroke-width:1;stroke-linecap:butt;stroke-linejoin:miter;stroke:rgb(13.729858%,12.159729%,12.548828%);stroke-opacity:1;stroke-miterlimit:4;" d="M 406.914062 312.226562 C 406.914062 284.21875 465.15625 262.226562 535.585938 262.226562 C 605.976562 262.226562 666.523438 284.21875 666.523438 312.226562 C 666.523438 364.960938 605.976562 406.484375 535.585938 406.484375 C 465.15625 406.484375 406.914062 364.960938 406.914062 312.226562 Z M 406.914062 312.226562 " transform="matrix(0.1,0,0,-0.1,0,108)"/>
</g>
</svg>
