<?xml version="1.0" encoding="UTF-8"?>
<svg xmlns="http://www.w3.org/2000/svg" xmlns:xlink="http://www.w3.org/1999/xlink" width="108pt" height="108pt" viewBox="0 0 108 108" version="1.1">
<g id="surface1">
<path style="fill-rule:nonzero;fill:rgb(99.996948%,99.996948%,99.996948%);fill-opacity:1;stroke-width:1;stroke-linecap:round;stroke-linejoin:round;stroke:rgb(13.729858%,12.159729%,12.548828%);stroke-opacity:1;stroke-miterlimit:4;" d="M 219.179688 441.445312 C 450 439.570312 637.421875 480.976562 637.851562 533.945312 C 638.28125 586.875 451.5625 631.289062 220.742188 633.203125 " transform="matrix(0.1,0,0,-0.1,0,108)"/>
<path style=" stroke:none;fill-rule:nonzero;fill:rgb(13.729858%,12.159729%,12.548828%);fill-opacity:1;" d="M 21.917969 63.855469 C 19.851562 63.835938 18.261719 59.519531 18.304688 54.316406 C 18.34375 49.121094 20.007812 44.664062 22.074219 44.679688 C 25.972656 44.710938 29 49.207031 28.957031 54.40625 C 28.914062 59.609375 25.816406 63.886719 21.917969 63.855469 "/>
<path style="fill:none;stroke-width:1;stroke-linecap:butt;stroke-linejoin:miter;stroke:rgb(13.729858%,12.159729%,12.548828%);stroke-opacity:1;stroke-miterlimit:4;" d="M 219.179688 441.445312 C 198.515625 441.640625 182.617188 484.804688 183.046875 536.835938 C 183.4375 588.789062 200.078125 633.359375 220.742188 633.203125 C 259.726562 632.890625 290 587.929688 289.570312 535.9375 C 289.140625 483.90625 258.164062 441.132812 219.179688 441.445312 Z M 219.179688 441.445312 " transform="matrix(0.1,0,0,-0.1,0,108)"/>
<path style="fill-rule:nonzero;fill:rgb(99.996948%,99.996948%,99.996948%);fill-opacity:1;stroke-width:1;stroke-linecap:round;stroke-linejoin:round;stroke:rgb(13.729858%,12.159729%,12.548828%);stroke-opacity:1;stroke-miterlimit:4;" d="M 842.5 443.007812 C 611.679688 444.921875 424.960938 489.375 425.390625 542.304688 C 425.820312 595.273438 613.242188 636.640625 844.0625 634.765625 " transform="matrix(0.1,0,0,-0.1,0,108)"/>
<path style=" stroke:none;fill-rule:nonzero;fill:rgb(13.729858%,12.159729%,12.548828%);fill-opacity:1;" d="M 84.25 63.699219 C 86.316406 63.714844 87.976562 59.425781 88.019531 54.222656 C 88.058594 49.027344 86.472656 44.542969 84.40625 44.523438 C 80.507812 44.496094 77.40625 48.9375 77.363281 54.136719 C 77.320312 59.339844 80.351562 63.667969 84.25 63.699219 "/>
<path style="fill:none;stroke-width:1;stroke-linecap:butt;stroke-linejoin:miter;stroke:rgb(13.729858%,12.159729%,12.548828%);stroke-opacity:1;stroke-miterlimit:4;" d="M 842.5 443.007812 C 863.164062 442.851562 879.765625 485.742188 880.195312 537.773438 C 880.585938 589.726562 864.726562 634.570312 844.0625 634.765625 C 805.078125 635.039062 774.0625 590.625 773.632812 538.632812 C 773.203125 486.601562 803.515625 443.320312 842.5 443.007812 Z M 842.5 443.007812 " transform="matrix(0.1,0,0,-0.1,0,108)"/>
</g>
</svg>
