<?xml version="1.0" encoding="UTF-8"?>
<svg xmlns="http://www.w3.org/2000/svg" xmlns:xlink="http://www.w3.org/1999/xlink" width="108pt" height="108pt" viewBox="0 0 108 108" version="1.1">
<g id="surface1">
<path style="fill-rule:nonzero;fill:rgb(13.729858%,12.159729%,12.548828%);fill-opacity:1;stroke-width:1;stroke-linecap:butt;stroke-linejoin:miter;stroke:rgb(13.729858%,12.159729%,12.548828%);stroke-opacity:1;stroke-miterlimit:4;" d="M 646.679688 772.578125 C 646.679688 772.578125 685.703125 771.25 733.671875 771.445312 C 782.421875 771.601562 874.414062 766.054688 874.414062 766.054688 C 874.414062 766.054688 784.726562 760.390625 733.671875 759.726562 C 684.882812 759.0625 646.679688 758.632812 646.679688 758.632812 " transform="matrix(0.1,0,0,-0.1,0,108)"/>
<path style="fill-rule:nonzero;fill:rgb(13.729858%,12.159729%,12.548828%);fill-opacity:1;stroke-width:1;stroke-linecap:butt;stroke-linejoin:miter;stroke:rgb(13.729858%,12.159729%,12.548828%);stroke-opacity:1;stroke-miterlimit:4;" d="M 234.179688 787.578125 C 234.179688 787.578125 273.164062 786.25 321.171875 786.445312 C 369.921875 786.601562 461.914062 781.054688 461.914062 781.054688 C 461.914062 781.054688 372.226562 775.390625 321.171875 774.726562 C 272.382812 774.0625 234.179688 773.632812 234.179688 773.632812 " transform="matrix(0.1,0,0,-0.1,0,108)"/>
<path style="fill-rule:nonzero;fill:rgb(13.729858%,12.159729%,12.548828%);fill-opacity:1;stroke-width:1;stroke-linecap:butt;stroke-linejoin:miter;stroke:rgb(13.729858%,12.159729%,12.548828%);stroke-opacity:1;stroke-miterlimit:4;" d="M 202.34375 684.0625 C 202.34375 684.0625 201.015625 645.078125 201.171875 597.070312 C 201.367188 548.320312 195.820312 456.328125 195.820312 456.328125 C 195.820312 456.328125 190.15625 546.015625 189.453125 597.070312 C 188.828125 645.859375 188.398438 684.0625 188.398438 684.0625 " transform="matrix(0.1,0,0,-0.1,0,108)"/>
<path style="fill-rule:nonzero;fill:rgb(13.729858%,12.159729%,12.548828%);fill-opacity:1;stroke-width:1;stroke-linecap:butt;stroke-linejoin:miter;stroke:rgb(13.729858%,12.159729%,12.548828%);stroke-opacity:1;stroke-miterlimit:4;" d="M 914.84375 669.0625 C 914.84375 669.0625 913.515625 630.078125 913.671875 582.070312 C 913.867188 533.320312 908.320312 441.328125 908.320312 441.328125 C 908.320312 441.328125 902.65625 531.015625 901.953125 582.070312 C 901.328125 630.859375 900.859375 669.0625 900.859375 669.0625 " transform="matrix(0.1,0,0,-0.1,0,108)"/>
<path style="fill-rule:nonzero;fill:rgb(13.729858%,12.159729%,12.548828%);fill-opacity:1;stroke-width:1;stroke-linecap:butt;stroke-linejoin:miter;stroke:rgb(13.729858%,12.159729%,12.548828%);stroke-opacity:1;stroke-miterlimit:4;" d="M 249.179688 360.078125 C 249.179688 360.078125 288.164062 358.75 336.171875 358.945312 C 384.921875 359.101562 476.914062 353.59375 476.914062 353.59375 C 476.914062 353.59375 387.226562 347.890625 336.171875 347.226562 C 287.382812 346.5625 249.179688 346.132812 249.179688 346.132812 " transform="matrix(0.1,0,0,-0.1,0,108)"/>
<path style="fill-rule:nonzero;fill:rgb(13.729858%,12.159729%,12.548828%);fill-opacity:1;stroke-width:1;stroke-linecap:butt;stroke-linejoin:miter;stroke:rgb(13.729858%,12.159729%,12.548828%);stroke-opacity:1;stroke-miterlimit:4;" d="M 646.679688 352.578125 C 646.679688 352.578125 685.703125 351.25 733.671875 351.445312 C 782.421875 351.601562 874.414062 346.09375 874.414062 346.09375 C 874.414062 346.09375 784.726562 340.390625 733.671875 339.726562 C 684.882812 339.0625 646.679688 338.632812 646.679688 338.632812 " transform="matrix(0.1,0,0,-0.1,0,108)"/>
<path style="fill-rule:nonzero;fill:rgb(99.996948%,99.996948%,99.996948%);fill-opacity:1;stroke-width:1;stroke-linecap:round;stroke-linejoin:round;stroke:rgb(13.729858%,12.159729%,12.548828%);stroke-opacity:1;stroke-miterlimit:4;" d="M 722.539062 486.601562 C 722.539062 590.820312 635.351562 675.273438 527.8125 675.273438 C 420.234375 675.273438 333.046875 590.820312 333.046875 486.601562 " transform="matrix(0.1,0,0,-0.1,0,108)"/>
<path style="fill-rule:nonzero;fill:rgb(13.729858%,12.159729%,12.548828%);fill-opacity:1;stroke-width:1;stroke-linecap:butt;stroke-linejoin:miter;stroke:rgb(13.729858%,12.159729%,12.548828%);stroke-opacity:1;stroke-miterlimit:4;" d="M 722.539062 486.601562 C 722.539062 521.796875 635.15625 549.453125 529.492188 549.453125 C 423.90625 549.453125 333.046875 521.796875 333.046875 486.601562 " transform="matrix(0.1,0,0,-0.1,0,108)"/>
</g>
</svg>
