<?xml version="1.0" encoding="UTF-8"?>
<svg xmlns="http://www.w3.org/2000/svg" xmlns:xlink="http://www.w3.org/1999/xlink" width="108pt" height="108pt" viewBox="0 0 108 108" version="1.1">
<g id="surface1">
<path style=" stroke:none;fill-rule:nonzero;fill:rgb(13.729858%,12.159729%,12.548828%);fill-opacity:1;" d="M 53.898438 60.167969 C 57.445312 60.167969 60.316406 57.296875 60.316406 53.75 C 60.316406 50.203125 57.445312 47.332031 53.898438 47.332031 C 50.351562 47.332031 47.476562 50.203125 47.476562 53.75 C 47.476562 57.296875 50.351562 60.167969 53.898438 60.167969 "/>
<path style="fill:none;stroke-width:1;stroke-linecap:butt;stroke-linejoin:miter;stroke:rgb(13.729858%,12.159729%,12.548828%);stroke-opacity:1;stroke-miterlimit:4;" d="M 538.984375 478.320312 C 574.453125 478.320312 603.164062 507.03125 603.164062 542.5 C 603.164062 577.96875 574.453125 606.679688 538.984375 606.679688 C 503.515625 606.679688 474.765625 577.96875 474.765625 542.5 C 474.765625 507.03125 503.515625 478.320312 538.984375 478.320312 Z M 538.984375 478.320312 " transform="matrix(0.1,0,0,-0.1,0,108)"/>
<path style="fill-rule:nonzero;fill:rgb(13.729858%,12.159729%,12.548828%);fill-opacity:1;stroke-width:1;stroke-linecap:butt;stroke-linejoin:miter;stroke:rgb(13.729858%,12.159729%,12.548828%);stroke-opacity:1;stroke-miterlimit:4;" d="M 436.328125 663.554688 C 460.234375 633.125 475.664062 619.921875 482.109375 610.9375 C 491.09375 598.398438 488.90625 603.945312 497.890625 588.554688 C 485.3125 596.757812 485.9375 596.757812 476.601562 606.09375 C 465.625 617.070312 446.757812 632.539062 426.25 651.523438 " transform="matrix(0.1,0,0,-0.1,0,108)"/>
<path style="fill-rule:nonzero;fill:rgb(13.729858%,12.159729%,12.548828%);fill-opacity:1;stroke-width:1;stroke-linecap:butt;stroke-linejoin:miter;stroke:rgb(13.729858%,12.159729%,12.548828%);stroke-opacity:1;stroke-miterlimit:4;" d="M 501.171875 690.234375 C 525.078125 659.804688 540.46875 646.640625 546.914062 637.617188 C 555.898438 625.078125 553.710938 630.625 562.734375 615.234375 C 550.15625 623.4375 550.742188 623.4375 541.445312 632.8125 C 530.46875 643.75 511.601562 659.21875 491.054688 678.242188 " transform="matrix(0.1,0,0,-0.1,0,108)"/>
<path style="fill-rule:nonzero;fill:rgb(13.729858%,12.159729%,12.548828%);fill-opacity:1;stroke-width:1;stroke-linecap:butt;stroke-linejoin:miter;stroke:rgb(13.729858%,12.159729%,12.548828%);stroke-opacity:1;stroke-miterlimit:4;" d="M 604.101562 663.554688 C 628.007812 633.125 643.398438 619.921875 649.882812 610.9375 C 658.867188 598.398438 656.679688 603.945312 665.664062 588.554688 C 653.085938 596.757812 653.710938 596.757812 644.375 606.09375 C 633.398438 617.070312 614.53125 632.539062 594.023438 651.523438 " transform="matrix(0.1,0,0,-0.1,0,108)"/>
<path style="fill-rule:nonzero;fill:rgb(13.729858%,12.159729%,12.548828%);fill-opacity:1;stroke-width:1;stroke-linecap:butt;stroke-linejoin:miter;stroke:rgb(13.729858%,12.159729%,12.548828%);stroke-opacity:1;stroke-miterlimit:4;" d="M 619.375 545.351562 C 643.28125 514.921875 658.671875 501.757812 665.117188 492.734375 C 674.101562 480.195312 671.914062 485.742188 680.9375 470.351562 C 668.359375 478.554688 668.945312 478.554688 659.609375 487.890625 C 648.671875 498.867188 629.804688 514.335938 609.257812 533.320312 " transform="matrix(0.1,0,0,-0.1,0,108)"/>
<path style="fill-rule:nonzero;fill:rgb(13.729858%,12.159729%,12.548828%);fill-opacity:1;stroke-width:1;stroke-linecap:butt;stroke-linejoin:miter;stroke:rgb(13.729858%,12.159729%,12.548828%);stroke-opacity:1;stroke-miterlimit:4;" d="M 459.21875 480.546875 C 483.125 450.117188 498.515625 436.914062 504.960938 427.929688 C 513.945312 415.351562 511.757812 420.898438 520.78125 405.546875 C 508.203125 413.75 508.828125 413.75 499.492188 423.085938 C 488.515625 434.0625 469.648438 449.492188 449.101562 468.515625 " transform="matrix(0.1,0,0,-0.1,0,108)"/>
<path style="fill-rule:nonzero;fill:rgb(13.729858%,12.159729%,12.548828%);fill-opacity:1;stroke-width:1;stroke-linecap:butt;stroke-linejoin:miter;stroke:rgb(13.729858%,12.159729%,12.548828%);stroke-opacity:1;stroke-miterlimit:4;" d="M 405.859375 598.75 C 429.726562 568.28125 445.15625 555.117188 451.601562 546.132812 C 460.585938 533.554688 458.398438 539.101562 467.382812 523.75 C 454.804688 531.953125 455.429688 531.953125 446.09375 541.289062 C 435.15625 552.226562 416.25 567.695312 395.742188 586.71875 " transform="matrix(0.1,0,0,-0.1,0,108)"/>
<path style="fill-rule:nonzero;fill:rgb(13.729858%,12.159729%,12.548828%);fill-opacity:1;stroke-width:1;stroke-linecap:butt;stroke-linejoin:miter;stroke:rgb(13.729858%,12.159729%,12.548828%);stroke-opacity:1;stroke-miterlimit:4;" d="M 565.976562 480.546875 C 589.882812 450.117188 605.273438 436.914062 611.757812 427.929688 C 620.703125 415.351562 618.515625 420.898438 627.539062 405.546875 C 614.960938 413.75 615.585938 413.75 606.25 423.085938 C 595.273438 434.0625 576.40625 449.492188 555.859375 468.515625 " transform="matrix(0.1,0,0,-0.1,0,108)"/>
<path style="fill-rule:nonzero;fill:rgb(13.729858%,12.159729%,12.548828%);fill-opacity:1;stroke-width:3;stroke-linecap:butt;stroke-linejoin:miter;stroke:rgb(13.729858%,12.159729%,12.548828%);stroke-opacity:1;stroke-miterlimit:4;" d="M 350.273438 696.953125 C 350.273438 696.953125 403.554688 639.921875 471.71875 572.265625 C 540.898438 503.554688 663.125 365.664062 663.125 365.664062 C 663.125 365.664062 528.28125 484.414062 455.15625 555.703125 C 385.195312 623.828125 330.546875 677.1875 330.546875 677.1875 " transform="matrix(0.1,0,0,-0.1,0,108)"/>
<path style="fill-rule:nonzero;fill:rgb(13.729858%,12.159729%,12.548828%);fill-opacity:1;stroke-width:3;stroke-linecap:butt;stroke-linejoin:miter;stroke:rgb(13.729858%,12.159729%,12.548828%);stroke-opacity:1;stroke-miterlimit:4;" d="M 419.453125 739.375 C 419.453125 739.375 472.734375 682.34375 540.898438 614.6875 C 610.078125 545.976562 732.304688 408.085938 732.304688 408.085938 C 732.304688 408.085938 597.460938 526.875 524.296875 598.125 C 454.375 666.25 399.726562 719.648438 399.726562 719.648438 " transform="matrix(0.1,0,0,-0.1,0,108)"/>
</g>
</svg>
