<?xml version="1.0" encoding="UTF-8"?>
<svg xmlns="http://www.w3.org/2000/svg" xmlns:xlink="http://www.w3.org/1999/xlink" width="108pt" height="108pt" viewBox="0 0 108 108" version="1.1">
<g id="surface1">
<path style=" stroke:none;fill-rule:nonzero;fill:rgb(13.729858%,12.159729%,12.548828%);fill-opacity:1;" d="M 54.226562 60.148438 C 57.773438 60.148438 60.648438 57.277344 60.648438 53.730469 C 60.648438 50.183594 57.773438 47.308594 54.226562 47.308594 C 50.679688 47.308594 47.808594 50.183594 47.808594 53.730469 C 47.808594 57.277344 50.679688 60.148438 54.226562 60.148438 "/>
<path style="fill:none;stroke-width:1;stroke-linecap:butt;stroke-linejoin:miter;stroke:rgb(13.729858%,12.159729%,12.548828%);stroke-opacity:1;stroke-miterlimit:4;" d="M 542.265625 478.515625 C 577.734375 478.515625 606.484375 507.226562 606.484375 542.695312 C 606.484375 578.164062 577.734375 606.914062 542.265625 606.914062 C 506.796875 606.914062 478.085938 578.164062 478.085938 542.695312 C 478.085938 507.226562 506.796875 478.515625 542.265625 478.515625 Z M 542.265625 478.515625 " transform="matrix(0.1,0,0,-0.1,0,108)"/>
<path style="fill-rule:nonzero;fill:rgb(13.729858%,12.159729%,12.548828%);fill-opacity:1;stroke-width:1;stroke-linecap:butt;stroke-linejoin:miter;stroke:rgb(13.729858%,12.159729%,12.548828%);stroke-opacity:1;stroke-miterlimit:4;" d="M 439.648438 663.75 C 463.515625 633.320312 478.945312 620.15625 485.390625 611.132812 C 494.375 598.59375 492.1875 604.140625 501.171875 588.75 C 488.59375 596.953125 489.21875 596.992188 479.882812 606.328125 C 468.945312 617.265625 450.039062 632.734375 429.53125 651.757812 " transform="matrix(0.1,0,0,-0.1,0,108)"/>
<path style="fill-rule:nonzero;fill:rgb(13.729858%,12.159729%,12.548828%);fill-opacity:1;stroke-width:1;stroke-linecap:butt;stroke-linejoin:miter;stroke:rgb(13.729858%,12.159729%,12.548828%);stroke-opacity:1;stroke-miterlimit:4;" d="M 504.453125 690.46875 C 528.359375 660 543.75 646.835938 550.234375 637.8125 C 559.179688 625.273438 556.992188 630.820312 566.015625 615.429688 C 553.4375 623.671875 554.0625 623.671875 544.726562 633.007812 C 533.75 643.945312 514.882812 659.414062 494.335938 678.4375 " transform="matrix(0.1,0,0,-0.1,0,108)"/>
<path style="fill-rule:nonzero;fill:rgb(13.729858%,12.159729%,12.548828%);fill-opacity:1;stroke-width:1;stroke-linecap:butt;stroke-linejoin:miter;stroke:rgb(13.729858%,12.159729%,12.548828%);stroke-opacity:1;stroke-miterlimit:4;" d="M 607.382812 663.75 C 631.289062 633.320312 646.679688 620.15625 653.164062 611.132812 C 662.148438 598.59375 659.921875 604.140625 668.945312 588.75 C 656.367188 596.953125 656.992188 596.992188 647.65625 606.328125 C 636.679688 617.265625 617.8125 632.734375 597.265625 651.757812 " transform="matrix(0.1,0,0,-0.1,0,108)"/>
<path style="fill-rule:nonzero;fill:rgb(13.729858%,12.159729%,12.548828%);fill-opacity:1;stroke-width:1;stroke-linecap:butt;stroke-linejoin:miter;stroke:rgb(13.729858%,12.159729%,12.548828%);stroke-opacity:1;stroke-miterlimit:4;" d="M 622.65625 545.546875 C 646.5625 515.117188 661.953125 501.953125 668.398438 492.929688 C 677.382812 480.390625 675.195312 485.9375 684.179688 470.546875 C 671.601562 478.789062 672.226562 478.789062 662.890625 488.125 C 651.953125 499.0625 633.046875 514.53125 612.539062 533.554688 " transform="matrix(0.1,0,0,-0.1,0,108)"/>
<path style="fill-rule:nonzero;fill:rgb(13.729858%,12.159729%,12.548828%);fill-opacity:1;stroke-width:1;stroke-linecap:butt;stroke-linejoin:miter;stroke:rgb(13.729858%,12.159729%,12.548828%);stroke-opacity:1;stroke-miterlimit:4;" d="M 462.5 480.742188 C 486.40625 450.3125 501.796875 437.148438 508.28125 428.125 C 517.226562 415.585938 515.078125 421.132812 524.0625 405.742188 C 511.484375 413.945312 512.109375 413.984375 502.773438 423.320312 C 491.796875 434.257812 472.929688 449.726562 452.382812 468.710938 " transform="matrix(0.1,0,0,-0.1,0,108)"/>
<path style="fill-rule:nonzero;fill:rgb(13.729858%,12.159729%,12.548828%);fill-opacity:1;stroke-width:1;stroke-linecap:butt;stroke-linejoin:miter;stroke:rgb(13.729858%,12.159729%,12.548828%);stroke-opacity:1;stroke-miterlimit:4;" d="M 409.140625 598.945312 C 433.046875 568.515625 448.4375 555.3125 454.882812 546.328125 C 463.867188 533.789062 461.679688 539.296875 470.703125 523.945312 C 458.125 532.148438 458.710938 532.148438 449.375 541.484375 C 438.4375 552.460938 419.570312 567.929688 399.023438 586.914062 " transform="matrix(0.1,0,0,-0.1,0,108)"/>
<path style="fill-rule:nonzero;fill:rgb(13.729858%,12.159729%,12.548828%);fill-opacity:1;stroke-width:1;stroke-linecap:butt;stroke-linejoin:miter;stroke:rgb(13.729858%,12.159729%,12.548828%);stroke-opacity:1;stroke-miterlimit:4;" d="M 569.257812 480.742188 C 593.164062 450.3125 608.554688 437.148438 615.039062 428.125 C 624.023438 415.585938 621.796875 421.132812 630.820312 405.742188 C 618.242188 413.945312 618.867188 413.984375 609.53125 423.320312 C 598.554688 434.257812 579.6875 449.726562 559.140625 468.710938 " transform="matrix(0.1,0,0,-0.1,0,108)"/>
</g>
</svg>
