<?xml version="1.0" encoding="UTF-8"?>
<svg xmlns="http://www.w3.org/2000/svg" xmlns:xlink="http://www.w3.org/1999/xlink" width="108pt" height="108pt" viewBox="0 0 108 108" version="1.1">
<g id="surface1">
<path style=" stroke:none;fill-rule:nonzero;fill:rgb(13.729858%,12.159729%,12.548828%);fill-opacity:1;" d="M 53.855469 62.773438 C 59.175781 62.773438 63.484375 58.464844 63.484375 53.144531 C 63.484375 47.824219 59.175781 43.515625 53.855469 43.515625 C 48.535156 43.515625 44.222656 47.824219 44.222656 53.144531 C 44.222656 58.464844 48.535156 62.773438 53.855469 62.773438 "/>
<path style="fill:none;stroke-width:1;stroke-linecap:butt;stroke-linejoin:miter;stroke:rgb(13.729858%,12.159729%,12.548828%);stroke-opacity:1;stroke-miterlimit:4;" d="M 538.554688 452.265625 C 591.757812 452.265625 634.84375 495.351562 634.84375 548.554688 C 634.84375 601.757812 591.757812 644.84375 538.554688 644.84375 C 485.351562 644.84375 442.226562 601.757812 442.226562 548.554688 C 442.226562 495.351562 485.351562 452.265625 538.554688 452.265625 Z M 538.554688 452.265625 " transform="matrix(0.1,0,0,-0.1,0,108)"/>
<path style=" stroke:none;fill-rule:nonzero;fill:rgb(56.864929%,56.079102%,56.274414%);fill-opacity:1;" d="M 53.855469 37.929688 C 57.613281 37.929688 60.660156 34.882812 60.660156 31.125 C 60.660156 27.367188 57.613281 24.320312 53.855469 24.320312 C 50.097656 24.320312 47.050781 27.367188 47.050781 31.125 C 47.050781 34.882812 50.097656 37.929688 53.855469 37.929688 "/>
<path style=" stroke:none;fill-rule:nonzero;fill:rgb(56.864929%,56.079102%,56.274414%);fill-opacity:1;" d="M 53.855469 68.449219 C 57.613281 68.449219 60.660156 71.492188 60.660156 75.25 C 60.660156 79.011719 57.613281 82.058594 53.855469 82.058594 C 50.097656 82.058594 47.050781 79.011719 47.050781 75.25 C 47.050781 71.492188 50.097656 68.449219 53.855469 68.449219 "/>
<path style=" stroke:none;fill-rule:nonzero;fill:rgb(56.864929%,56.079102%,56.274414%);fill-opacity:1;" d="M 40.695312 45.078125 C 42.574219 41.824219 41.457031 37.664062 38.203125 35.78125 C 34.949219 33.902344 30.785156 35.019531 28.90625 38.273438 C 27.027344 41.527344 28.144531 45.691406 31.398438 47.570312 C 34.652344 49.449219 38.8125 48.332031 40.695312 45.078125 "/>
<path style=" stroke:none;fill-rule:nonzero;fill:rgb(56.864929%,56.079102%,56.274414%);fill-opacity:1;" d="M 67.125 60.335938 C 69.003906 57.082031 73.160156 55.96875 76.417969 57.847656 C 79.671875 59.726562 80.789062 63.886719 78.910156 67.140625 C 77.03125 70.398438 72.867188 71.511719 69.613281 69.632812 C 66.359375 67.753906 65.242188 63.589844 67.125 60.335938 "/>
<path style=" stroke:none;fill-rule:nonzero;fill:rgb(56.864929%,56.079102%,56.274414%);fill-opacity:1;" d="M 40.199219 60.441406 C 38.320312 57.1875 34.15625 56.074219 30.902344 57.953125 C 27.648438 59.828125 26.53125 63.992188 28.414062 67.246094 C 30.292969 70.5 34.453125 71.617188 37.707031 69.738281 C 40.964844 67.859375 42.078125 63.695312 40.199219 60.441406 "/>
<path style=" stroke:none;fill-rule:nonzero;fill:rgb(56.864929%,56.079102%,56.274414%);fill-opacity:1;" d="M 66.628906 45.183594 C 64.746094 41.925781 65.863281 37.765625 69.117188 35.886719 C 72.375 34.007812 76.535156 35.121094 78.410156 38.378906 C 80.292969 41.632812 79.179688 45.796875 75.921875 47.675781 C 72.667969 49.554688 68.507812 48.4375 66.628906 45.183594 "/>
</g>
</svg>
