<?xml version="1.0" encoding="UTF-8"?>
<svg xmlns="http://www.w3.org/2000/svg" xmlns:xlink="http://www.w3.org/1999/xlink" width="108pt" height="108pt" viewBox="0 0 108 108" version="1.1">
<g id="surface1">
<path style="fill-rule:nonzero;fill:rgb(13.729858%,12.159729%,12.548828%);fill-opacity:1;stroke-width:1;stroke-linecap:butt;stroke-linejoin:miter;stroke:rgb(13.729858%,12.159729%,12.548828%);stroke-opacity:1;stroke-miterlimit:4;" d="M 659.84375 906.640625 C 659.84375 906.640625 698.867188 905.3125 746.875 905.507812 C 795.625 905.664062 887.578125 900.15625 887.578125 900.15625 C 887.578125 900.15625 797.929688 894.453125 746.875 893.789062 C 698.046875 893.164062 659.84375 892.695312 659.84375 892.695312 " transform="matrix(0.1,0,0,-0.1,0,108)"/>
<path style="fill-rule:nonzero;fill:rgb(13.729858%,12.159729%,12.548828%);fill-opacity:1;stroke-width:1;stroke-linecap:butt;stroke-linejoin:miter;stroke:rgb(13.729858%,12.159729%,12.548828%);stroke-opacity:1;stroke-miterlimit:4;" d="M 181.875 912.1875 C 181.875 912.1875 220.898438 910.859375 268.90625 911.015625 C 317.65625 911.210938 409.609375 905.703125 409.609375 905.703125 C 409.609375 905.703125 319.960938 900 268.90625 899.335938 C 220.078125 898.671875 181.875 898.242188 181.875 898.242188 " transform="matrix(0.1,0,0,-0.1,0,108)"/>
<path style="fill-rule:nonzero;fill:rgb(13.729858%,12.159729%,12.548828%);fill-opacity:1;stroke-width:1;stroke-linecap:butt;stroke-linejoin:miter;stroke:rgb(13.729858%,12.159729%,12.548828%);stroke-opacity:1;stroke-miterlimit:4;" d="M 171.132812 833.320312 C 171.132812 833.320312 169.804688 794.296875 169.960938 746.328125 C 170.117188 697.578125 164.609375 605.585938 164.609375 605.585938 C 164.609375 605.585938 158.90625 695.234375 158.242188 746.328125 C 157.617188 795.117188 157.148438 833.320312 157.148438 833.320312 " transform="matrix(0.1,0,0,-0.1,0,108)"/>
<path style="fill-rule:nonzero;fill:rgb(13.729858%,12.159729%,12.548828%);fill-opacity:1;stroke-width:1;stroke-linecap:butt;stroke-linejoin:miter;stroke:rgb(13.729858%,12.159729%,12.548828%);stroke-opacity:1;stroke-miterlimit:4;" d="M 155.78125 512.695312 C 155.78125 512.695312 154.453125 473.671875 154.609375 425.664062 C 154.804688 376.914062 149.257812 284.960938 149.257812 284.960938 C 149.257812 284.960938 143.554688 374.609375 142.890625 425.664062 C 142.265625 474.492188 141.796875 512.695312 141.796875 512.695312 " transform="matrix(0.1,0,0,-0.1,0,108)"/>
<path style="fill-rule:nonzero;fill:rgb(13.729858%,12.159729%,12.548828%);fill-opacity:1;stroke-width:1;stroke-linecap:butt;stroke-linejoin:miter;stroke:rgb(13.729858%,12.159729%,12.548828%);stroke-opacity:1;stroke-miterlimit:4;" d="M 994.609375 800.703125 C 994.609375 800.703125 993.320312 761.679688 993.476562 713.671875 C 993.632812 664.921875 988.085938 572.929688 988.085938 572.929688 C 988.085938 572.929688 982.421875 662.617188 981.757812 713.671875 C 981.132812 762.460938 980.664062 800.703125 980.664062 800.703125 " transform="matrix(0.1,0,0,-0.1,0,108)"/>
<path style="fill-rule:nonzero;fill:rgb(13.729858%,12.159729%,12.548828%);fill-opacity:1;stroke-width:1;stroke-linecap:butt;stroke-linejoin:miter;stroke:rgb(13.729858%,12.159729%,12.548828%);stroke-opacity:1;stroke-miterlimit:4;" d="M 1018.789062 450 C 1018.789062 450 1017.460938 410.976562 1017.617188 362.96875 C 1017.773438 314.21875 1012.265625 222.226562 1012.265625 222.226562 C 1012.265625 222.226562 1006.5625 311.914062 1005.898438 362.96875 C 1005.273438 411.796875 1004.804688 450 1004.804688 450 " transform="matrix(0.1,0,0,-0.1,0,108)"/>
<path style="fill-rule:nonzero;fill:rgb(13.729858%,12.159729%,12.548828%);fill-opacity:1;stroke-width:1;stroke-linecap:butt;stroke-linejoin:miter;stroke:rgb(13.729858%,12.159729%,12.548828%);stroke-opacity:1;stroke-miterlimit:4;" d="M 247.617188 201.835938 C 247.617188 201.835938 286.601562 200.507812 334.609375 200.664062 C 383.359375 200.859375 475.351562 195.3125 475.351562 195.3125 C 475.351562 195.3125 385.664062 189.648438 334.609375 188.945312 C 285.820312 188.320312 247.617188 187.851562 247.617188 187.851562 " transform="matrix(0.1,0,0,-0.1,0,108)"/>
<path style="fill-rule:nonzero;fill:rgb(13.729858%,12.159729%,12.548828%);fill-opacity:1;stroke-width:1;stroke-linecap:butt;stroke-linejoin:miter;stroke:rgb(13.729858%,12.159729%,12.548828%);stroke-opacity:1;stroke-miterlimit:4;" d="M 601.875 222.1875 C 601.875 222.1875 640.898438 220.859375 688.90625 221.015625 C 737.65625 221.210938 829.609375 215.664062 829.609375 215.664062 C 829.609375 215.664062 739.960938 210 688.90625 209.335938 C 640.078125 208.671875 601.875 208.242188 601.875 208.242188 " transform="matrix(0.1,0,0,-0.1,0,108)"/>
<path style="fill-rule:nonzero;fill:rgb(99.996948%,99.996948%,99.996948%);fill-opacity:1;stroke-width:1;stroke-linecap:round;stroke-linejoin:round;stroke:rgb(13.729858%,12.159729%,12.548828%);stroke-opacity:1;stroke-miterlimit:4;" d="M 258.75 326.484375 C 606.054688 326.484375 887.539062 413.671875 887.539062 521.210938 C 887.539062 628.789062 606.054688 715.9375 258.75 715.9375 " transform="matrix(0.1,0,0,-0.1,0,108)"/>
<path style="fill-rule:nonzero;fill:rgb(13.729858%,12.159729%,12.548828%);fill-opacity:1;stroke-width:1;stroke-linecap:butt;stroke-linejoin:miter;stroke:rgb(13.729858%,12.159729%,12.548828%);stroke-opacity:1;stroke-miterlimit:4;" d="M 258.75 326.484375 C 317.382812 326.484375 363.554688 413.867188 363.554688 519.53125 C 363.554688 625.117188 317.382812 715.9375 258.75 715.9375 " transform="matrix(0.1,0,0,-0.1,0,108)"/>
</g>
</svg>
