<?xml version="1.0" encoding="UTF-8"?>
<svg xmlns="http://www.w3.org/2000/svg" xmlns:xlink="http://www.w3.org/1999/xlink" width="108pt" height="108pt" viewBox="0 0 108 108" version="1.1">
<g id="surface1">
<path style="fill-rule:nonzero;fill:rgb(13.729858%,12.159729%,12.548828%);fill-opacity:1;stroke-width:1;stroke-linecap:butt;stroke-linejoin:miter;stroke:rgb(13.729858%,12.159729%,12.548828%);stroke-opacity:1;stroke-miterlimit:4;" d="M 597.03125 813.007812 C 597.03125 813.007812 623.007812 812.148438 655.039062 812.226562 C 687.539062 812.34375 748.867188 808.671875 748.867188 808.671875 C 748.867188 808.671875 689.0625 804.882812 655.039062 804.453125 C 622.5 804.023438 597.03125 803.710938 597.03125 803.710938 " transform="matrix(0.1,0,0,-0.1,0,108)"/>
<path style="fill-rule:nonzero;fill:rgb(13.729858%,12.159729%,12.548828%);fill-opacity:1;stroke-width:1;stroke-linecap:butt;stroke-linejoin:miter;stroke:rgb(13.729858%,12.159729%,12.548828%);stroke-opacity:1;stroke-miterlimit:4;" d="M 322.03125 823.007812 C 322.03125 823.007812 348.046875 822.148438 380.039062 822.226562 C 412.539062 822.34375 473.867188 818.671875 473.867188 818.671875 C 473.867188 818.671875 414.0625 814.882812 380.039062 814.453125 C 347.5 814.023438 322.03125 813.710938 322.03125 813.710938 " transform="matrix(0.1,0,0,-0.1,0,108)"/>
<path style="fill-rule:nonzero;fill:rgb(13.729858%,12.159729%,12.548828%);fill-opacity:1;stroke-width:1;stroke-linecap:butt;stroke-linejoin:miter;stroke:rgb(13.729858%,12.159729%,12.548828%);stroke-opacity:1;stroke-miterlimit:4;" d="M 300.820312 754.023438 C 300.820312 754.023438 299.921875 728.007812 300.039062 695.976562 C 300.15625 663.476562 296.445312 602.1875 296.445312 602.1875 C 296.445312 602.1875 292.695312 661.953125 292.226562 695.976562 C 291.796875 728.515625 291.484375 754.023438 291.484375 754.023438 " transform="matrix(0.1,0,0,-0.1,0,108)"/>
<path style="fill-rule:nonzero;fill:rgb(13.729858%,12.159729%,12.548828%);fill-opacity:1;stroke-width:1;stroke-linecap:butt;stroke-linejoin:miter;stroke:rgb(13.729858%,12.159729%,12.548828%);stroke-opacity:1;stroke-miterlimit:4;" d="M 302.8125 496.015625 C 302.8125 496.015625 301.914062 470.039062 302.03125 438.007812 C 302.148438 405.507812 298.4375 344.21875 298.4375 344.21875 C 298.4375 344.21875 294.648438 403.984375 294.21875 438.007812 C 293.789062 470.546875 293.476562 496.015625 293.476562 496.015625 " transform="matrix(0.1,0,0,-0.1,0,108)"/>
<path style="fill-rule:nonzero;fill:rgb(13.729858%,12.159729%,12.548828%);fill-opacity:1;stroke-width:1;stroke-linecap:butt;stroke-linejoin:miter;stroke:rgb(13.729858%,12.159729%,12.548828%);stroke-opacity:1;stroke-miterlimit:4;" d="M 775.820312 744.023438 C 775.820312 744.023438 774.921875 718.007812 775.039062 685.976562 C 775.15625 653.476562 771.484375 592.1875 771.484375 592.1875 C 771.484375 592.1875 767.695312 651.953125 767.226562 685.976562 C 766.796875 718.515625 766.523438 744.023438 766.523438 744.023438 " transform="matrix(0.1,0,0,-0.1,0,108)"/>
<path style="fill-rule:nonzero;fill:rgb(13.729858%,12.159729%,12.548828%);fill-opacity:1;stroke-width:1;stroke-linecap:butt;stroke-linejoin:miter;stroke:rgb(13.729858%,12.159729%,12.548828%);stroke-opacity:1;stroke-miterlimit:4;" d="M 788.554688 519.84375 C 788.554688 519.84375 787.695312 493.828125 787.8125 461.835938 C 787.890625 429.335938 784.21875 368.007812 784.21875 368.007812 C 784.21875 368.007812 780.429688 427.773438 779.960938 461.835938 C 779.570312 494.375 779.257812 519.84375 779.257812 519.84375 " transform="matrix(0.1,0,0,-0.1,0,108)"/>
<path style="fill-rule:nonzero;fill:rgb(13.729858%,12.159729%,12.548828%);fill-opacity:1;stroke-width:1;stroke-linecap:butt;stroke-linejoin:miter;stroke:rgb(13.729858%,12.159729%,12.548828%);stroke-opacity:1;stroke-miterlimit:4;" d="M 320.195312 292.34375 C 320.195312 292.34375 346.210938 291.484375 378.203125 291.601562 C 410.703125 291.71875 472.03125 288.007812 472.03125 288.007812 C 472.03125 288.007812 412.265625 284.21875 378.203125 283.789062 C 345.664062 283.359375 320.195312 283.046875 320.195312 283.046875 " transform="matrix(0.1,0,0,-0.1,0,108)"/>
<path style="fill-rule:nonzero;fill:rgb(13.729858%,12.159729%,12.548828%);fill-opacity:1;stroke-width:1;stroke-linecap:butt;stroke-linejoin:miter;stroke:rgb(13.729858%,12.159729%,12.548828%);stroke-opacity:1;stroke-miterlimit:4;" d="M 592.03125 294.882812 C 592.03125 294.882812 618.007812 294.023438 650.039062 294.101562 C 682.539062 294.21875 743.867188 290.546875 743.867188 290.546875 C 743.867188 290.546875 684.0625 286.757812 650.039062 286.328125 C 617.5 285.898438 592.03125 285.585938 592.03125 285.585938 " transform="matrix(0.1,0,0,-0.1,0,108)"/>
<path style=" stroke:none;fill-rule:nonzero;fill:rgb(13.729858%,12.159729%,12.548828%);fill-opacity:1;" d="M 53.929688 60.429688 C 57.476562 60.429688 60.347656 57.554688 60.347656 54.011719 C 60.347656 50.464844 57.476562 47.589844 53.929688 47.589844 C 50.382812 47.589844 47.507812 50.464844 47.507812 54.011719 C 47.507812 57.554688 50.382812 60.429688 53.929688 60.429688 "/>
<path style="fill:none;stroke-width:1;stroke-linecap:butt;stroke-linejoin:miter;stroke:rgb(13.729858%,12.159729%,12.548828%);stroke-opacity:1;stroke-miterlimit:4;" d="M 539.296875 475.703125 C 574.765625 475.703125 603.476562 504.453125 603.476562 539.882812 C 603.476562 575.351562 574.765625 604.101562 539.296875 604.101562 C 503.828125 604.101562 475.078125 575.351562 475.078125 539.882812 C 475.078125 504.453125 503.828125 475.703125 539.296875 475.703125 Z M 539.296875 475.703125 " transform="matrix(0.1,0,0,-0.1,0,108)"/>
<path style=" stroke:none;fill-rule:nonzero;fill:rgb(56.864929%,56.079102%,56.274414%);fill-opacity:1;" d="M 53.929688 43.867188 C 56.433594 43.867188 58.464844 41.835938 58.464844 39.332031 C 58.464844 36.824219 56.433594 34.792969 53.929688 34.792969 C 51.421875 34.792969 49.394531 36.824219 49.394531 39.332031 C 49.394531 41.835938 51.421875 43.867188 53.929688 43.867188 "/>
<path style=" stroke:none;fill-rule:nonzero;fill:rgb(56.864929%,56.079102%,56.274414%);fill-opacity:1;" d="M 53.929688 64.210938 C 56.433594 64.210938 58.464844 66.242188 58.464844 68.75 C 58.464844 71.253906 56.433594 73.285156 53.929688 73.285156 C 51.421875 73.285156 49.394531 71.253906 49.394531 68.75 C 49.394531 66.242188 51.421875 64.210938 53.929688 64.210938 "/>
<path style=" stroke:none;fill-rule:nonzero;fill:rgb(56.864929%,56.079102%,56.274414%);fill-opacity:1;" d="M 45.15625 48.632812 C 46.40625 46.460938 45.664062 43.6875 43.492188 42.433594 C 41.324219 41.183594 38.550781 41.925781 37.296875 44.097656 C 36.042969 46.265625 36.785156 49.039062 38.957031 50.292969 C 41.128906 51.546875 43.902344 50.800781 45.15625 48.632812 "/>
<path style=" stroke:none;fill-rule:nonzero;fill:rgb(56.864929%,56.079102%,56.274414%);fill-opacity:1;" d="M 62.773438 58.804688 C 64.027344 56.636719 66.800781 55.890625 68.96875 57.144531 C 71.140625 58.398438 71.886719 61.171875 70.632812 63.339844 C 69.378906 65.511719 66.601562 66.253906 64.433594 65.003906 C 62.265625 63.75 61.523438 60.976562 62.773438 58.804688 "/>
<path style=" stroke:none;fill-rule:nonzero;fill:rgb(56.864929%,56.079102%,56.274414%);fill-opacity:1;" d="M 44.824219 58.875 C 43.570312 56.707031 40.796875 55.960938 38.628906 57.214844 C 36.457031 58.46875 35.714844 61.242188 36.96875 63.410156 C 38.21875 65.582031 40.992188 66.324219 43.164062 65.074219 C 45.335938 63.820312 46.078125 61.046875 44.824219 58.875 "/>
<path style=" stroke:none;fill-rule:nonzero;fill:rgb(56.864929%,56.079102%,56.274414%);fill-opacity:1;" d="M 62.445312 48.703125 C 61.191406 46.53125 61.933594 43.757812 64.105469 42.503906 C 66.273438 41.253906 69.046875 41.996094 70.300781 44.164062 C 71.554688 46.335938 70.808594 49.109375 68.640625 50.363281 C 66.46875 51.617188 63.699219 50.871094 62.445312 48.703125 "/>
</g>
</svg>
