<?xml version="1.0" encoding="UTF-8"?>
<svg xmlns="http://www.w3.org/2000/svg" xmlns:xlink="http://www.w3.org/1999/xlink" width="108pt" height="108pt" viewBox="0 0 108 108" version="1.1">
<g id="surface1">
<path style="fill-rule:nonzero;fill:rgb(99.996948%,99.996948%,99.996948%);fill-opacity:1;stroke-width:1;stroke-linecap:round;stroke-linejoin:round;stroke:rgb(13.729858%,12.159729%,12.548828%);stroke-opacity:1;stroke-miterlimit:4;" d="M 738.359375 514.414062 C 738.359375 618.59375 651.171875 703.046875 543.632812 703.046875 C 436.054688 703.046875 348.867188 618.59375 348.867188 514.414062 " transform="matrix(0.1,0,0,-0.1,0,108)"/>
<path style="fill-rule:nonzero;fill:rgb(13.729858%,12.159729%,12.548828%);fill-opacity:1;stroke-width:1;stroke-linecap:butt;stroke-linejoin:miter;stroke:rgb(13.729858%,12.159729%,12.548828%);stroke-opacity:1;stroke-miterlimit:4;" d="M 738.359375 514.414062 C 738.359375 549.570312 650.976562 577.265625 545.3125 577.265625 C 439.726562 577.265625 348.867188 549.570312 348.867188 514.414062 " transform="matrix(0.1,0,0,-0.1,0,108)"/>
<path style="fill-rule:nonzero;fill:rgb(13.729858%,12.159729%,12.548828%);fill-opacity:1;stroke-width:2;stroke-linecap:butt;stroke-linejoin:miter;stroke:rgb(13.729858%,12.159729%,12.548828%);stroke-opacity:1;stroke-miterlimit:4;" d="M 455.507812 798.90625 C 455.507812 798.90625 452.890625 720.898438 453.203125 624.882812 C 453.554688 527.382812 442.5 343.4375 442.5 343.4375 C 442.5 343.4375 431.132812 522.773438 429.765625 624.882812 C 428.515625 722.5 427.578125 798.90625 427.578125 798.90625 " transform="matrix(0.1,0,0,-0.1,0,108)"/>
<path style="fill-rule:nonzero;fill:rgb(13.729858%,12.159729%,12.548828%);fill-opacity:1;stroke-width:2;stroke-linecap:butt;stroke-linejoin:miter;stroke:rgb(13.729858%,12.159729%,12.548828%);stroke-opacity:1;stroke-miterlimit:4;" d="M 540.429688 791.757812 C 540.429688 791.757812 537.773438 713.75 538.085938 617.734375 C 538.4375 520.234375 527.382812 336.289062 527.382812 336.289062 C 527.382812 336.289062 516.015625 515.625 514.6875 617.734375 C 513.398438 715.351562 512.5 791.757812 512.5 791.757812 " transform="matrix(0.1,0,0,-0.1,0,108)"/>
<path style="fill-rule:nonzero;fill:rgb(13.729858%,12.159729%,12.548828%);fill-opacity:1;stroke-width:2;stroke-linecap:butt;stroke-linejoin:miter;stroke:rgb(13.729858%,12.159729%,12.548828%);stroke-opacity:1;stroke-miterlimit:4;" d="M 649.609375 800.78125 C 649.609375 800.78125 646.953125 722.773438 647.265625 626.757812 C 647.617188 529.257812 636.5625 345.3125 636.5625 345.3125 C 636.5625 345.3125 625.195312 524.648438 623.828125 626.757812 C 622.578125 724.375 621.640625 800.78125 621.640625 800.78125 " transform="matrix(0.1,0,0,-0.1,0,108)"/>
</g>
</svg>
