<?xml version="1.0" encoding="UTF-8"?>
<svg xmlns="http://www.w3.org/2000/svg" xmlns:xlink="http://www.w3.org/1999/xlink" width="108pt" height="108pt" viewBox="0 0 108 108" version="1.1">
<g id="surface1">
<path style="fill-rule:nonzero;fill:rgb(13.729858%,12.159729%,12.548828%);fill-opacity:1;stroke-width:1;stroke-linecap:butt;stroke-linejoin:miter;stroke:rgb(13.729858%,12.159729%,12.548828%);stroke-opacity:1;stroke-miterlimit:4;" d="M 609.453125 793.789062 C 609.453125 793.789062 635.46875 792.890625 667.460938 793.007812 C 699.960938 793.125 761.289062 789.414062 761.289062 789.414062 C 761.289062 789.414062 701.523438 785.625 667.460938 785.195312 C 634.921875 784.765625 609.453125 784.453125 609.453125 784.453125 " transform="matrix(0.1,0,0,-0.1,0,108)"/>
<path style="fill-rule:nonzero;fill:rgb(13.729858%,12.159729%,12.548828%);fill-opacity:1;stroke-width:1;stroke-linecap:butt;stroke-linejoin:miter;stroke:rgb(13.729858%,12.159729%,12.548828%);stroke-opacity:1;stroke-miterlimit:4;" d="M 334.453125 803.789062 C 334.453125 803.789062 360.46875 802.890625 392.460938 803.007812 C 424.960938 803.125 486.289062 799.414062 486.289062 799.414062 C 486.289062 799.414062 426.523438 795.625 392.460938 795.195312 C 359.921875 794.765625 334.453125 794.453125 334.453125 794.453125 " transform="matrix(0.1,0,0,-0.1,0,108)"/>
<path style="fill-rule:nonzero;fill:rgb(13.729858%,12.159729%,12.548828%);fill-opacity:1;stroke-width:1;stroke-linecap:butt;stroke-linejoin:miter;stroke:rgb(13.729858%,12.159729%,12.548828%);stroke-opacity:1;stroke-miterlimit:4;" d="M 313.242188 734.765625 C 313.242188 734.765625 312.34375 708.75 312.460938 676.757812 C 312.578125 644.257812 308.90625 582.929688 308.90625 582.929688 C 308.90625 582.929688 305.117188 642.695312 304.648438 676.757812 C 304.21875 709.296875 303.945312 734.765625 303.945312 734.765625 " transform="matrix(0.1,0,0,-0.1,0,108)"/>
<path style="fill-rule:nonzero;fill:rgb(13.729858%,12.159729%,12.548828%);fill-opacity:1;stroke-width:1;stroke-linecap:butt;stroke-linejoin:miter;stroke:rgb(13.729858%,12.159729%,12.548828%);stroke-opacity:1;stroke-miterlimit:4;" d="M 315.234375 476.757812 C 315.234375 476.757812 314.335938 450.78125 314.453125 418.789062 C 314.570312 386.289062 310.898438 324.960938 310.898438 324.960938 C 310.898438 324.960938 307.109375 384.726562 306.640625 418.789062 C 306.210938 451.328125 305.9375 476.757812 305.9375 476.757812 " transform="matrix(0.1,0,0,-0.1,0,108)"/>
<path style="fill-rule:nonzero;fill:rgb(13.729858%,12.159729%,12.548828%);fill-opacity:1;stroke-width:1;stroke-linecap:butt;stroke-linejoin:miter;stroke:rgb(13.729858%,12.159729%,12.548828%);stroke-opacity:1;stroke-miterlimit:4;" d="M 788.242188 724.765625 C 788.242188 724.765625 787.34375 698.75 787.460938 666.757812 C 787.578125 634.257812 783.90625 572.929688 783.90625 572.929688 C 783.90625 572.929688 780.117188 632.695312 779.648438 666.757812 C 779.21875 699.296875 778.945312 724.765625 778.945312 724.765625 " transform="matrix(0.1,0,0,-0.1,0,108)"/>
<path style="fill-rule:nonzero;fill:rgb(13.729858%,12.159729%,12.548828%);fill-opacity:1;stroke-width:1;stroke-linecap:butt;stroke-linejoin:miter;stroke:rgb(13.729858%,12.159729%,12.548828%);stroke-opacity:1;stroke-miterlimit:4;" d="M 800.976562 500.585938 C 800.976562 500.585938 800.117188 474.609375 800.234375 442.578125 C 800.351562 410.078125 796.640625 348.789062 796.640625 348.789062 C 796.640625 348.789062 792.851562 408.554688 792.421875 442.578125 C 791.992188 475.117188 791.679688 500.585938 791.679688 500.585938 " transform="matrix(0.1,0,0,-0.1,0,108)"/>
<path style="fill-rule:nonzero;fill:rgb(13.729858%,12.159729%,12.548828%);fill-opacity:1;stroke-width:1;stroke-linecap:butt;stroke-linejoin:miter;stroke:rgb(13.729858%,12.159729%,12.548828%);stroke-opacity:1;stroke-miterlimit:4;" d="M 332.617188 273.125 C 332.617188 273.125 358.632812 272.226562 390.625 272.34375 C 423.125 272.460938 484.453125 268.789062 484.453125 268.789062 C 484.453125 268.789062 424.6875 264.960938 390.625 264.53125 C 358.085938 264.101562 332.617188 263.828125 332.617188 263.828125 " transform="matrix(0.1,0,0,-0.1,0,108)"/>
<path style="fill-rule:nonzero;fill:rgb(13.729858%,12.159729%,12.548828%);fill-opacity:1;stroke-width:1;stroke-linecap:butt;stroke-linejoin:miter;stroke:rgb(13.729858%,12.159729%,12.548828%);stroke-opacity:1;stroke-miterlimit:4;" d="M 604.453125 275.664062 C 604.453125 275.664062 630.46875 274.765625 662.460938 274.882812 C 694.960938 274.960938 756.289062 271.289062 756.289062 271.289062 C 756.289062 271.289062 696.523438 267.5 662.460938 267.070312 C 629.921875 266.640625 604.453125 266.328125 604.453125 266.328125 " transform="matrix(0.1,0,0,-0.1,0,108)"/>
<path style=" stroke:none;fill-rule:nonzero;fill:rgb(13.729858%,12.159729%,12.548828%);fill-opacity:1;" d="M 53.972656 60.433594 C 57.519531 60.433594 60.394531 57.558594 60.394531 54.015625 C 60.394531 50.46875 57.519531 47.59375 53.972656 47.59375 C 50.425781 47.59375 47.554688 50.46875 47.554688 54.015625 C 47.554688 57.558594 50.425781 60.433594 53.972656 60.433594 "/>
<path style="fill:none;stroke-width:1;stroke-linecap:butt;stroke-linejoin:miter;stroke:rgb(13.729858%,12.159729%,12.548828%);stroke-opacity:1;stroke-miterlimit:4;" d="M 539.726562 475.664062 C 575.195312 475.664062 603.945312 504.414062 603.945312 539.84375 C 603.945312 575.3125 575.195312 604.0625 539.726562 604.0625 C 504.257812 604.0625 475.546875 575.3125 475.546875 539.84375 C 475.546875 504.414062 504.257812 475.664062 539.726562 475.664062 Z M 539.726562 475.664062 " transform="matrix(0.1,0,0,-0.1,0,108)"/>
<path style="fill-rule:nonzero;fill:rgb(13.729858%,12.159729%,12.548828%);fill-opacity:1;stroke-width:1;stroke-linecap:butt;stroke-linejoin:miter;stroke:rgb(13.729858%,12.159729%,12.548828%);stroke-opacity:1;stroke-miterlimit:4;" d="M 437.109375 660.9375 C 460.976562 630.46875 476.40625 617.304688 482.851562 608.28125 C 491.835938 595.742188 489.648438 601.289062 498.632812 585.898438 C 486.054688 594.101562 486.679688 594.140625 477.34375 603.476562 C 466.40625 614.414062 447.5 629.882812 426.992188 648.90625 " transform="matrix(0.1,0,0,-0.1,0,108)"/>
<path style="fill-rule:nonzero;fill:rgb(13.729858%,12.159729%,12.548828%);fill-opacity:1;stroke-width:1;stroke-linecap:butt;stroke-linejoin:miter;stroke:rgb(13.729858%,12.159729%,12.548828%);stroke-opacity:1;stroke-miterlimit:4;" d="M 501.914062 687.617188 C 525.820312 657.148438 541.210938 643.984375 547.65625 635 C 556.640625 622.421875 554.453125 627.96875 563.476562 612.617188 C 550.898438 620.820312 551.523438 620.820312 542.1875 630.15625 C 531.210938 641.09375 512.34375 656.5625 491.796875 675.585938 " transform="matrix(0.1,0,0,-0.1,0,108)"/>
<path style="fill-rule:nonzero;fill:rgb(13.729858%,12.159729%,12.548828%);fill-opacity:1;stroke-width:1;stroke-linecap:butt;stroke-linejoin:miter;stroke:rgb(13.729858%,12.159729%,12.548828%);stroke-opacity:1;stroke-miterlimit:4;" d="M 604.84375 660.9375 C 628.75 630.46875 644.140625 617.304688 650.625 608.28125 C 659.609375 595.742188 657.421875 601.289062 666.40625 585.898438 C 653.828125 594.101562 654.453125 594.140625 645.117188 603.476562 C 634.140625 614.414062 615.273438 629.882812 594.765625 648.90625 " transform="matrix(0.1,0,0,-0.1,0,108)"/>
<path style="fill-rule:nonzero;fill:rgb(13.729858%,12.159729%,12.548828%);fill-opacity:1;stroke-width:1;stroke-linecap:butt;stroke-linejoin:miter;stroke:rgb(13.729858%,12.159729%,12.548828%);stroke-opacity:1;stroke-miterlimit:4;" d="M 620.117188 542.734375 C 644.023438 512.265625 659.414062 499.101562 665.859375 490.117188 C 674.84375 477.578125 672.65625 483.085938 681.679688 467.734375 C 669.101562 475.9375 669.6875 475.9375 660.351562 485.273438 C 649.414062 496.210938 630.546875 511.679688 610 530.703125 " transform="matrix(0.1,0,0,-0.1,0,108)"/>
<path style="fill-rule:nonzero;fill:rgb(13.729858%,12.159729%,12.548828%);fill-opacity:1;stroke-width:1;stroke-linecap:butt;stroke-linejoin:miter;stroke:rgb(13.729858%,12.159729%,12.548828%);stroke-opacity:1;stroke-miterlimit:4;" d="M 459.960938 477.890625 C 483.867188 447.460938 499.257812 434.296875 505.742188 425.273438 C 514.6875 412.734375 512.539062 418.28125 521.523438 402.890625 C 508.945312 411.09375 509.570312 411.09375 500.234375 420.429688 C 489.257812 431.40625 470.390625 446.875 449.84375 465.898438 " transform="matrix(0.1,0,0,-0.1,0,108)"/>
<path style="fill-rule:nonzero;fill:rgb(13.729858%,12.159729%,12.548828%);fill-opacity:1;stroke-width:1;stroke-linecap:butt;stroke-linejoin:miter;stroke:rgb(13.729858%,12.159729%,12.548828%);stroke-opacity:1;stroke-miterlimit:4;" d="M 406.601562 596.09375 C 430.507812 565.664062 445.898438 552.5 452.34375 543.476562 C 461.328125 530.9375 459.140625 536.484375 468.164062 521.09375 C 455.585938 529.296875 456.171875 529.296875 446.835938 538.632812 C 435.898438 549.609375 417.03125 565.078125 396.484375 584.0625 " transform="matrix(0.1,0,0,-0.1,0,108)"/>
<path style="fill-rule:nonzero;fill:rgb(13.729858%,12.159729%,12.548828%);fill-opacity:1;stroke-width:1;stroke-linecap:butt;stroke-linejoin:miter;stroke:rgb(13.729858%,12.159729%,12.548828%);stroke-opacity:1;stroke-miterlimit:4;" d="M 566.71875 477.890625 C 590.625 447.460938 606.015625 434.296875 612.5 425.273438 C 621.484375 412.734375 619.257812 418.28125 628.28125 402.890625 C 615.703125 411.09375 616.328125 411.09375 606.992188 420.429688 C 596.015625 431.40625 577.148438 446.875 556.601562 465.898438 " transform="matrix(0.1,0,0,-0.1,0,108)"/>
</g>
</svg>
