<?xml version="1.0" encoding="UTF-8"?>
<svg xmlns="http://www.w3.org/2000/svg" xmlns:xlink="http://www.w3.org/1999/xlink" width="108pt" height="108pt" viewBox="0 0 108 108" version="1.1">
<g id="surface1">
<path style=" stroke:none;fill-rule:nonzero;fill:rgb(13.729858%,12.159729%,12.548828%);fill-opacity:1;" d="M 54.332031 60.753906 C 57.875 60.753906 60.75 57.878906 60.75 54.332031 C 60.75 50.785156 57.875 47.914062 54.332031 47.914062 C 50.785156 47.914062 47.910156 50.785156 47.910156 54.332031 C 47.910156 57.878906 50.785156 60.753906 54.332031 60.753906 "/>
<path style="fill:none;stroke-width:1;stroke-linecap:butt;stroke-linejoin:miter;stroke:rgb(13.729858%,12.159729%,12.548828%);stroke-opacity:1;stroke-miterlimit:4;" d="M 543.320312 472.460938 C 578.75 472.460938 607.5 501.210938 607.5 536.679688 C 607.5 572.148438 578.75 600.859375 543.320312 600.859375 C 507.851562 600.859375 479.101562 572.148438 479.101562 536.679688 C 479.101562 501.210938 507.851562 472.460938 543.320312 472.460938 Z M 543.320312 472.460938 " transform="matrix(0.1,0,0,-0.1,0,108)"/>
<path style=" stroke:none;fill-rule:nonzero;fill:rgb(56.864929%,56.079102%,56.274414%);fill-opacity:1;" d="M 54.332031 44.1875 C 56.835938 44.1875 58.867188 42.160156 58.867188 39.652344 C 58.867188 37.148438 56.835938 35.117188 54.332031 35.117188 C 51.824219 35.117188 49.792969 37.148438 49.792969 39.652344 C 49.792969 42.160156 51.824219 44.1875 54.332031 44.1875 "/>
<path style=" stroke:none;fill-rule:nonzero;fill:rgb(56.864929%,56.079102%,56.274414%);fill-opacity:1;" d="M 54.332031 64.535156 C 56.835938 64.535156 58.867188 66.566406 58.867188 69.070312 C 58.867188 71.578125 56.835938 73.605469 54.332031 73.605469 C 51.824219 73.605469 49.792969 71.578125 49.792969 69.070312 C 49.792969 66.566406 51.824219 64.535156 54.332031 64.535156 "/>
<path style=" stroke:none;fill-rule:nonzero;fill:rgb(56.864929%,56.079102%,56.274414%);fill-opacity:1;" d="M 45.554688 48.953125 C 46.808594 46.785156 46.066406 44.011719 43.894531 42.757812 C 41.722656 41.503906 38.953125 42.246094 37.699219 44.417969 C 36.445312 46.589844 37.1875 49.363281 39.359375 50.617188 C 41.527344 51.867188 44.300781 51.125 45.554688 48.953125 "/>
<path style=" stroke:none;fill-rule:nonzero;fill:rgb(56.864929%,56.079102%,56.274414%);fill-opacity:1;" d="M 63.175781 59.128906 C 64.429688 56.957031 67.203125 56.214844 69.371094 57.46875 C 71.542969 58.71875 72.285156 61.492188 71.03125 63.664062 C 69.78125 65.835938 67.003906 66.578125 64.835938 65.324219 C 62.664062 64.074219 61.921875 61.296875 63.175781 59.128906 "/>
<path style=" stroke:none;fill-rule:nonzero;fill:rgb(56.864929%,56.079102%,56.274414%);fill-opacity:1;" d="M 45.222656 59.199219 C 43.972656 57.027344 41.199219 56.285156 39.027344 57.535156 C 36.859375 58.789062 36.113281 61.5625 37.367188 63.734375 C 38.621094 65.902344 41.394531 66.648438 43.566406 65.394531 C 45.734375 64.144531 46.476562 61.367188 45.222656 59.199219 "/>
<path style=" stroke:none;fill-rule:nonzero;fill:rgb(56.864929%,56.079102%,56.274414%);fill-opacity:1;" d="M 62.84375 49.023438 C 61.59375 46.855469 62.335938 44.082031 64.503906 42.828125 C 66.675781 41.574219 69.449219 42.316406 70.703125 44.488281 C 71.953125 46.65625 71.210938 49.433594 69.042969 50.683594 C 66.871094 51.9375 64.097656 51.195312 62.84375 49.023438 "/>
<path style="fill-rule:nonzero;fill:rgb(13.729858%,12.159729%,12.548828%);fill-opacity:1;stroke-width:3;stroke-linecap:butt;stroke-linejoin:miter;stroke:rgb(13.729858%,12.159729%,12.548828%);stroke-opacity:1;stroke-miterlimit:4;" d="M 354.21875 705.664062 C 354.21875 705.664062 407.5 648.632812 475.664062 580.976562 C 544.84375 512.265625 667.070312 374.375 667.070312 374.375 C 667.070312 374.375 532.226562 493.164062 459.0625 564.414062 C 389.140625 632.539062 334.492188 685.898438 334.492188 685.898438 " transform="matrix(0.1,0,0,-0.1,0,108)"/>
<path style="fill-rule:nonzero;fill:rgb(13.729858%,12.159729%,12.548828%);fill-opacity:1;stroke-width:3;stroke-linecap:butt;stroke-linejoin:miter;stroke:rgb(13.729858%,12.159729%,12.548828%);stroke-opacity:1;stroke-miterlimit:4;" d="M 416.210938 722.265625 C 416.210938 722.265625 469.492188 665.234375 537.617188 597.578125 C 606.796875 528.90625 729.0625 390.976562 729.0625 390.976562 C 729.0625 390.976562 594.179688 509.765625 521.054688 581.015625 C 451.132812 649.140625 396.445312 702.539062 396.445312 702.539062 " transform="matrix(0.1,0,0,-0.1,0,108)"/>
</g>
</svg>
