<?xml version="1.0" encoding="UTF-8"?>
<svg xmlns="http://www.w3.org/2000/svg" xmlns:xlink="http://www.w3.org/1999/xlink" width="108pt" height="108pt" viewBox="0 0 108 108" version="1.1">
<g id="surface1">
<path style="fill-rule:nonzero;fill:rgb(13.729858%,12.159729%,12.548828%);fill-opacity:1;stroke-width:1;stroke-linecap:butt;stroke-linejoin:miter;stroke:rgb(13.729858%,12.159729%,12.548828%);stroke-opacity:1;stroke-miterlimit:4;" d="M 642.109375 938.085938 C 642.109375 938.085938 681.09375 936.757812 729.101562 936.914062 C 777.851562 937.109375 869.84375 931.5625 869.84375 931.5625 C 869.84375 931.5625 780.15625 925.898438 729.101562 925.195312 C 680.3125 924.570312 642.109375 924.101562 642.109375 924.101562 " transform="matrix(0.1,0,0,-0.1,0,108)"/>
<path style="fill-rule:nonzero;fill:rgb(13.729858%,12.159729%,12.548828%);fill-opacity:1;stroke-width:1;stroke-linecap:butt;stroke-linejoin:miter;stroke:rgb(13.729858%,12.159729%,12.548828%);stroke-opacity:1;stroke-miterlimit:4;" d="M 229.609375 953.085938 C 229.609375 953.085938 268.59375 951.757812 316.601562 951.914062 C 365.351562 952.109375 457.34375 946.5625 457.34375 946.5625 C 457.34375 946.5625 367.65625 940.898438 316.601562 940.195312 C 267.8125 939.570312 229.609375 939.101562 229.609375 939.101562 " transform="matrix(0.1,0,0,-0.1,0,108)"/>
<path style="fill-rule:nonzero;fill:rgb(13.729858%,12.159729%,12.548828%);fill-opacity:1;stroke-width:1;stroke-linecap:butt;stroke-linejoin:miter;stroke:rgb(13.729858%,12.159729%,12.548828%);stroke-opacity:1;stroke-miterlimit:4;" d="M 197.773438 849.570312 C 197.773438 849.570312 196.445312 810.546875 196.601562 762.539062 C 196.796875 713.789062 191.25 621.835938 191.25 621.835938 C 191.25 621.835938 185.546875 711.484375 184.882812 762.539062 C 184.257812 811.367188 183.789062 849.570312 183.789062 849.570312 " transform="matrix(0.1,0,0,-0.1,0,108)"/>
<path style="fill-rule:nonzero;fill:rgb(13.729858%,12.159729%,12.548828%);fill-opacity:1;stroke-width:1;stroke-linecap:butt;stroke-linejoin:miter;stroke:rgb(13.729858%,12.159729%,12.548828%);stroke-opacity:1;stroke-miterlimit:4;" d="M 200.78125 462.617188 C 200.78125 462.617188 199.453125 423.59375 199.609375 375.585938 C 199.765625 326.835938 194.21875 234.84375 194.21875 234.84375 C 194.21875 234.84375 188.554688 324.53125 187.890625 375.585938 C 187.226562 424.414062 186.796875 462.617188 186.796875 462.617188 " transform="matrix(0.1,0,0,-0.1,0,108)"/>
<path style="fill-rule:nonzero;fill:rgb(13.729858%,12.159729%,12.548828%);fill-opacity:1;stroke-width:1;stroke-linecap:butt;stroke-linejoin:miter;stroke:rgb(13.729858%,12.159729%,12.548828%);stroke-opacity:1;stroke-miterlimit:4;" d="M 910.273438 834.570312 C 910.273438 834.570312 908.945312 795.546875 909.101562 747.539062 C 909.296875 698.789062 903.75 606.835938 903.75 606.835938 C 903.75 606.835938 898.085938 696.484375 897.382812 747.539062 C 896.757812 796.367188 896.289062 834.570312 896.289062 834.570312 " transform="matrix(0.1,0,0,-0.1,0,108)"/>
<path style="fill-rule:nonzero;fill:rgb(13.729858%,12.159729%,12.548828%);fill-opacity:1;stroke-width:1;stroke-linecap:butt;stroke-linejoin:miter;stroke:rgb(13.729858%,12.159729%,12.548828%);stroke-opacity:1;stroke-miterlimit:4;" d="M 929.414062 498.320312 C 929.414062 498.320312 928.085938 459.335938 928.242188 411.289062 C 928.4375 362.539062 922.890625 270.585938 922.890625 270.585938 C 922.890625 270.585938 917.1875 360.234375 916.523438 411.289062 C 915.898438 460.117188 915.429688 498.320312 915.429688 498.320312 " transform="matrix(0.1,0,0,-0.1,0,108)"/>
<path style="fill-rule:nonzero;fill:rgb(13.729858%,12.159729%,12.548828%);fill-opacity:1;stroke-width:1;stroke-linecap:butt;stroke-linejoin:miter;stroke:rgb(13.729858%,12.159729%,12.548828%);stroke-opacity:1;stroke-miterlimit:4;" d="M 226.875 157.109375 C 226.875 157.109375 265.859375 155.78125 313.867188 155.9375 C 362.617188 156.09375 454.609375 150.585938 454.609375 150.585938 C 454.609375 150.585938 364.921875 144.921875 313.867188 144.21875 C 265.078125 143.59375 226.875 143.125 226.875 143.125 " transform="matrix(0.1,0,0,-0.1,0,108)"/>
<path style="fill-rule:nonzero;fill:rgb(13.729858%,12.159729%,12.548828%);fill-opacity:1;stroke-width:1;stroke-linecap:butt;stroke-linejoin:miter;stroke:rgb(13.729858%,12.159729%,12.548828%);stroke-opacity:1;stroke-miterlimit:4;" d="M 634.609375 160.898438 C 634.609375 160.898438 673.59375 159.570312 721.601562 159.726562 C 770.351562 159.921875 862.34375 154.375 862.34375 154.375 C 862.34375 154.375 772.65625 148.671875 721.601562 148.007812 C 672.8125 147.382812 634.609375 146.914062 634.609375 146.914062 " transform="matrix(0.1,0,0,-0.1,0,108)"/>
<path style=" stroke:none;fill-rule:nonzero;fill:rgb(13.729858%,12.159729%,12.548828%);fill-opacity:1;" d="M 54.1875 74.289062 C 64.820312 74.289062 73.445312 65.667969 73.445312 55.03125 C 73.445312 44.394531 64.820312 35.773438 54.1875 35.773438 C 43.550781 35.773438 34.925781 44.394531 34.925781 55.03125 C 34.925781 65.667969 43.550781 74.289062 54.1875 74.289062 "/>
<path style="fill:none;stroke-width:1;stroke-linecap:round;stroke-linejoin:round;stroke:rgb(13.729858%,12.159729%,12.548828%);stroke-opacity:1;stroke-miterlimit:4;" d="M 541.875 337.109375 C 648.203125 337.109375 734.453125 423.320312 734.453125 529.6875 C 734.453125 636.054688 648.203125 722.265625 541.875 722.265625 C 435.507812 722.265625 349.257812 636.054688 349.257812 529.6875 C 349.257812 423.320312 435.507812 337.109375 541.875 337.109375 Z M 541.875 337.109375 " transform="matrix(0.1,0,0,-0.1,0,108)"/>
</g>
</svg>
