<?xml version="1.0" encoding="UTF-8"?>
<svg xmlns="http://www.w3.org/2000/svg" xmlns:xlink="http://www.w3.org/1999/xlink" width="108pt" height="108pt" viewBox="0 0 108 108" version="1.1">
<g id="surface1">
<path style=" stroke:none;fill-rule:nonzero;fill:rgb(13.729858%,12.159729%,12.548828%);fill-opacity:1;" d="M 53.828125 73.351562 C 64.464844 73.351562 73.085938 64.730469 73.085938 54.089844 C 73.085938 43.457031 64.464844 34.835938 53.828125 34.835938 C 43.191406 34.835938 34.570312 43.457031 34.570312 54.089844 C 34.570312 64.730469 43.191406 73.351562 53.828125 73.351562 "/>
<path style="fill:none;stroke-width:1;stroke-linecap:round;stroke-linejoin:round;stroke:rgb(13.729858%,12.159729%,12.548828%);stroke-opacity:1;stroke-miterlimit:4;" d="M 538.28125 346.484375 C 644.648438 346.484375 730.859375 432.695312 730.859375 539.101562 C 730.859375 645.429688 644.648438 731.640625 538.28125 731.640625 C 431.914062 731.640625 345.703125 645.429688 345.703125 539.101562 C 345.703125 432.695312 431.914062 346.484375 538.28125 346.484375 Z M 538.28125 346.484375 " transform="matrix(0.1,0,0,-0.1,0,108)"/>
</g>
</svg>
