<?xml version="1.0" encoding="UTF-8"?>
<svg xmlns="http://www.w3.org/2000/svg" xmlns:xlink="http://www.w3.org/1999/xlink" width="108pt" height="108pt" viewBox="0 0 108 108" version="1.1">
<g id="surface1">
<path style="fill-rule:nonzero;fill:rgb(99.996948%,99.996948%,99.996948%);fill-opacity:1;stroke-width:1;stroke-linecap:round;stroke-linejoin:round;stroke:rgb(13.729858%,12.159729%,12.548828%);stroke-opacity:1;stroke-miterlimit:4;" d="M 739.648438 349.492188 C 739.648438 453.671875 652.460938 538.125 544.921875 538.125 C 437.382812 538.125 350.234375 453.671875 350.234375 349.492188 " transform="matrix(0.1,0,0,-0.1,0,108)"/>
<path style="fill-rule:nonzero;fill:rgb(13.729858%,12.159729%,12.548828%);fill-opacity:1;stroke-width:1;stroke-linecap:butt;stroke-linejoin:miter;stroke:rgb(13.729858%,12.159729%,12.548828%);stroke-opacity:1;stroke-miterlimit:4;" d="M 739.648438 349.492188 C 739.648438 384.648438 652.265625 412.34375 546.640625 412.34375 C 441.015625 412.34375 350.234375 384.648438 350.234375 349.492188 " transform="matrix(0.1,0,0,-0.1,0,108)"/>
<path style="fill-rule:nonzero;fill:rgb(99.996948%,99.996948%,99.996948%);fill-opacity:1;stroke-width:1;stroke-linecap:round;stroke-linejoin:round;stroke:rgb(13.729858%,12.159729%,12.548828%);stroke-opacity:1;stroke-miterlimit:4;" d="M 739.648438 726.757812 C 739.648438 622.578125 652.460938 538.125 544.921875 538.125 C 437.382812 538.125 350.234375 622.578125 350.234375 726.757812 " transform="matrix(0.1,0,0,-0.1,0,108)"/>
<path style="fill-rule:nonzero;fill:rgb(13.729858%,12.159729%,12.548828%);fill-opacity:1;stroke-width:1;stroke-linecap:butt;stroke-linejoin:miter;stroke:rgb(13.729858%,12.159729%,12.548828%);stroke-opacity:1;stroke-miterlimit:4;" d="M 739.648438 726.757812 C 739.648438 691.601562 652.265625 663.90625 546.640625 663.90625 C 441.015625 663.90625 350.234375 691.601562 350.234375 726.757812 " transform="matrix(0.1,0,0,-0.1,0,108)"/>
<path style=" stroke:none;fill-rule:nonzero;fill:rgb(13.729858%,12.159729%,12.548828%);fill-opacity:1;" d="M 54.472656 63.855469 C 59.792969 63.855469 64.101562 59.546875 64.101562 54.226562 C 64.101562 48.910156 59.792969 44.597656 54.472656 44.597656 C 49.15625 44.597656 44.84375 48.910156 44.84375 54.226562 C 44.84375 59.546875 49.15625 63.855469 54.472656 63.855469 "/>
<path style="fill:none;stroke-width:1;stroke-linecap:butt;stroke-linejoin:miter;stroke:rgb(13.729858%,12.159729%,12.548828%);stroke-opacity:1;stroke-miterlimit:4;" d="M 544.726562 441.445312 C 597.929688 441.445312 641.015625 484.53125 641.015625 537.734375 C 641.015625 590.898438 597.929688 634.023438 544.726562 634.023438 C 491.5625 634.023438 448.4375 590.898438 448.4375 537.734375 C 448.4375 484.53125 491.5625 441.445312 544.726562 441.445312 Z M 544.726562 441.445312 " transform="matrix(0.1,0,0,-0.1,0,108)"/>
</g>
</svg>
