<?xml version="1.0" encoding="UTF-8"?>
<svg xmlns="http://www.w3.org/2000/svg" xmlns:xlink="http://www.w3.org/1999/xlink" width="108pt" height="108pt" viewBox="0 0 108 108" version="1.1">
<g id="surface1">
<path style="fill-rule:nonzero;fill:rgb(13.729858%,12.159729%,12.548828%);fill-opacity:1;stroke-width:1;stroke-linecap:butt;stroke-linejoin:miter;stroke:rgb(13.729858%,12.159729%,12.548828%);stroke-opacity:1;stroke-miterlimit:4;" d="M 648.242188 915.3125 C 648.242188 915.3125 687.226562 913.984375 735.273438 914.140625 C 784.023438 914.296875 875.976562 908.789062 875.976562 908.789062 C 875.976562 908.789062 786.328125 903.085938 735.273438 902.421875 C 686.445312 901.796875 648.242188 901.328125 648.242188 901.328125 " transform="matrix(0.1,0,0,-0.1,0,108)"/>
<path style="fill-rule:nonzero;fill:rgb(13.729858%,12.159729%,12.548828%);fill-opacity:1;stroke-width:1;stroke-linecap:butt;stroke-linejoin:miter;stroke:rgb(13.729858%,12.159729%,12.548828%);stroke-opacity:1;stroke-miterlimit:4;" d="M 235.742188 930.3125 C 235.742188 930.3125 274.765625 928.984375 322.773438 929.140625 C 371.523438 929.296875 463.476562 923.789062 463.476562 923.789062 C 463.476562 923.789062 373.828125 918.085938 322.773438 917.421875 C 273.945312 916.796875 235.742188 916.328125 235.742188 916.328125 " transform="matrix(0.1,0,0,-0.1,0,108)"/>
<path style="fill-rule:nonzero;fill:rgb(13.729858%,12.159729%,12.548828%);fill-opacity:1;stroke-width:1;stroke-linecap:butt;stroke-linejoin:miter;stroke:rgb(13.729858%,12.159729%,12.548828%);stroke-opacity:1;stroke-miterlimit:4;" d="M 203.90625 826.757812 C 203.90625 826.757812 202.617188 787.773438 202.773438 739.765625 C 202.929688 691.015625 197.382812 599.0625 197.382812 599.0625 C 197.382812 599.0625 191.71875 688.710938 191.054688 739.765625 C 190.390625 788.554688 189.921875 826.757812 189.921875 826.757812 " transform="matrix(0.1,0,0,-0.1,0,108)"/>
<path style="fill-rule:nonzero;fill:rgb(13.729858%,12.159729%,12.548828%);fill-opacity:1;stroke-width:1;stroke-linecap:butt;stroke-linejoin:miter;stroke:rgb(13.729858%,12.159729%,12.548828%);stroke-opacity:1;stroke-miterlimit:4;" d="M 206.914062 439.804688 C 206.914062 439.804688 205.585938 400.820312 205.742188 352.8125 C 205.9375 304.0625 200.390625 212.070312 200.390625 212.070312 C 200.390625 212.070312 194.6875 301.757812 194.023438 352.8125 C 193.398438 401.601562 192.929688 439.804688 192.929688 439.804688 " transform="matrix(0.1,0,0,-0.1,0,108)"/>
<path style="fill-rule:nonzero;fill:rgb(13.729858%,12.159729%,12.548828%);fill-opacity:1;stroke-width:1;stroke-linecap:butt;stroke-linejoin:miter;stroke:rgb(13.729858%,12.159729%,12.548828%);stroke-opacity:1;stroke-miterlimit:4;" d="M 916.40625 811.757812 C 916.40625 811.757812 915.078125 772.773438 915.273438 724.765625 C 915.429688 676.015625 909.882812 584.0625 909.882812 584.0625 C 909.882812 584.0625 904.21875 673.710938 903.554688 724.765625 C 902.890625 773.554688 902.460938 811.757812 902.460938 811.757812 " transform="matrix(0.1,0,0,-0.1,0,108)"/>
<path style="fill-rule:nonzero;fill:rgb(13.729858%,12.159729%,12.548828%);fill-opacity:1;stroke-width:1;stroke-linecap:butt;stroke-linejoin:miter;stroke:rgb(13.729858%,12.159729%,12.548828%);stroke-opacity:1;stroke-miterlimit:4;" d="M 935.546875 475.546875 C 935.546875 475.546875 934.21875 436.523438 934.414062 388.515625 C 934.570312 339.765625 929.023438 247.8125 929.023438 247.8125 C 929.023438 247.8125 923.359375 337.460938 922.695312 388.515625 C 922.03125 437.34375 921.601562 475.546875 921.601562 475.546875 " transform="matrix(0.1,0,0,-0.1,0,108)"/>
<path style="fill-rule:nonzero;fill:rgb(13.729858%,12.159729%,12.548828%);fill-opacity:1;stroke-width:1;stroke-linecap:butt;stroke-linejoin:miter;stroke:rgb(13.729858%,12.159729%,12.548828%);stroke-opacity:1;stroke-miterlimit:4;" d="M 233.007812 134.296875 C 233.007812 134.296875 272.03125 133.007812 320.039062 133.164062 C 368.789062 133.359375 460.742188 127.8125 460.742188 127.8125 C 460.742188 127.8125 371.09375 122.109375 320.039062 121.445312 C 271.210938 120.820312 233.007812 120.351562 233.007812 120.351562 " transform="matrix(0.1,0,0,-0.1,0,108)"/>
<path style="fill-rule:nonzero;fill:rgb(13.729858%,12.159729%,12.548828%);fill-opacity:1;stroke-width:1;stroke-linecap:butt;stroke-linejoin:miter;stroke:rgb(13.729858%,12.159729%,12.548828%);stroke-opacity:1;stroke-miterlimit:4;" d="M 640.742188 138.125 C 640.742188 138.125 679.726562 136.796875 727.773438 136.953125 C 776.523438 137.109375 868.476562 131.601562 868.476562 131.601562 C 868.476562 131.601562 778.828125 125.898438 727.773438 125.234375 C 678.945312 124.609375 640.742188 124.140625 640.742188 124.140625 " transform="matrix(0.1,0,0,-0.1,0,108)"/>
<path style="fill-rule:nonzero;fill:rgb(99.996948%,99.996948%,99.996948%);fill-opacity:1;stroke-width:1;stroke-linecap:round;stroke-linejoin:round;stroke:rgb(13.729858%,12.159729%,12.548828%);stroke-opacity:1;stroke-miterlimit:4;" d="M 720.195312 360 C 720.195312 464.179688 633.007812 548.632812 525.46875 548.632812 C 417.890625 548.632812 330.742188 464.179688 330.742188 360 " transform="matrix(0.1,0,0,-0.1,0,108)"/>
<path style="fill-rule:nonzero;fill:rgb(13.729858%,12.159729%,12.548828%);fill-opacity:1;stroke-width:1;stroke-linecap:butt;stroke-linejoin:miter;stroke:rgb(13.729858%,12.159729%,12.548828%);stroke-opacity:1;stroke-miterlimit:4;" d="M 720.195312 360 C 720.195312 395.15625 632.8125 422.890625 527.148438 422.890625 C 421.5625 422.890625 330.742188 395.15625 330.742188 360 " transform="matrix(0.1,0,0,-0.1,0,108)"/>
<path style="fill-rule:nonzero;fill:rgb(99.996948%,99.996948%,99.996948%);fill-opacity:1;stroke-width:1;stroke-linecap:round;stroke-linejoin:round;stroke:rgb(13.729858%,12.159729%,12.548828%);stroke-opacity:1;stroke-miterlimit:4;" d="M 720.195312 737.265625 C 720.195312 633.085938 633.007812 548.632812 525.46875 548.632812 C 417.890625 548.632812 330.742188 633.085938 330.742188 737.265625 " transform="matrix(0.1,0,0,-0.1,0,108)"/>
<path style="fill-rule:nonzero;fill:rgb(13.729858%,12.159729%,12.548828%);fill-opacity:1;stroke-width:1;stroke-linecap:butt;stroke-linejoin:miter;stroke:rgb(13.729858%,12.159729%,12.548828%);stroke-opacity:1;stroke-miterlimit:4;" d="M 720.195312 737.265625 C 720.195312 702.109375 632.8125 674.414062 527.148438 674.414062 C 421.5625 674.414062 330.742188 702.109375 330.742188 737.265625 " transform="matrix(0.1,0,0,-0.1,0,108)"/>
<path style=" stroke:none;fill-rule:nonzero;fill:rgb(13.729858%,12.159729%,12.548828%);fill-opacity:1;" d="M 52.527344 62.804688 C 57.84375 62.804688 62.15625 58.496094 62.15625 53.175781 C 62.15625 47.855469 57.84375 43.546875 52.527344 43.546875 C 47.207031 43.546875 42.898438 47.855469 42.898438 53.175781 C 42.898438 58.496094 47.207031 62.804688 52.527344 62.804688 "/>
<path style="fill:none;stroke-width:1;stroke-linecap:butt;stroke-linejoin:miter;stroke:rgb(13.729858%,12.159729%,12.548828%);stroke-opacity:1;stroke-miterlimit:4;" d="M 525.273438 451.953125 C 578.4375 451.953125 621.5625 495.039062 621.5625 548.242188 C 621.5625 601.445312 578.4375 644.53125 525.273438 644.53125 C 472.070312 644.53125 428.984375 601.445312 428.984375 548.242188 C 428.984375 495.039062 472.070312 451.953125 525.273438 451.953125 Z M 525.273438 451.953125 " transform="matrix(0.1,0,0,-0.1,0,108)"/>
</g>
</svg>
