<?xml version="1.0" encoding="UTF-8"?>
<svg xmlns="http://www.w3.org/2000/svg" xmlns:xlink="http://www.w3.org/1999/xlink" width="108pt" height="108pt" viewBox="0 0 108 108" version="1.1">
<g id="surface1">
<path style="fill-rule:nonzero;fill:rgb(13.729858%,12.159729%,12.548828%);fill-opacity:1;stroke-width:1;stroke-linecap:butt;stroke-linejoin:miter;stroke:rgb(13.729858%,12.159729%,12.548828%);stroke-opacity:1;stroke-miterlimit:4;" d="M 275.976562 614.570312 C 329.570312 610.195312 357.734375 611.679688 372.96875 610 C 394.21875 607.617188 386.601562 609.84375 410.625 605.585938 C 390.117188 602.695312 390.742188 603.085938 372.34375 603.085938 C 350.703125 603.085938 316.875 600.820312 277.851562 599.804688 " transform="matrix(0.1,0,0,-0.1,0,108)"/>
<path style="fill-rule:nonzero;fill:rgb(13.729858%,12.159729%,12.548828%);fill-opacity:1;stroke-width:1;stroke-linecap:butt;stroke-linejoin:miter;stroke:rgb(13.729858%,12.159729%,12.548828%);stroke-opacity:1;stroke-miterlimit:4;" d="M 275.976562 554.53125 C 329.570312 550.15625 357.734375 551.640625 372.96875 549.960938 C 394.21875 547.578125 386.601562 549.804688 410.625 545.546875 C 390.117188 542.617188 390.742188 543.046875 372.34375 543.046875 C 350.703125 543.046875 316.875 540.78125 277.851562 539.765625 " transform="matrix(0.1,0,0,-0.1,0,108)"/>
<path style="fill-rule:nonzero;fill:rgb(13.729858%,12.159729%,12.548828%);fill-opacity:1;stroke-width:1;stroke-linecap:butt;stroke-linejoin:miter;stroke:rgb(13.729858%,12.159729%,12.548828%);stroke-opacity:1;stroke-miterlimit:4;" d="M 275.976562 483.046875 C 329.570312 478.671875 357.734375 480.15625 372.96875 478.4375 C 394.21875 476.09375 386.601562 478.320312 410.625 474.0625 C 390.117188 471.132812 390.742188 471.5625 372.34375 471.5625 C 350.703125 471.5625 316.875 469.296875 277.851562 468.242188 " transform="matrix(0.1,0,0,-0.1,0,108)"/>
<path style="fill-rule:nonzero;fill:rgb(13.729858%,12.159729%,12.548828%);fill-opacity:1;stroke-width:1;stroke-linecap:butt;stroke-linejoin:miter;stroke:rgb(13.729858%,12.159729%,12.548828%);stroke-opacity:1;stroke-miterlimit:4;" d="M 436.09375 554.53125 C 489.6875 550.15625 517.890625 551.640625 533.125 549.960938 C 554.335938 547.578125 546.71875 549.804688 570.78125 545.546875 C 550.273438 542.617188 550.859375 543.046875 532.460938 543.046875 C 510.859375 543.046875 476.992188 540.78125 438.007812 539.765625 " transform="matrix(0.1,0,0,-0.1,0,108)"/>
<path style="fill-rule:nonzero;fill:rgb(13.729858%,12.159729%,12.548828%);fill-opacity:1;stroke-width:1;stroke-linecap:butt;stroke-linejoin:miter;stroke:rgb(13.729858%,12.159729%,12.548828%);stroke-opacity:1;stroke-miterlimit:4;" d="M 422.460938 609.726562 C 418.828125 556.09375 420.664062 527.929688 419.179688 512.65625 C 417.070312 491.40625 419.21875 499.0625 415.273438 474.960938 C 412.070312 495.429688 412.5 494.84375 412.265625 513.242188 C 411.953125 534.84375 409.257812 568.671875 407.695312 607.617188 " transform="matrix(0.1,0,0,-0.1,0,108)"/>
<path style="fill-rule:nonzero;fill:rgb(99.996948%,99.996948%,99.996948%);fill-opacity:1;stroke-width:1;stroke-linecap:round;stroke-linejoin:round;stroke:rgb(13.729858%,12.159729%,12.548828%);stroke-opacity:1;stroke-miterlimit:4;" d="M 749.960938 319.53125 C 749.960938 423.710938 662.773438 508.203125 555.234375 508.203125 C 447.65625 508.203125 360.507812 423.710938 360.507812 319.53125 " transform="matrix(0.1,0,0,-0.1,0,108)"/>
<path style="fill-rule:nonzero;fill:rgb(13.729858%,12.159729%,12.548828%);fill-opacity:1;stroke-width:1;stroke-linecap:butt;stroke-linejoin:miter;stroke:rgb(13.729858%,12.159729%,12.548828%);stroke-opacity:1;stroke-miterlimit:4;" d="M 749.960938 319.53125 C 749.960938 354.726562 662.578125 382.460938 556.914062 382.460938 C 451.328125 382.460938 360.507812 354.726562 360.507812 319.53125 " transform="matrix(0.1,0,0,-0.1,0,108)"/>
<path style="fill-rule:nonzero;fill:rgb(99.996948%,99.996948%,99.996948%);fill-opacity:1;stroke-width:1;stroke-linecap:round;stroke-linejoin:round;stroke:rgb(13.729858%,12.159729%,12.548828%);stroke-opacity:1;stroke-miterlimit:4;" d="M 749.960938 754.0625 C 749.960938 649.84375 662.773438 565.390625 555.234375 565.390625 C 447.65625 565.390625 360.507812 649.84375 360.507812 754.0625 " transform="matrix(0.1,0,0,-0.1,0,108)"/>
<path style="fill-rule:nonzero;fill:rgb(13.729858%,12.159729%,12.548828%);fill-opacity:1;stroke-width:1;stroke-linecap:butt;stroke-linejoin:miter;stroke:rgb(13.729858%,12.159729%,12.548828%);stroke-opacity:1;stroke-miterlimit:4;" d="M 749.960938 754.0625 C 749.960938 718.867188 662.578125 691.171875 556.914062 691.171875 C 451.328125 691.171875 360.507812 718.867188 360.507812 754.0625 " transform="matrix(0.1,0,0,-0.1,0,108)"/>
<path style=" stroke:none;fill-rule:nonzero;fill:rgb(13.729858%,12.159729%,12.548828%);fill-opacity:1;" d="M 55.683594 63.867188 C 61 63.867188 65.3125 59.558594 65.3125 54.238281 C 65.3125 48.917969 61 44.609375 55.683594 44.609375 C 50.363281 44.609375 46.054688 48.917969 46.054688 54.238281 C 46.054688 59.558594 50.363281 63.867188 55.683594 63.867188 "/>
<path style="fill:none;stroke-width:1;stroke-linecap:butt;stroke-linejoin:miter;stroke:rgb(13.729858%,12.159729%,12.548828%);stroke-opacity:1;stroke-miterlimit:4;" d="M 556.835938 441.328125 C 610 441.328125 653.125 484.414062 653.125 537.617188 C 653.125 590.820312 610 633.90625 556.835938 633.90625 C 503.632812 633.90625 460.546875 590.820312 460.546875 537.617188 C 460.546875 484.414062 503.632812 441.328125 556.835938 441.328125 Z M 556.835938 441.328125 " transform="matrix(0.1,0,0,-0.1,0,108)"/>
</g>
</svg>
