<?xml version="1.0" encoding="UTF-8"?>
<svg xmlns="http://www.w3.org/2000/svg" xmlns:xlink="http://www.w3.org/1999/xlink" width="108pt" height="108pt" viewBox="0 0 108 108" version="1.1">
<g id="surface1">
<path style="fill-rule:nonzero;fill:rgb(13.729858%,12.159729%,12.548828%);fill-opacity:1;stroke-width:1;stroke-linecap:butt;stroke-linejoin:miter;stroke:rgb(13.729858%,12.159729%,12.548828%);stroke-opacity:1;stroke-miterlimit:4;" d="M 580 924.257812 C 580 924.257812 619.023438 922.929688 667.03125 923.085938 C 715.742188 923.28125 807.734375 917.734375 807.734375 917.734375 C 807.734375 917.734375 718.046875 912.070312 667.03125 911.367188 C 618.203125 910.742188 580 910.273438 580 910.273438 " transform="matrix(0.1,0,0,-0.1,0,108)"/>
<path style="fill-rule:nonzero;fill:rgb(13.729858%,12.159729%,12.548828%);fill-opacity:1;stroke-width:1;stroke-linecap:butt;stroke-linejoin:miter;stroke:rgb(13.729858%,12.159729%,12.548828%);stroke-opacity:1;stroke-miterlimit:4;" d="M 167.5 939.257812 C 167.5 939.257812 206.523438 937.929688 254.53125 938.085938 C 303.28125 938.28125 395.234375 932.734375 395.234375 932.734375 C 395.234375 932.734375 305.585938 927.070312 254.53125 926.367188 C 205.703125 925.742188 167.5 925.273438 167.5 925.273438 " transform="matrix(0.1,0,0,-0.1,0,108)"/>
<path style="fill-rule:nonzero;fill:rgb(13.729858%,12.159729%,12.548828%);fill-opacity:1;stroke-width:1;stroke-linecap:butt;stroke-linejoin:miter;stroke:rgb(13.729858%,12.159729%,12.548828%);stroke-opacity:1;stroke-miterlimit:4;" d="M 135.664062 835.742188 C 135.664062 835.742188 134.335938 796.71875 134.53125 748.710938 C 134.6875 699.960938 129.140625 608.007812 129.140625 608.007812 C 129.140625 608.007812 123.476562 697.65625 122.8125 748.710938 C 122.148438 797.539062 121.71875 835.742188 121.71875 835.742188 " transform="matrix(0.1,0,0,-0.1,0,108)"/>
<path style="fill-rule:nonzero;fill:rgb(13.729858%,12.159729%,12.548828%);fill-opacity:1;stroke-width:1;stroke-linecap:butt;stroke-linejoin:miter;stroke:rgb(13.729858%,12.159729%,12.548828%);stroke-opacity:1;stroke-miterlimit:4;" d="M 848.164062 820.742188 C 848.164062 820.742188 846.835938 781.71875 847.03125 733.710938 C 847.1875 684.960938 841.640625 593.007812 841.640625 593.007812 C 841.640625 593.007812 835.9375 682.65625 835.3125 733.710938 C 834.6875 782.539062 834.179688 820.742188 834.179688 820.742188 " transform="matrix(0.1,0,0,-0.1,0,108)"/>
<path style="fill-rule:nonzero;fill:rgb(13.729858%,12.159729%,12.548828%);fill-opacity:1;stroke-width:1;stroke-linecap:butt;stroke-linejoin:miter;stroke:rgb(13.729858%,12.159729%,12.548828%);stroke-opacity:1;stroke-miterlimit:4;" d="M 135.664062 485.742188 C 135.664062 485.742188 134.335938 446.71875 134.53125 398.710938 C 134.6875 349.960938 129.140625 258.007812 129.140625 258.007812 C 129.140625 258.007812 123.476562 347.65625 122.8125 398.710938 C 122.148438 447.539062 121.71875 485.742188 121.71875 485.742188 " transform="matrix(0.1,0,0,-0.1,0,108)"/>
<path style="fill-rule:nonzero;fill:rgb(13.729858%,12.159729%,12.548828%);fill-opacity:1;stroke-width:1;stroke-linecap:butt;stroke-linejoin:miter;stroke:rgb(13.729858%,12.159729%,12.548828%);stroke-opacity:1;stroke-miterlimit:4;" d="M 848.164062 470.742188 C 848.164062 470.742188 846.835938 431.71875 847.03125 383.710938 C 847.1875 334.960938 841.640625 243.007812 841.640625 243.007812 C 841.640625 243.007812 835.9375 332.65625 835.3125 383.710938 C 834.6875 432.539062 834.179688 470.742188 834.179688 470.742188 " transform="matrix(0.1,0,0,-0.1,0,108)"/>
<path style="fill-rule:nonzero;fill:rgb(13.729858%,12.159729%,12.548828%);fill-opacity:1;stroke-width:1;stroke-linecap:butt;stroke-linejoin:miter;stroke:rgb(13.729858%,12.159729%,12.548828%);stroke-opacity:1;stroke-miterlimit:4;" d="M 182.5 176.757812 C 182.5 176.757812 221.523438 175.429688 269.53125 175.585938 C 318.28125 175.742188 410.234375 170.234375 410.234375 170.234375 C 410.234375 170.234375 320.585938 164.570312 269.53125 163.867188 C 220.703125 163.242188 182.5 162.773438 182.5 162.773438 " transform="matrix(0.1,0,0,-0.1,0,108)"/>
<path style="fill-rule:nonzero;fill:rgb(13.729858%,12.159729%,12.548828%);fill-opacity:1;stroke-width:1;stroke-linecap:butt;stroke-linejoin:miter;stroke:rgb(13.729858%,12.159729%,12.548828%);stroke-opacity:1;stroke-miterlimit:4;" d="M 580 169.257812 C 580 169.257812 619.023438 167.929688 667.03125 168.085938 C 715.742188 168.242188 807.734375 162.734375 807.734375 162.734375 C 807.734375 162.734375 718.046875 157.070312 667.03125 156.367188 C 618.203125 155.742188 580 155.273438 580 155.273438 " transform="matrix(0.1,0,0,-0.1,0,108)"/>
<path style="fill:none;stroke-width:1;stroke-linecap:round;stroke-linejoin:round;stroke:rgb(13.729858%,12.159729%,12.548828%);stroke-opacity:1;stroke-miterlimit:4;" d="M 333.28125 583.476562 C 567.695312 583.476562 757.695312 627.070312 757.695312 680.859375 C 757.695312 734.648438 567.695312 778.203125 333.28125 778.203125 " transform="matrix(0.1,0,0,-0.1,0,108)"/>
<path style=" stroke:none;fill-rule:nonzero;fill:rgb(13.729858%,12.159729%,12.548828%);fill-opacity:1;" d="M 33.328125 49.652344 C 31.226562 49.652344 29.578125 45.285156 29.578125 40 C 29.578125 34.722656 31.226562 30.179688 33.328125 30.179688 C 37.28125 30.179688 40.398438 34.722656 40.398438 40 C 40.398438 45.285156 37.28125 49.652344 33.328125 49.652344 "/>
<path style="fill:none;stroke-width:1;stroke-linecap:butt;stroke-linejoin:miter;stroke:rgb(13.729858%,12.159729%,12.548828%);stroke-opacity:1;stroke-miterlimit:4;" d="M 333.28125 583.476562 C 312.265625 583.476562 295.78125 627.148438 295.78125 680 C 295.78125 732.773438 312.265625 778.203125 333.28125 778.203125 C 372.8125 778.203125 403.984375 732.773438 403.984375 680 C 403.984375 627.148438 372.8125 583.476562 333.28125 583.476562 Z M 333.28125 583.476562 " transform="matrix(0.1,0,0,-0.1,0,108)"/>
<path style="fill:none;stroke-width:1;stroke-linecap:round;stroke-linejoin:round;stroke:rgb(13.729858%,12.159729%,12.548828%);stroke-opacity:1;stroke-miterlimit:4;" d="M 333.28125 303.476562 C 567.695312 303.476562 757.695312 347.070312 757.695312 400.859375 C 757.695312 454.648438 567.695312 498.203125 333.28125 498.203125 " transform="matrix(0.1,0,0,-0.1,0,108)"/>
<path style=" stroke:none;fill-rule:nonzero;fill:rgb(13.729858%,12.159729%,12.548828%);fill-opacity:1;" d="M 33.328125 77.652344 C 31.226562 77.652344 29.578125 73.285156 29.578125 68 C 29.578125 62.722656 31.226562 58.179688 33.328125 58.179688 C 37.28125 58.179688 40.398438 62.722656 40.398438 68 C 40.398438 73.285156 37.28125 77.652344 33.328125 77.652344 "/>
<path style="fill:none;stroke-width:1;stroke-linecap:butt;stroke-linejoin:miter;stroke:rgb(13.729858%,12.159729%,12.548828%);stroke-opacity:1;stroke-miterlimit:4;" d="M 333.28125 303.476562 C 312.265625 303.476562 295.78125 347.148438 295.78125 400 C 295.78125 452.773438 312.265625 498.203125 333.28125 498.203125 C 372.8125 498.203125 403.984375 452.773438 403.984375 400 C 403.984375 347.148438 372.8125 303.476562 333.28125 303.476562 Z M 333.28125 303.476562 " transform="matrix(0.1,0,0,-0.1,0,108)"/>
</g>
</svg>
