<?xml version="1.0" encoding="UTF-8"?>
<svg xmlns="http://www.w3.org/2000/svg" xmlns:xlink="http://www.w3.org/1999/xlink" width="108pt" height="108pt" viewBox="0 0 108 108" version="1.1">
<g id="surface1">
<path style="fill-rule:nonzero;fill:rgb(13.729858%,12.159729%,12.548828%);fill-opacity:1;stroke-width:1;stroke-linecap:butt;stroke-linejoin:miter;stroke:rgb(13.729858%,12.159729%,12.548828%);stroke-opacity:1;stroke-miterlimit:4;" d="M 447.578125 868.203125 C 447.578125 868.203125 474.21875 839.6875 508.28125 805.859375 C 542.851562 771.484375 604.023438 702.578125 604.023438 702.578125 C 604.023438 702.578125 536.601562 761.953125 500 797.578125 C 465.039062 831.640625 437.695312 858.320312 437.695312 858.320312 " transform="matrix(0.1,0,0,-0.1,0,108)"/>
<path style="fill-rule:nonzero;fill:rgb(13.729858%,12.159729%,12.548828%);fill-opacity:1;stroke-width:1;stroke-linecap:butt;stroke-linejoin:miter;stroke:rgb(13.729858%,12.159729%,12.548828%);stroke-opacity:1;stroke-miterlimit:4;" d="M 509.453125 872.890625 C 509.453125 872.890625 536.09375 844.375 570.15625 810.546875 C 604.726562 776.171875 665.898438 707.265625 665.898438 707.265625 C 665.898438 707.265625 598.476562 766.640625 561.875 802.265625 C 526.914062 836.328125 499.570312 863.007812 499.570312 863.007812 " transform="matrix(0.1,0,0,-0.1,0,108)"/>
<path style="fill-rule:nonzero;fill:rgb(13.729858%,12.159729%,12.548828%);fill-opacity:1;stroke-width:1;stroke-linecap:butt;stroke-linejoin:miter;stroke:rgb(13.729858%,12.159729%,12.548828%);stroke-opacity:1;stroke-miterlimit:4;" d="M 587.265625 884.140625 C 587.265625 884.140625 613.90625 855.625 647.96875 821.796875 C 682.578125 787.421875 743.671875 718.515625 743.671875 718.515625 C 743.671875 718.515625 676.289062 777.890625 639.6875 813.515625 C 604.726562 847.578125 577.382812 874.257812 577.382812 874.257812 " transform="matrix(0.1,0,0,-0.1,0,108)"/>
<path style="fill:none;stroke-width:1;stroke-linecap:round;stroke-linejoin:round;stroke:rgb(13.729858%,12.159729%,12.548828%);stroke-opacity:1;stroke-miterlimit:4;" d="M 317.03125 805.585938 C 551.445312 805.585938 741.484375 849.21875 741.484375 902.96875 C 741.484375 956.757812 551.445312 1000.3125 317.03125 1000.3125 " transform="matrix(0.1,0,0,-0.1,0,108)"/>
<path style=" stroke:none;fill-rule:nonzero;fill:rgb(13.729858%,12.159729%,12.548828%);fill-opacity:1;" d="M 31.703125 27.441406 C 29.601562 27.441406 27.953125 23.070312 27.953125 17.785156 C 27.953125 12.507812 29.601562 7.96875 31.703125 7.96875 C 35.660156 7.96875 38.773438 12.507812 38.773438 17.785156 C 38.773438 23.070312 35.660156 27.441406 31.703125 27.441406 "/>
<path style="fill:none;stroke-width:1;stroke-linecap:butt;stroke-linejoin:miter;stroke:rgb(13.729858%,12.159729%,12.548828%);stroke-opacity:1;stroke-miterlimit:4;" d="M 317.03125 805.585938 C 296.015625 805.585938 279.53125 849.296875 279.53125 902.148438 C 279.53125 954.921875 296.015625 1000.3125 317.03125 1000.3125 C 356.601562 1000.3125 387.734375 954.921875 387.734375 902.148438 C 387.734375 849.296875 356.601562 805.585938 317.03125 805.585938 Z M 317.03125 805.585938 " transform="matrix(0.1,0,0,-0.1,0,108)"/>
<path style="fill-rule:nonzero;fill:rgb(13.729858%,12.159729%,12.548828%);fill-opacity:1;stroke-width:1;stroke-linecap:butt;stroke-linejoin:miter;stroke:rgb(13.729858%,12.159729%,12.548828%);stroke-opacity:1;stroke-miterlimit:4;" d="M 447.578125 518.203125 C 447.578125 518.203125 474.21875 489.6875 508.28125 455.859375 C 542.851562 421.484375 604.023438 352.578125 604.023438 352.578125 C 604.023438 352.578125 536.601562 411.953125 500 447.578125 C 465.039062 481.640625 437.695312 508.320312 437.695312 508.320312 " transform="matrix(0.1,0,0,-0.1,0,108)"/>
<path style="fill-rule:nonzero;fill:rgb(13.729858%,12.159729%,12.548828%);fill-opacity:1;stroke-width:1;stroke-linecap:butt;stroke-linejoin:miter;stroke:rgb(13.729858%,12.159729%,12.548828%);stroke-opacity:1;stroke-miterlimit:4;" d="M 509.453125 522.890625 C 509.453125 522.890625 536.09375 494.375 570.15625 460.546875 C 604.726562 426.171875 665.898438 357.265625 665.898438 357.265625 C 665.898438 357.265625 598.476562 416.640625 561.875 452.265625 C 526.914062 486.328125 499.570312 513.007812 499.570312 513.007812 " transform="matrix(0.1,0,0,-0.1,0,108)"/>
<path style="fill-rule:nonzero;fill:rgb(13.729858%,12.159729%,12.548828%);fill-opacity:1;stroke-width:1;stroke-linecap:butt;stroke-linejoin:miter;stroke:rgb(13.729858%,12.159729%,12.548828%);stroke-opacity:1;stroke-miterlimit:4;" d="M 587.265625 534.140625 C 587.265625 534.140625 613.90625 505.625 647.96875 471.796875 C 682.578125 437.421875 743.671875 368.515625 743.671875 368.515625 C 743.671875 368.515625 676.289062 427.890625 639.6875 463.515625 C 604.726562 497.578125 577.382812 524.257812 577.382812 524.257812 " transform="matrix(0.1,0,0,-0.1,0,108)"/>
<path style="fill:none;stroke-width:1;stroke-linecap:round;stroke-linejoin:round;stroke:rgb(13.729858%,12.159729%,12.548828%);stroke-opacity:1;stroke-miterlimit:4;" d="M 317.03125 455.585938 C 551.445312 455.585938 741.484375 499.21875 741.484375 552.96875 C 741.484375 606.757812 551.445312 650.3125 317.03125 650.3125 " transform="matrix(0.1,0,0,-0.1,0,108)"/>
<path style=" stroke:none;fill-rule:nonzero;fill:rgb(13.729858%,12.159729%,12.548828%);fill-opacity:1;" d="M 31.703125 62.441406 C 29.601562 62.441406 27.953125 58.070312 27.953125 52.785156 C 27.953125 47.507812 29.601562 42.96875 31.703125 42.96875 C 35.660156 42.96875 38.773438 47.507812 38.773438 52.785156 C 38.773438 58.070312 35.660156 62.441406 31.703125 62.441406 "/>
<path style="fill:none;stroke-width:1;stroke-linecap:butt;stroke-linejoin:miter;stroke:rgb(13.729858%,12.159729%,12.548828%);stroke-opacity:1;stroke-miterlimit:4;" d="M 317.03125 455.585938 C 296.015625 455.585938 279.53125 499.296875 279.53125 552.148438 C 279.53125 604.921875 296.015625 650.3125 317.03125 650.3125 C 356.601562 650.3125 387.734375 604.921875 387.734375 552.148438 C 387.734375 499.296875 356.601562 455.585938 317.03125 455.585938 Z M 317.03125 455.585938 " transform="matrix(0.1,0,0,-0.1,0,108)"/>
<path style="fill-rule:nonzero;fill:rgb(13.729858%,12.159729%,12.548828%);fill-opacity:1;stroke-width:1;stroke-linecap:butt;stroke-linejoin:miter;stroke:rgb(13.729858%,12.159729%,12.548828%);stroke-opacity:1;stroke-miterlimit:4;" d="M 447.578125 198.203125 C 447.578125 198.203125 474.21875 169.6875 508.28125 135.859375 C 542.851562 101.484375 604.023438 32.578125 604.023438 32.578125 C 604.023438 32.578125 536.601562 91.953125 500 127.578125 C 465.039062 161.640625 437.695312 188.320312 437.695312 188.320312 " transform="matrix(0.1,0,0,-0.1,0,108)"/>
<path style="fill-rule:nonzero;fill:rgb(13.729858%,12.159729%,12.548828%);fill-opacity:1;stroke-width:1;stroke-linecap:butt;stroke-linejoin:miter;stroke:rgb(13.729858%,12.159729%,12.548828%);stroke-opacity:1;stroke-miterlimit:4;" d="M 509.453125 202.890625 C 509.453125 202.890625 536.09375 174.375 570.15625 140.546875 C 604.726562 106.171875 665.898438 37.265625 665.898438 37.265625 C 665.898438 37.265625 598.476562 96.640625 561.875 132.265625 C 526.914062 166.328125 499.570312 193.007812 499.570312 193.007812 " transform="matrix(0.1,0,0,-0.1,0,108)"/>
<path style="fill-rule:nonzero;fill:rgb(13.729858%,12.159729%,12.548828%);fill-opacity:1;stroke-width:1;stroke-linecap:butt;stroke-linejoin:miter;stroke:rgb(13.729858%,12.159729%,12.548828%);stroke-opacity:1;stroke-miterlimit:4;" d="M 587.265625 214.140625 C 587.265625 214.140625 613.90625 185.625 647.96875 151.796875 C 682.578125 117.421875 743.671875 48.515625 743.671875 48.515625 C 743.671875 48.515625 676.289062 107.890625 639.6875 143.515625 C 604.726562 177.578125 577.382812 204.257812 577.382812 204.257812 " transform="matrix(0.1,0,0,-0.1,0,108)"/>
<path style="fill:none;stroke-width:1;stroke-linecap:round;stroke-linejoin:round;stroke:rgb(13.729858%,12.159729%,12.548828%);stroke-opacity:1;stroke-miterlimit:4;" d="M 317.03125 135.585938 C 551.445312 135.585938 741.484375 179.21875 741.484375 232.96875 C 741.484375 286.757812 551.445312 330.3125 317.03125 330.3125 " transform="matrix(0.1,0,0,-0.1,0,108)"/>
<path style=" stroke:none;fill-rule:nonzero;fill:rgb(13.729858%,12.159729%,12.548828%);fill-opacity:1;" d="M 31.703125 94.441406 C 29.601562 94.441406 27.953125 90.070312 27.953125 84.785156 C 27.953125 79.507812 29.601562 74.96875 31.703125 74.96875 C 35.660156 74.96875 38.773438 79.507812 38.773438 84.785156 C 38.773438 90.070312 35.660156 94.441406 31.703125 94.441406 "/>
<path style="fill:none;stroke-width:1;stroke-linecap:butt;stroke-linejoin:miter;stroke:rgb(13.729858%,12.159729%,12.548828%);stroke-opacity:1;stroke-miterlimit:4;" d="M 317.03125 135.585938 C 296.015625 135.585938 279.53125 179.296875 279.53125 232.148438 C 279.53125 284.921875 296.015625 330.3125 317.03125 330.3125 C 356.601562 330.3125 387.734375 284.921875 387.734375 232.148438 C 387.734375 179.296875 356.601562 135.585938 317.03125 135.585938 Z M 317.03125 135.585938 " transform="matrix(0.1,0,0,-0.1,0,108)"/>
</g>
</svg>
