<?xml version="1.0" encoding="UTF-8"?>
<svg xmlns="http://www.w3.org/2000/svg" xmlns:xlink="http://www.w3.org/1999/xlink" width="108pt" height="108pt" viewBox="0 0 108 108" version="1.1">
<g id="surface1">
<path style="fill:none;stroke-width:1;stroke-linecap:round;stroke-linejoin:round;stroke:rgb(13.729858%,12.159729%,12.548828%);stroke-opacity:1;stroke-miterlimit:4;" d="M 333.28125 718.476562 C 567.695312 718.476562 757.695312 762.070312 757.695312 815.859375 C 757.695312 869.648438 567.695312 913.203125 333.28125 913.203125 " transform="matrix(0.1,0,0,-0.1,0,108)"/>
<path style=" stroke:none;fill-rule:nonzero;fill:rgb(13.729858%,12.159729%,12.548828%);fill-opacity:1;" d="M 33.328125 36.152344 C 31.226562 36.152344 29.578125 31.785156 29.578125 26.5 C 29.578125 21.222656 31.226562 16.679688 33.328125 16.679688 C 37.28125 16.679688 40.398438 21.222656 40.398438 26.5 C 40.398438 31.785156 37.28125 36.152344 33.328125 36.152344 "/>
<path style="fill:none;stroke-width:1;stroke-linecap:butt;stroke-linejoin:miter;stroke:rgb(13.729858%,12.159729%,12.548828%);stroke-opacity:1;stroke-miterlimit:4;" d="M 333.28125 718.476562 C 312.265625 718.476562 295.78125 762.148438 295.78125 815 C 295.78125 867.773438 312.265625 913.203125 333.28125 913.203125 C 372.8125 913.203125 403.984375 867.773438 403.984375 815 C 403.984375 762.148438 372.8125 718.476562 333.28125 718.476562 Z M 333.28125 718.476562 " transform="matrix(0.1,0,0,-0.1,0,108)"/>
<path style="fill:none;stroke-width:1;stroke-linecap:round;stroke-linejoin:round;stroke:rgb(13.729858%,12.159729%,12.548828%);stroke-opacity:1;stroke-miterlimit:4;" d="M 333.28125 158.476562 C 567.695312 158.476562 757.695312 202.070312 757.695312 255.859375 C 757.695312 309.648438 567.695312 353.203125 333.28125 353.203125 " transform="matrix(0.1,0,0,-0.1,0,108)"/>
<path style=" stroke:none;fill-rule:nonzero;fill:rgb(13.729858%,12.159729%,12.548828%);fill-opacity:1;" d="M 33.328125 92.152344 C 31.226562 92.152344 29.578125 87.785156 29.578125 82.5 C 29.578125 77.222656 31.226562 72.679688 33.328125 72.679688 C 37.28125 72.679688 40.398438 77.222656 40.398438 82.5 C 40.398438 87.785156 37.28125 92.152344 33.328125 92.152344 "/>
<path style="fill:none;stroke-width:1;stroke-linecap:butt;stroke-linejoin:miter;stroke:rgb(13.729858%,12.159729%,12.548828%);stroke-opacity:1;stroke-miterlimit:4;" d="M 333.28125 158.476562 C 312.265625 158.476562 295.78125 202.148438 295.78125 255 C 295.78125 307.773438 312.265625 353.203125 333.28125 353.203125 C 372.8125 353.203125 403.984375 307.773438 403.984375 255 C 403.984375 202.148438 372.8125 158.476562 333.28125 158.476562 Z M 333.28125 158.476562 " transform="matrix(0.1,0,0,-0.1,0,108)"/>
<path style="fill:none;stroke-width:1;stroke-linecap:round;stroke-linejoin:round;stroke:rgb(13.729858%,12.159729%,12.548828%);stroke-opacity:1;stroke-miterlimit:4;" d="M 333.28125 433.476562 C 567.695312 433.476562 757.695312 477.070312 757.695312 530.859375 C 757.695312 584.648438 567.695312 628.203125 333.28125 628.203125 " transform="matrix(0.1,0,0,-0.1,0,108)"/>
<path style=" stroke:none;fill-rule:nonzero;fill:rgb(13.729858%,12.159729%,12.548828%);fill-opacity:1;" d="M 33.328125 64.652344 C 31.226562 64.652344 29.578125 60.285156 29.578125 55 C 29.578125 49.722656 31.226562 45.179688 33.328125 45.179688 C 37.28125 45.179688 40.398438 49.722656 40.398438 55 C 40.398438 60.285156 37.28125 64.652344 33.328125 64.652344 "/>
<path style="fill:none;stroke-width:1;stroke-linecap:butt;stroke-linejoin:miter;stroke:rgb(13.729858%,12.159729%,12.548828%);stroke-opacity:1;stroke-miterlimit:4;" d="M 333.28125 433.476562 C 312.265625 433.476562 295.78125 477.148438 295.78125 530 C 295.78125 582.773438 312.265625 628.203125 333.28125 628.203125 C 372.8125 628.203125 403.984375 582.773438 403.984375 530 C 403.984375 477.148438 372.8125 433.476562 333.28125 433.476562 Z M 333.28125 433.476562 " transform="matrix(0.1,0,0,-0.1,0,108)"/>
</g>
</svg>
