<?xml version="1.0" encoding="UTF-8"?>
<svg xmlns="http://www.w3.org/2000/svg" xmlns:xlink="http://www.w3.org/1999/xlink" width="108pt" height="108pt" viewBox="0 0 108 108" version="1.1">
<g id="surface1">
<path style="fill-rule:nonzero;fill:rgb(13.729858%,12.159729%,12.548828%);fill-opacity:1;stroke-width:1;stroke-linecap:butt;stroke-linejoin:miter;stroke:rgb(13.729858%,12.159729%,12.548828%);stroke-opacity:1;stroke-miterlimit:4;" d="M 580 999.257812 C 580 999.257812 619.023438 997.929688 667.03125 998.085938 C 715.742188 998.28125 807.734375 992.734375 807.734375 992.734375 C 807.734375 992.734375 718.046875 987.070312 667.03125 986.367188 C 618.203125 985.742188 580 985.273438 580 985.273438 " transform="matrix(0.1,0,0,-0.1,0,108)"/>
<path style="fill-rule:nonzero;fill:rgb(13.729858%,12.159729%,12.548828%);fill-opacity:1;stroke-width:1;stroke-linecap:butt;stroke-linejoin:miter;stroke:rgb(13.729858%,12.159729%,12.548828%);stroke-opacity:1;stroke-miterlimit:4;" d="M 167.5 1014.257812 C 167.5 1014.257812 206.523438 1012.929688 254.53125 1013.085938 C 303.28125 1013.28125 395.234375 1007.734375 395.234375 1007.734375 C 395.234375 1007.734375 305.585938 1002.03125 254.53125 1001.367188 C 205.703125 1000.742188 167.5 1000.273438 167.5 1000.273438 " transform="matrix(0.1,0,0,-0.1,0,108)"/>
<path style="fill-rule:nonzero;fill:rgb(13.729858%,12.159729%,12.548828%);fill-opacity:1;stroke-width:1;stroke-linecap:butt;stroke-linejoin:miter;stroke:rgb(13.729858%,12.159729%,12.548828%);stroke-opacity:1;stroke-miterlimit:4;" d="M 135.664062 910.742188 C 135.664062 910.742188 134.335938 871.71875 134.53125 823.710938 C 134.6875 774.960938 129.140625 683.007812 129.140625 683.007812 C 129.140625 683.007812 123.476562 772.65625 122.8125 823.710938 C 122.148438 872.539062 121.71875 910.742188 121.71875 910.742188 " transform="matrix(0.1,0,0,-0.1,0,108)"/>
<path style="fill-rule:nonzero;fill:rgb(13.729858%,12.159729%,12.548828%);fill-opacity:1;stroke-width:1;stroke-linecap:butt;stroke-linejoin:miter;stroke:rgb(13.729858%,12.159729%,12.548828%);stroke-opacity:1;stroke-miterlimit:4;" d="M 848.164062 895.742188 C 848.164062 895.742188 846.835938 856.71875 847.03125 808.710938 C 847.1875 759.960938 841.640625 668.007812 841.640625 668.007812 C 841.640625 668.007812 835.9375 757.65625 835.3125 808.710938 C 834.6875 857.539062 834.179688 895.742188 834.179688 895.742188 " transform="matrix(0.1,0,0,-0.1,0,108)"/>
<path style="fill-rule:nonzero;fill:rgb(13.729858%,12.159729%,12.548828%);fill-opacity:1;stroke-width:1;stroke-linecap:butt;stroke-linejoin:miter;stroke:rgb(13.729858%,12.159729%,12.548828%);stroke-opacity:1;stroke-miterlimit:4;" d="M 135.664062 405.742188 C 135.664062 405.742188 134.335938 366.71875 134.53125 318.710938 C 134.6875 269.960938 129.140625 178.007812 129.140625 178.007812 C 129.140625 178.007812 123.476562 267.65625 122.8125 318.710938 C 122.148438 367.539062 121.71875 405.742188 121.71875 405.742188 " transform="matrix(0.1,0,0,-0.1,0,108)"/>
<path style="fill-rule:nonzero;fill:rgb(13.729858%,12.159729%,12.548828%);fill-opacity:1;stroke-width:1;stroke-linecap:butt;stroke-linejoin:miter;stroke:rgb(13.729858%,12.159729%,12.548828%);stroke-opacity:1;stroke-miterlimit:4;" d="M 848.164062 390.742188 C 848.164062 390.742188 846.835938 351.71875 847.03125 303.710938 C 847.1875 254.960938 841.640625 163.007812 841.640625 163.007812 C 841.640625 163.007812 835.9375 252.65625 835.3125 303.710938 C 834.6875 352.539062 834.179688 390.742188 834.179688 390.742188 " transform="matrix(0.1,0,0,-0.1,0,108)"/>
<path style="fill-rule:nonzero;fill:rgb(13.729858%,12.159729%,12.548828%);fill-opacity:1;stroke-width:1;stroke-linecap:butt;stroke-linejoin:miter;stroke:rgb(13.729858%,12.159729%,12.548828%);stroke-opacity:1;stroke-miterlimit:4;" d="M 182.5 96.757812 C 182.5 96.757812 221.523438 95.429688 269.53125 95.585938 C 318.28125 95.742188 410.234375 90.234375 410.234375 90.234375 C 410.234375 90.234375 320.585938 84.570312 269.53125 83.867188 C 220.703125 83.242188 182.5 82.773438 182.5 82.773438 " transform="matrix(0.1,0,0,-0.1,0,108)"/>
<path style="fill-rule:nonzero;fill:rgb(13.729858%,12.159729%,12.548828%);fill-opacity:1;stroke-width:1;stroke-linecap:butt;stroke-linejoin:miter;stroke:rgb(13.729858%,12.159729%,12.548828%);stroke-opacity:1;stroke-miterlimit:4;" d="M 580 89.257812 C 580 89.257812 619.023438 87.929688 667.03125 88.085938 C 715.742188 88.242188 807.734375 82.734375 807.734375 82.734375 C 807.734375 82.734375 718.046875 77.070312 667.03125 76.367188 C 618.203125 75.742188 580 75.273438 580 75.273438 " transform="matrix(0.1,0,0,-0.1,0,108)"/>
<path style="fill:none;stroke-width:1;stroke-linecap:round;stroke-linejoin:round;stroke:rgb(13.729858%,12.159729%,12.548828%);stroke-opacity:1;stroke-miterlimit:4;" d="M 333.28125 718.476562 C 567.695312 718.476562 757.695312 762.070312 757.695312 815.859375 C 757.695312 869.648438 567.695312 913.203125 333.28125 913.203125 " transform="matrix(0.1,0,0,-0.1,0,108)"/>
<path style=" stroke:none;fill-rule:nonzero;fill:rgb(13.729858%,12.159729%,12.548828%);fill-opacity:1;" d="M 33.328125 36.152344 C 31.226562 36.152344 29.578125 31.785156 29.578125 26.5 C 29.578125 21.222656 31.226562 16.679688 33.328125 16.679688 C 37.28125 16.679688 40.398438 21.222656 40.398438 26.5 C 40.398438 31.785156 37.28125 36.152344 33.328125 36.152344 "/>
<path style="fill:none;stroke-width:1;stroke-linecap:butt;stroke-linejoin:miter;stroke:rgb(13.729858%,12.159729%,12.548828%);stroke-opacity:1;stroke-miterlimit:4;" d="M 333.28125 718.476562 C 312.265625 718.476562 295.78125 762.148438 295.78125 815 C 295.78125 867.773438 312.265625 913.203125 333.28125 913.203125 C 372.8125 913.203125 403.984375 867.773438 403.984375 815 C 403.984375 762.148438 372.8125 718.476562 333.28125 718.476562 Z M 333.28125 718.476562 " transform="matrix(0.1,0,0,-0.1,0,108)"/>
<path style="fill:none;stroke-width:1;stroke-linecap:round;stroke-linejoin:round;stroke:rgb(13.729858%,12.159729%,12.548828%);stroke-opacity:1;stroke-miterlimit:4;" d="M 333.28125 158.476562 C 567.695312 158.476562 757.695312 202.070312 757.695312 255.859375 C 757.695312 309.648438 567.695312 353.203125 333.28125 353.203125 " transform="matrix(0.1,0,0,-0.1,0,108)"/>
<path style=" stroke:none;fill-rule:nonzero;fill:rgb(13.729858%,12.159729%,12.548828%);fill-opacity:1;" d="M 33.328125 92.152344 C 31.226562 92.152344 29.578125 87.785156 29.578125 82.5 C 29.578125 77.222656 31.226562 72.679688 33.328125 72.679688 C 37.28125 72.679688 40.398438 77.222656 40.398438 82.5 C 40.398438 87.785156 37.28125 92.152344 33.328125 92.152344 "/>
<path style="fill:none;stroke-width:1;stroke-linecap:butt;stroke-linejoin:miter;stroke:rgb(13.729858%,12.159729%,12.548828%);stroke-opacity:1;stroke-miterlimit:4;" d="M 333.28125 158.476562 C 312.265625 158.476562 295.78125 202.148438 295.78125 255 C 295.78125 307.773438 312.265625 353.203125 333.28125 353.203125 C 372.8125 353.203125 403.984375 307.773438 403.984375 255 C 403.984375 202.148438 372.8125 158.476562 333.28125 158.476562 Z M 333.28125 158.476562 " transform="matrix(0.1,0,0,-0.1,0,108)"/>
<path style="fill:none;stroke-width:1;stroke-linecap:round;stroke-linejoin:round;stroke:rgb(13.729858%,12.159729%,12.548828%);stroke-opacity:1;stroke-miterlimit:4;" d="M 333.28125 433.476562 C 567.695312 433.476562 757.695312 477.070312 757.695312 530.859375 C 757.695312 584.648438 567.695312 628.203125 333.28125 628.203125 " transform="matrix(0.1,0,0,-0.1,0,108)"/>
<path style=" stroke:none;fill-rule:nonzero;fill:rgb(13.729858%,12.159729%,12.548828%);fill-opacity:1;" d="M 33.328125 64.652344 C 31.226562 64.652344 29.578125 60.285156 29.578125 55 C 29.578125 49.722656 31.226562 45.179688 33.328125 45.179688 C 37.28125 45.179688 40.398438 49.722656 40.398438 55 C 40.398438 60.285156 37.28125 64.652344 33.328125 64.652344 "/>
<path style="fill:none;stroke-width:1;stroke-linecap:butt;stroke-linejoin:miter;stroke:rgb(13.729858%,12.159729%,12.548828%);stroke-opacity:1;stroke-miterlimit:4;" d="M 333.28125 433.476562 C 312.265625 433.476562 295.78125 477.148438 295.78125 530 C 295.78125 582.773438 312.265625 628.203125 333.28125 628.203125 C 372.8125 628.203125 403.984375 582.773438 403.984375 530 C 403.984375 477.148438 372.8125 433.476562 333.28125 433.476562 Z M 333.28125 433.476562 " transform="matrix(0.1,0,0,-0.1,0,108)"/>
</g>
</svg>
