<?xml version="1.0" encoding="UTF-8"?>
<svg xmlns="http://www.w3.org/2000/svg" xmlns:xlink="http://www.w3.org/1999/xlink" width="108pt" height="108pt" viewBox="0 0 108 108" version="1.1">
<g id="surface1">
<path style="fill:none;stroke-width:1;stroke-linecap:round;stroke-linejoin:round;stroke:rgb(13.729858%,12.159729%,12.548828%);stroke-opacity:1;stroke-miterlimit:4;" d="M 484.140625 580.742188 C 718.554688 580.742188 908.554688 624.335938 908.554688 678.125 C 908.554688 731.914062 718.554688 775.46875 484.140625 775.46875 " transform="matrix(0.1,0,0,-0.1,0,108)"/>
<path style=" stroke:none;fill-rule:nonzero;fill:rgb(13.729858%,12.159729%,12.548828%);fill-opacity:1;" d="M 48.414062 49.925781 C 46.316406 49.925781 44.664062 45.554688 44.664062 40.273438 C 44.664062 34.992188 46.316406 30.453125 48.414062 30.453125 C 52.371094 30.453125 55.484375 34.992188 55.484375 40.273438 C 55.484375 45.554688 52.371094 49.925781 48.414062 49.925781 "/>
<path style="fill:none;stroke-width:1;stroke-linecap:butt;stroke-linejoin:miter;stroke:rgb(13.729858%,12.159729%,12.548828%);stroke-opacity:1;stroke-miterlimit:4;" d="M 484.140625 580.742188 C 463.164062 580.742188 446.640625 624.453125 446.640625 677.265625 C 446.640625 730.078125 463.164062 775.46875 484.140625 775.46875 C 523.710938 775.46875 554.84375 730.078125 554.84375 677.265625 C 554.84375 624.453125 523.710938 580.742188 484.140625 580.742188 Z M 484.140625 580.742188 " transform="matrix(0.1,0,0,-0.1,0,108)"/>
<path style="fill:none;stroke-width:1;stroke-linecap:round;stroke-linejoin:round;stroke:rgb(13.729858%,12.159729%,12.548828%);stroke-opacity:1;stroke-miterlimit:4;" d="M 224.140625 580.742188 C 458.554688 580.742188 648.554688 624.335938 648.554688 678.125 C 648.554688 731.914062 458.554688 775.46875 224.140625 775.46875 " transform="matrix(0.1,0,0,-0.1,0,108)"/>
<path style=" stroke:none;fill-rule:nonzero;fill:rgb(13.729858%,12.159729%,12.548828%);fill-opacity:1;" d="M 22.414062 49.925781 C 20.316406 49.925781 18.664062 45.554688 18.664062 40.273438 C 18.664062 34.992188 20.316406 30.453125 22.414062 30.453125 C 26.371094 30.453125 29.484375 34.992188 29.484375 40.273438 C 29.484375 45.554688 26.371094 49.925781 22.414062 49.925781 "/>
<path style="fill:none;stroke-width:1;stroke-linecap:butt;stroke-linejoin:miter;stroke:rgb(13.729858%,12.159729%,12.548828%);stroke-opacity:1;stroke-miterlimit:4;" d="M 224.140625 580.742188 C 203.164062 580.742188 186.640625 624.453125 186.640625 677.265625 C 186.640625 730.078125 203.164062 775.46875 224.140625 775.46875 C 263.710938 775.46875 294.84375 730.078125 294.84375 677.265625 C 294.84375 624.453125 263.710938 580.742188 224.140625 580.742188 Z M 224.140625 580.742188 " transform="matrix(0.1,0,0,-0.1,0,108)"/>
<path style="fill:none;stroke-width:1;stroke-linecap:round;stroke-linejoin:round;stroke:rgb(13.729858%,12.159729%,12.548828%);stroke-opacity:1;stroke-miterlimit:4;" d="M 484.140625 315.742188 C 718.554688 315.742188 908.554688 359.335938 908.554688 413.125 C 908.554688 466.914062 718.554688 510.46875 484.140625 510.46875 " transform="matrix(0.1,0,0,-0.1,0,108)"/>
<path style=" stroke:none;fill-rule:nonzero;fill:rgb(13.729858%,12.159729%,12.548828%);fill-opacity:1;" d="M 48.414062 76.425781 C 46.316406 76.425781 44.664062 72.054688 44.664062 66.773438 C 44.664062 61.492188 46.316406 56.953125 48.414062 56.953125 C 52.371094 56.953125 55.484375 61.492188 55.484375 66.773438 C 55.484375 72.054688 52.371094 76.425781 48.414062 76.425781 "/>
<path style="fill:none;stroke-width:1;stroke-linecap:butt;stroke-linejoin:miter;stroke:rgb(13.729858%,12.159729%,12.548828%);stroke-opacity:1;stroke-miterlimit:4;" d="M 484.140625 315.742188 C 463.164062 315.742188 446.640625 359.453125 446.640625 412.265625 C 446.640625 465.078125 463.164062 510.46875 484.140625 510.46875 C 523.710938 510.46875 554.84375 465.078125 554.84375 412.265625 C 554.84375 359.453125 523.710938 315.742188 484.140625 315.742188 Z M 484.140625 315.742188 " transform="matrix(0.1,0,0,-0.1,0,108)"/>
<path style="fill:none;stroke-width:1;stroke-linecap:round;stroke-linejoin:round;stroke:rgb(13.729858%,12.159729%,12.548828%);stroke-opacity:1;stroke-miterlimit:4;" d="M 224.140625 315.742188 C 458.554688 315.742188 648.554688 359.335938 648.554688 413.125 C 648.554688 466.914062 458.554688 510.46875 224.140625 510.46875 " transform="matrix(0.1,0,0,-0.1,0,108)"/>
<path style=" stroke:none;fill-rule:nonzero;fill:rgb(13.729858%,12.159729%,12.548828%);fill-opacity:1;" d="M 22.414062 76.425781 C 20.316406 76.425781 18.664062 72.054688 18.664062 66.773438 C 18.664062 61.492188 20.316406 56.953125 22.414062 56.953125 C 26.371094 56.953125 29.484375 61.492188 29.484375 66.773438 C 29.484375 72.054688 26.371094 76.425781 22.414062 76.425781 "/>
<path style="fill:none;stroke-width:1;stroke-linecap:butt;stroke-linejoin:miter;stroke:rgb(13.729858%,12.159729%,12.548828%);stroke-opacity:1;stroke-miterlimit:4;" d="M 224.140625 315.742188 C 203.164062 315.742188 186.640625 359.453125 186.640625 412.265625 C 186.640625 465.078125 203.164062 510.46875 224.140625 510.46875 C 263.710938 510.46875 294.84375 465.078125 294.84375 412.265625 C 294.84375 359.453125 263.710938 315.742188 224.140625 315.742188 Z M 224.140625 315.742188 " transform="matrix(0.1,0,0,-0.1,0,108)"/>
</g>
</svg>
