<?xml version="1.0" encoding="UTF-8"?>
<svg xmlns="http://www.w3.org/2000/svg" xmlns:xlink="http://www.w3.org/1999/xlink" width="108pt" height="108pt" viewBox="0 0 108 108" version="1.1">
<g id="surface1">
<path style="fill:none;stroke-width:1;stroke-linecap:round;stroke-linejoin:round;stroke:rgb(13.729858%,12.159729%,12.548828%);stroke-opacity:1;stroke-miterlimit:4;" d="M 484.140625 833.75 C 718.554688 833.75 908.554688 877.34375 908.554688 931.132812 C 908.554688 984.921875 718.554688 1028.476562 484.140625 1028.476562 " transform="matrix(0.1,0,0,-0.1,0,108)"/>
<path style=" stroke:none;fill-rule:nonzero;fill:rgb(13.729858%,12.159729%,12.548828%);fill-opacity:1;" d="M 48.414062 24.625 C 46.316406 24.625 44.664062 20.257812 44.664062 14.972656 C 44.664062 9.695312 46.316406 5.152344 48.414062 5.152344 C 52.371094 5.152344 55.484375 9.695312 55.484375 14.972656 C 55.484375 20.257812 52.371094 24.625 48.414062 24.625 "/>
<path style="fill:none;stroke-width:1;stroke-linecap:butt;stroke-linejoin:miter;stroke:rgb(13.729858%,12.159729%,12.548828%);stroke-opacity:1;stroke-miterlimit:4;" d="M 484.140625 833.75 C 463.164062 833.75 446.640625 877.421875 446.640625 930.273438 C 446.640625 983.046875 463.164062 1028.476562 484.140625 1028.476562 C 523.710938 1028.476562 554.84375 983.046875 554.84375 930.273438 C 554.84375 877.421875 523.710938 833.75 484.140625 833.75 Z M 484.140625 833.75 " transform="matrix(0.1,0,0,-0.1,0,108)"/>
<path style="fill:none;stroke-width:1;stroke-linecap:round;stroke-linejoin:round;stroke:rgb(13.729858%,12.159729%,12.548828%);stroke-opacity:1;stroke-miterlimit:4;" d="M 224.140625 833.75 C 458.554688 833.75 648.554688 877.34375 648.554688 931.132812 C 648.554688 984.921875 458.554688 1028.476562 224.140625 1028.476562 " transform="matrix(0.1,0,0,-0.1,0,108)"/>
<path style=" stroke:none;fill-rule:nonzero;fill:rgb(13.729858%,12.159729%,12.548828%);fill-opacity:1;" d="M 22.414062 24.625 C 20.316406 24.625 18.664062 20.257812 18.664062 14.972656 C 18.664062 9.695312 20.316406 5.152344 22.414062 5.152344 C 26.371094 5.152344 29.484375 9.695312 29.484375 14.972656 C 29.484375 20.257812 26.371094 24.625 22.414062 24.625 "/>
<path style="fill:none;stroke-width:1;stroke-linecap:butt;stroke-linejoin:miter;stroke:rgb(13.729858%,12.159729%,12.548828%);stroke-opacity:1;stroke-miterlimit:4;" d="M 224.140625 833.75 C 203.164062 833.75 186.640625 877.421875 186.640625 930.273438 C 186.640625 983.046875 203.164062 1028.476562 224.140625 1028.476562 C 263.710938 1028.476562 294.84375 983.046875 294.84375 930.273438 C 294.84375 877.421875 263.710938 833.75 224.140625 833.75 Z M 224.140625 833.75 " transform="matrix(0.1,0,0,-0.1,0,108)"/>
<path style="fill:none;stroke-width:1;stroke-linecap:round;stroke-linejoin:round;stroke:rgb(13.729858%,12.159729%,12.548828%);stroke-opacity:1;stroke-miterlimit:4;" d="M 484.140625 568.75 C 718.554688 568.75 908.554688 612.34375 908.554688 666.132812 C 908.554688 719.921875 718.554688 763.476562 484.140625 763.476562 " transform="matrix(0.1,0,0,-0.1,0,108)"/>
<path style=" stroke:none;fill-rule:nonzero;fill:rgb(13.729858%,12.159729%,12.548828%);fill-opacity:1;" d="M 48.414062 51.125 C 46.316406 51.125 44.664062 46.757812 44.664062 41.472656 C 44.664062 36.195312 46.316406 31.652344 48.414062 31.652344 C 52.371094 31.652344 55.484375 36.195312 55.484375 41.472656 C 55.484375 46.757812 52.371094 51.125 48.414062 51.125 "/>
<path style="fill:none;stroke-width:1;stroke-linecap:butt;stroke-linejoin:miter;stroke:rgb(13.729858%,12.159729%,12.548828%);stroke-opacity:1;stroke-miterlimit:4;" d="M 484.140625 568.75 C 463.164062 568.75 446.640625 612.421875 446.640625 665.273438 C 446.640625 718.046875 463.164062 763.476562 484.140625 763.476562 C 523.710938 763.476562 554.84375 718.046875 554.84375 665.273438 C 554.84375 612.421875 523.710938 568.75 484.140625 568.75 Z M 484.140625 568.75 " transform="matrix(0.1,0,0,-0.1,0,108)"/>
<path style="fill:none;stroke-width:1;stroke-linecap:round;stroke-linejoin:round;stroke:rgb(13.729858%,12.159729%,12.548828%);stroke-opacity:1;stroke-miterlimit:4;" d="M 224.140625 568.75 C 458.554688 568.75 648.554688 612.34375 648.554688 666.132812 C 648.554688 719.921875 458.554688 763.476562 224.140625 763.476562 " transform="matrix(0.1,0,0,-0.1,0,108)"/>
<path style=" stroke:none;fill-rule:nonzero;fill:rgb(13.729858%,12.159729%,12.548828%);fill-opacity:1;" d="M 22.414062 51.125 C 20.316406 51.125 18.664062 46.757812 18.664062 41.472656 C 18.664062 36.195312 20.316406 31.652344 22.414062 31.652344 C 26.371094 31.652344 29.484375 36.195312 29.484375 41.472656 C 29.484375 46.757812 26.371094 51.125 22.414062 51.125 "/>
<path style="fill:none;stroke-width:1;stroke-linecap:butt;stroke-linejoin:miter;stroke:rgb(13.729858%,12.159729%,12.548828%);stroke-opacity:1;stroke-miterlimit:4;" d="M 224.140625 568.75 C 203.164062 568.75 186.640625 612.421875 186.640625 665.273438 C 186.640625 718.046875 203.164062 763.476562 224.140625 763.476562 C 263.710938 763.476562 294.84375 718.046875 294.84375 665.273438 C 294.84375 612.421875 263.710938 568.75 224.140625 568.75 Z M 224.140625 568.75 " transform="matrix(0.1,0,0,-0.1,0,108)"/>
<path style="fill:none;stroke-width:1;stroke-linecap:round;stroke-linejoin:round;stroke:rgb(13.729858%,12.159729%,12.548828%);stroke-opacity:1;stroke-miterlimit:4;" d="M 484.140625 318.75 C 718.554688 318.75 908.554688 362.34375 908.554688 416.132812 C 908.554688 469.921875 718.554688 513.476562 484.140625 513.476562 " transform="matrix(0.1,0,0,-0.1,0,108)"/>
<path style=" stroke:none;fill-rule:nonzero;fill:rgb(13.729858%,12.159729%,12.548828%);fill-opacity:1;" d="M 48.414062 76.125 C 46.316406 76.125 44.664062 71.757812 44.664062 66.472656 C 44.664062 61.195312 46.316406 56.652344 48.414062 56.652344 C 52.371094 56.652344 55.484375 61.195312 55.484375 66.472656 C 55.484375 71.757812 52.371094 76.125 48.414062 76.125 "/>
<path style="fill:none;stroke-width:1;stroke-linecap:butt;stroke-linejoin:miter;stroke:rgb(13.729858%,12.159729%,12.548828%);stroke-opacity:1;stroke-miterlimit:4;" d="M 484.140625 318.75 C 463.164062 318.75 446.640625 362.421875 446.640625 415.273438 C 446.640625 468.046875 463.164062 513.476562 484.140625 513.476562 C 523.710938 513.476562 554.84375 468.046875 554.84375 415.273438 C 554.84375 362.421875 523.710938 318.75 484.140625 318.75 Z M 484.140625 318.75 " transform="matrix(0.1,0,0,-0.1,0,108)"/>
<path style="fill:none;stroke-width:1;stroke-linecap:round;stroke-linejoin:round;stroke:rgb(13.729858%,12.159729%,12.548828%);stroke-opacity:1;stroke-miterlimit:4;" d="M 224.140625 318.75 C 458.554688 318.75 648.554688 362.34375 648.554688 416.132812 C 648.554688 469.921875 458.554688 513.476562 224.140625 513.476562 " transform="matrix(0.1,0,0,-0.1,0,108)"/>
<path style=" stroke:none;fill-rule:nonzero;fill:rgb(13.729858%,12.159729%,12.548828%);fill-opacity:1;" d="M 22.414062 76.125 C 20.316406 76.125 18.664062 71.757812 18.664062 66.472656 C 18.664062 61.195312 20.316406 56.652344 22.414062 56.652344 C 26.371094 56.652344 29.484375 61.195312 29.484375 66.472656 C 29.484375 71.757812 26.371094 76.125 22.414062 76.125 "/>
<path style="fill:none;stroke-width:1;stroke-linecap:butt;stroke-linejoin:miter;stroke:rgb(13.729858%,12.159729%,12.548828%);stroke-opacity:1;stroke-miterlimit:4;" d="M 224.140625 318.75 C 203.164062 318.75 186.640625 362.421875 186.640625 415.273438 C 186.640625 468.046875 203.164062 513.476562 224.140625 513.476562 C 263.710938 513.476562 294.84375 468.046875 294.84375 415.273438 C 294.84375 362.421875 263.710938 318.75 224.140625 318.75 Z M 224.140625 318.75 " transform="matrix(0.1,0,0,-0.1,0,108)"/>
<path style="fill:none;stroke-width:1;stroke-linecap:round;stroke-linejoin:round;stroke:rgb(13.729858%,12.159729%,12.548828%);stroke-opacity:1;stroke-miterlimit:4;" d="M 224.140625 68.75 C 458.554688 68.75 648.554688 112.34375 648.554688 166.132812 C 648.554688 219.921875 458.554688 263.476562 224.140625 263.476562 " transform="matrix(0.1,0,0,-0.1,0,108)"/>
<path style=" stroke:none;fill-rule:nonzero;fill:rgb(13.729858%,12.159729%,12.548828%);fill-opacity:1;" d="M 22.414062 101.125 C 20.316406 101.125 18.664062 96.757812 18.664062 91.472656 C 18.664062 86.195312 20.316406 81.652344 22.414062 81.652344 C 26.371094 81.652344 29.484375 86.195312 29.484375 91.472656 C 29.484375 96.757812 26.371094 101.125 22.414062 101.125 "/>
<path style="fill:none;stroke-width:1;stroke-linecap:butt;stroke-linejoin:miter;stroke:rgb(13.729858%,12.159729%,12.548828%);stroke-opacity:1;stroke-miterlimit:4;" d="M 224.140625 68.75 C 203.164062 68.75 186.640625 112.421875 186.640625 165.273438 C 186.640625 218.046875 203.164062 263.476562 224.140625 263.476562 C 263.710938 263.476562 294.84375 218.046875 294.84375 165.273438 C 294.84375 112.421875 263.710938 68.75 224.140625 68.75 Z M 224.140625 68.75 " transform="matrix(0.1,0,0,-0.1,0,108)"/>
</g>
</svg>
