<?xml version="1.0" encoding="UTF-8" standalone="no"?>
<svg
   width="108pt"
   height="108pt"
   viewBox="0 0 108 108"
   version="1.1"
   id="svg329"
   sodipodi:docname="9(N01).svg"
   inkscape:version="1.2.2 (b0a8486541, 2022-12-01)"
   xmlns:inkscape="http://www.inkscape.org/namespaces/inkscape"
   xmlns:sodipodi="http://sodipodi.sourceforge.net/DTD/sodipodi-0.dtd"
   xmlns="http://www.w3.org/2000/svg"
   xmlns:svg="http://www.w3.org/2000/svg">
  <defs
     id="defs333" />
  <sodipodi:namedview
     id="namedview331"
     pagecolor="#ffffff"
     bordercolor="#666666"
     borderopacity="1.0"
     inkscape:showpageshadow="2"
     inkscape:pageopacity="0.0"
     inkscape:pagecheckerboard="0"
     inkscape:deskcolor="#d1d1d1"
     inkscape:document-units="pt"
     showgrid="false"
     inkscape:zoom="3.4056979"
     inkscape:cx="55.348421"
     inkscape:cy="78.398029"
     inkscape:window-width="1387"
     inkscape:window-height="1063"
     inkscape:window-x="0"
     inkscape:window-y="13"
     inkscape:window-maximized="1"
     inkscape:current-layer="surface1" />
  <g
     id="surface1">
    <path
       style="fill:#ffffff;stroke-width:1;stroke-linecap:round;stroke-linejoin:round;stroke:rgb(13%, 12%, 12%);stroke-opacity:1;stroke-miterlimit:4;fill-opacity:1"
       d="M 224.140625 868.789062 C 458.554688 868.789062 648.554688 912.382812 648.554688 966.171875 C 648.554688 1019.960938 458.554688 1063.515625 224.140625 1063.515625 "
       transform="matrix(0.1,0,0,-0.1,0,108)"
       id="path280" />
    <path
       style="fill:#ffffff;stroke-width:1;stroke-linecap:round;stroke-linejoin:round;stroke:rgb(13%, 12%, 12%);stroke-opacity:1;stroke-miterlimit:4;fill-opacity:1"
       d="M 484.140625 868.789062 C 718.554688 868.789062 908.554688 912.382812 908.554688 966.171875 C 908.554688 1019.960938 718.554688 1063.515625 484.140625 1063.515625 "
       transform="matrix(0.1,0,0,-0.1,0,108)"
       id="path274" />
    <path
       style=" stroke:none;fill-rule:nonzero;fill:rgb(13.729858%,12.159729%,12.548828%);fill-opacity:1;"
       d="M 48.414062 21.121094 C 46.316406 21.121094 44.664062 16.753906 44.664062 11.46875 C 44.664062 6.191406 46.316406 1.648438 48.414062 1.648438 C 52.371094 1.648438 55.484375 6.191406 55.484375 11.46875 C 55.484375 16.753906 52.371094 21.121094 48.414062 21.121094 "
       id="path276" />
    <path
       style="fill:none;stroke-width:1;stroke-linecap:butt;stroke-linejoin:miter;stroke:rgb(13.729858%,12.159729%,12.548828%);stroke-opacity:1;stroke-miterlimit:4;"
       d="M 484.140625 868.789062 C 463.164062 868.789062 446.640625 912.460938 446.640625 965.3125 C 446.640625 1018.085938 463.164062 1063.515625 484.140625 1063.515625 C 523.710938 1063.515625 554.84375 1018.085938 554.84375 965.3125 C 554.84375 912.460938 523.710938 868.789062 484.140625 868.789062 Z M 484.140625 868.789062 "
       transform="matrix(0.1,0,0,-0.1,0,108)"
       id="path278" />
    <path
       style=" stroke:none;fill-rule:nonzero;fill:rgb(13.729858%,12.159729%,12.548828%);fill-opacity:1;"
       d="M 22.414062 21.121094 C 20.316406 21.121094 18.664062 16.753906 18.664062 11.46875 C 18.664062 6.191406 20.316406 1.648438 22.414062 1.648438 C 26.371094 1.648438 29.484375 6.191406 29.484375 11.46875 C 29.484375 16.753906 26.371094 21.121094 22.414062 21.121094 "
       id="path282" />
    <path
       style="fill:none;stroke-width:1;stroke-linecap:butt;stroke-linejoin:miter;stroke:rgb(13.729858%,12.159729%,12.548828%);stroke-opacity:1;stroke-miterlimit:4;"
       d="M 224.140625 868.789062 C 203.164062 868.789062 186.640625 912.460938 186.640625 965.3125 C 186.640625 1018.085938 203.164062 1063.515625 224.140625 1063.515625 C 263.710938 1063.515625 294.84375 1018.085938 294.84375 965.3125 C 294.84375 912.460938 263.710938 868.789062 224.140625 868.789062 Z M 224.140625 868.789062 "
       transform="matrix(0.1,0,0,-0.1,0,108)"
       id="path284" />
    <path
       style="fill:#ffffff;stroke-width:1;stroke-linecap:round;stroke-linejoin:round;stroke:rgb(13%, 12%, 12%);stroke-opacity:1;stroke-miterlimit:4;fill-opacity:1"
       d="M 224.140625 653.789062 C 458.554688 653.789062 648.554688 697.382812 648.554688 751.132812 C 648.554688 804.921875 458.554688 848.476562 224.140625 848.476562 "
       transform="matrix(0.1,0,0,-0.1,0,108)"
       id="path292" />
    <path
       style="fill:#ffffff;stroke-width:1;stroke-linecap:round;stroke-linejoin:round;stroke:rgb(13%, 12%, 12%);stroke-opacity:1;stroke-miterlimit:4;fill-opacity:1"
       d="M 484.140625 653.789062 C 718.554688 653.789062 908.554688 697.382812 908.554688 751.132812 C 908.554688 804.921875 718.554688 848.476562 484.140625 848.476562 "
       transform="matrix(0.1,0,0,-0.1,0,108)"
       id="path286" />
    <path
       style=" stroke:none;fill-rule:nonzero;fill:rgb(13.729858%,12.159729%,12.548828%);fill-opacity:1;"
       d="M 48.414062 42.621094 C 46.316406 42.621094 44.664062 38.253906 44.664062 32.96875 C 44.664062 27.691406 46.316406 23.152344 48.414062 23.152344 C 52.371094 23.152344 55.484375 27.691406 55.484375 32.96875 C 55.484375 38.253906 52.371094 42.621094 48.414062 42.621094 "
       id="path288" />
    <path
       style="fill:none;stroke-width:1;stroke-linecap:butt;stroke-linejoin:miter;stroke:rgb(13.729858%,12.159729%,12.548828%);stroke-opacity:1;stroke-miterlimit:4;"
       d="M 484.140625 653.789062 C 463.164062 653.789062 446.640625 697.460938 446.640625 750.3125 C 446.640625 803.085938 463.164062 848.476562 484.140625 848.476562 C 523.710938 848.476562 554.84375 803.085938 554.84375 750.3125 C 554.84375 697.460938 523.710938 653.789062 484.140625 653.789062 Z M 484.140625 653.789062 "
       transform="matrix(0.1,0,0,-0.1,0,108)"
       id="path290" />
    <path
       style=" stroke:none;fill-rule:nonzero;fill:rgb(13.729858%,12.159729%,12.548828%);fill-opacity:1;"
       d="M 22.414062 42.621094 C 20.316406 42.621094 18.664062 38.253906 18.664062 32.96875 C 18.664062 27.691406 20.316406 23.152344 22.414062 23.152344 C 26.371094 23.152344 29.484375 27.691406 29.484375 32.96875 C 29.484375 38.253906 26.371094 42.621094 22.414062 42.621094 "
       id="path294" />
    <path
       style="fill:none;stroke-width:1;stroke-linecap:butt;stroke-linejoin:miter;stroke:rgb(13.729858%,12.159729%,12.548828%);stroke-opacity:1;stroke-miterlimit:4;"
       d="M 224.140625 653.789062 C 203.164062 653.789062 186.640625 697.460938 186.640625 750.3125 C 186.640625 803.085938 203.164062 848.476562 224.140625 848.476562 C 263.710938 848.476562 294.84375 803.085938 294.84375 750.3125 C 294.84375 697.460938 263.710938 653.789062 224.140625 653.789062 Z M 224.140625 653.789062 "
       transform="matrix(0.1,0,0,-0.1,0,108)"
       id="path296" />
    <path
       style="fill:#ffffff;stroke-width:1;stroke-linecap:round;stroke-linejoin:round;stroke:rgb(13%, 12%, 12%);stroke-opacity:1;stroke-miterlimit:4;fill-opacity:1"
       d="M 224.140625 439.765625 C 458.554688 439.765625 648.554688 483.359375 648.554688 537.148438 C 648.554688 590.9375 458.554688 634.492188 224.140625 634.492188 "
       transform="matrix(0.1,0,0,-0.1,0,108)"
       id="path304" />
    <path
       style="fill:#ffffff;stroke-width:1;stroke-linecap:round;stroke-linejoin:round;stroke:rgb(13%, 12%, 12%);stroke-opacity:1;stroke-miterlimit:4;fill-opacity:1"
       d="M 484.140625 439.765625 C 718.554688 439.765625 908.554688 483.359375 908.554688 537.148438 C 908.554688 590.9375 718.554688 634.492188 484.140625 634.492188 "
       transform="matrix(0.1,0,0,-0.1,0,108)"
       id="path298" />
    <path
       style=" stroke:none;fill-rule:nonzero;fill:rgb(13.729858%,12.159729%,12.548828%);fill-opacity:1;"
       d="M 48.414062 64.023438 C 46.316406 64.023438 44.664062 59.652344 44.664062 54.371094 C 44.664062 49.09375 46.316406 44.550781 48.414062 44.550781 C 52.371094 44.550781 55.484375 49.09375 55.484375 54.371094 C 55.484375 59.652344 52.371094 64.023438 48.414062 64.023438 "
       id="path300" />
    <path
       style="fill:none;stroke-width:1;stroke-linecap:butt;stroke-linejoin:miter;stroke:rgb(13.729858%,12.159729%,12.548828%);stroke-opacity:1;stroke-miterlimit:4;"
       d="M 484.140625 439.765625 C 463.164062 439.765625 446.640625 483.476562 446.640625 536.289062 C 446.640625 589.0625 463.164062 634.492188 484.140625 634.492188 C 523.710938 634.492188 554.84375 589.0625 554.84375 536.289062 C 554.84375 483.476562 523.710938 439.765625 484.140625 439.765625 Z M 484.140625 439.765625 "
       transform="matrix(0.1,0,0,-0.1,0,108)"
       id="path302" />
    <path
       style=" stroke:none;fill-rule:nonzero;fill:rgb(13.729858%,12.159729%,12.548828%);fill-opacity:1;"
       d="M 22.414062 64.023438 C 20.316406 64.023438 18.664062 59.652344 18.664062 54.371094 C 18.664062 49.09375 20.316406 44.550781 22.414062 44.550781 C 26.371094 44.550781 29.484375 49.09375 29.484375 54.371094 C 29.484375 59.652344 26.371094 64.023438 22.414062 64.023438 "
       id="path306" />
    <path
       style="fill:none;stroke-width:1;stroke-linecap:butt;stroke-linejoin:miter;stroke:rgb(13.729858%,12.159729%,12.548828%);stroke-opacity:1;stroke-miterlimit:4;"
       d="M 224.140625 439.765625 C 203.164062 439.765625 186.640625 483.476562 186.640625 536.289062 C 186.640625 589.0625 203.164062 634.492188 224.140625 634.492188 C 263.710938 634.492188 294.84375 589.0625 294.84375 536.289062 C 294.84375 483.476562 263.710938 439.765625 224.140625 439.765625 Z M 224.140625 439.765625 "
       transform="matrix(0.1,0,0,-0.1,0,108)"
       id="path308" />
    <path
       style="fill:#ffffff;stroke-width:1;stroke-linecap:round;stroke-linejoin:round;stroke:rgb(13%, 12%, 12%);stroke-opacity:1;stroke-miterlimit:4;fill-opacity:1"
       d="M 224.140625 227.773438 C 458.554688 227.773438 648.554688 271.367188 648.554688 325.15625 C 648.554688 378.945312 458.554688 422.5 224.140625 422.5 "
       transform="matrix(0.1,0,0,-0.1,0,108)"
       id="path316" />
    <path
       style="fill:#ffffff;stroke-width:1;stroke-linecap:round;stroke-linejoin:round;stroke:rgb(13%, 12%, 12%);stroke-opacity:1;stroke-miterlimit:4;fill-opacity:1"
       d="M 484.140625 227.773438 C 718.554688 227.773438 908.554688 271.367188 908.554688 325.15625 C 908.554688 378.945312 718.554688 422.5 484.140625 422.5 "
       transform="matrix(0.1,0,0,-0.1,0,108)"
       id="path310" />
    <path
       style=" stroke:none;fill-rule:nonzero;fill:rgb(13.729858%,12.159729%,12.548828%);fill-opacity:1;"
       d="M 48.414062 85.222656 C 46.316406 85.222656 44.664062 80.851562 44.664062 75.570312 C 44.664062 70.292969 46.316406 65.75 48.414062 65.75 C 52.371094 65.75 55.484375 70.292969 55.484375 75.570312 C 55.484375 80.851562 52.371094 85.222656 48.414062 85.222656 "
       id="path312" />
    <path
       style="fill:none;stroke-width:1;stroke-linecap:butt;stroke-linejoin:miter;stroke:rgb(13.729858%,12.159729%,12.548828%);stroke-opacity:1;stroke-miterlimit:4;"
       d="M 484.140625 227.773438 C 463.164062 227.773438 446.640625 271.484375 446.640625 324.296875 C 446.640625 377.070312 463.164062 422.5 484.140625 422.5 C 523.710938 422.5 554.84375 377.070312 554.84375 324.296875 C 554.84375 271.484375 523.710938 227.773438 484.140625 227.773438 Z M 484.140625 227.773438 "
       transform="matrix(0.1,0,0,-0.1,0,108)"
       id="path314" />
    <path
       style=" stroke:none;fill-rule:nonzero;fill:rgb(13.729858%,12.159729%,12.548828%);fill-opacity:1;"
       d="M 22.414062 85.222656 C 20.316406 85.222656 18.664062 80.851562 18.664062 75.570312 C 18.664062 70.292969 20.316406 65.75 22.414062 65.75 C 26.371094 65.75 29.484375 70.292969 29.484375 75.570312 C 29.484375 80.851562 26.371094 85.222656 22.414062 85.222656 "
       id="path318" />
    <path
       style="fill:none;stroke-width:1;stroke-linecap:butt;stroke-linejoin:miter;stroke:rgb(13.729858%,12.159729%,12.548828%);stroke-opacity:1;stroke-miterlimit:4;"
       d="M 224.140625 227.773438 C 203.164062 227.773438 186.640625 271.484375 186.640625 324.296875 C 186.640625 377.070312 203.164062 422.5 224.140625 422.5 C 263.710938 422.5 294.84375 377.070312 294.84375 324.296875 C 294.84375 271.484375 263.710938 227.773438 224.140625 227.773438 Z M 224.140625 227.773438 "
       transform="matrix(0.1,0,0,-0.1,0,108)"
       id="path320" />
    <path
       style="fill:#ffffff;stroke-width:1;stroke-linecap:round;stroke-linejoin:round;stroke:rgb(13%, 12%, 12%);stroke-opacity:1;stroke-miterlimit:4;fill-opacity:1"
       d="M 224.140625 18.789062 C 458.554688 18.789062 648.554688 62.382812 648.554688 116.171875 C 648.554688 169.960938 458.554688 213.515625 224.140625 213.515625 "
       transform="matrix(0.1,0,0,-0.1,0,108)"
       id="path322" />
    <path
       style=" stroke:none;fill-rule:nonzero;fill:rgb(13.729858%,12.159729%,12.548828%);fill-opacity:1;"
       d="M 22.414062 106.121094 C 20.316406 106.121094 18.664062 101.75 18.664062 96.46875 C 18.664062 91.191406 20.316406 86.648438 22.414062 86.648438 C 26.371094 86.648438 29.484375 91.191406 29.484375 96.46875 C 29.484375 101.75 26.371094 106.121094 22.414062 106.121094 "
       id="path324" />
    <path
       style="fill:none;stroke-width:1;stroke-linecap:butt;stroke-linejoin:miter;stroke:rgb(13.729858%,12.159729%,12.548828%);stroke-opacity:1;stroke-miterlimit:4;"
       d="M 224.140625 18.789062 C 203.164062 18.789062 186.640625 62.5 186.640625 115.3125 C 186.640625 168.085938 203.164062 213.515625 224.140625 213.515625 C 263.710938 213.515625 294.84375 168.085938 294.84375 115.3125 C 294.84375 62.5 263.710938 18.789062 224.140625 18.789062 Z M 224.140625 18.789062 "
       transform="matrix(0.1,0,0,-0.1,0,108)"
       id="path326" />
  </g>
</svg>
