<?xml version="1.0" encoding="UTF-8"?>
<svg xmlns="http://www.w3.org/2000/svg" xmlns:xlink="http://www.w3.org/1999/xlink" width="109pt" height="108pt" viewBox="0 0 109 108" version="1.1">
<g id="surface1">
<path style="fill-rule:nonzero;fill:rgb(13.729858%,12.159729%,12.548828%);fill-opacity:1;stroke-width:2;stroke-linecap:butt;stroke-linejoin:miter;stroke:rgb(13.729858%,12.159729%,12.548828%);stroke-opacity:1;stroke-miterlimit:4;" d="M 301.875 428.359375 C 301.875 428.359375 339.609375 422.851562 415.039062 418.984375 C 476.445312 415.898438 518.125 415.9375 518.125 415.9375 C 518.125 415.9375 476.445312 409.296875 415.039062 406.210938 C 339.609375 402.382812 301.875 396.875 301.875 396.875 " transform="matrix(0.1,0,0,-0.1,0,108)"/>
<path style="fill-rule:nonzero;fill:rgb(13.729858%,12.159729%,12.548828%);fill-opacity:1;stroke-width:2;stroke-linecap:butt;stroke-linejoin:miter;stroke:rgb(13.729858%,12.159729%,12.548828%);stroke-opacity:1;stroke-miterlimit:4;" d="M 305.15625 509.6875 C 305.15625 509.6875 342.890625 504.179688 418.320312 500.3125 C 479.726562 497.226562 521.40625 497.304688 521.40625 497.304688 C 521.40625 497.304688 479.726562 490.664062 418.320312 487.578125 C 342.890625 483.710938 305.15625 478.242188 305.15625 478.242188 " transform="matrix(0.1,0,0,-0.1,0,108)"/>
<path style="fill-rule:nonzero;fill:rgb(13.729858%,12.159729%,12.548828%);fill-opacity:1;stroke-width:2;stroke-linecap:butt;stroke-linejoin:miter;stroke:rgb(13.729858%,12.159729%,12.548828%);stroke-opacity:1;stroke-miterlimit:4;" d="M 305.15625 587.1875 C 305.15625 587.1875 342.890625 581.679688 418.320312 577.8125 C 479.726562 574.726562 521.40625 574.804688 521.40625 574.804688 C 521.40625 574.804688 479.726562 568.164062 418.320312 565.078125 C 342.890625 561.210938 305.15625 555.742188 305.15625 555.742188 " transform="matrix(0.1,0,0,-0.1,0,108)"/>
<path style="fill-rule:nonzero;fill:rgb(13.729858%,12.159729%,12.548828%);fill-opacity:1;stroke-width:2;stroke-linecap:butt;stroke-linejoin:miter;stroke:rgb(13.729858%,12.159729%,12.548828%);stroke-opacity:1;stroke-miterlimit:4;" d="M 620.976562 549.375 C 620.976562 549.375 658.75 543.867188 734.179688 540 C 795.585938 536.914062 837.265625 536.953125 837.265625 536.953125 C 837.265625 536.953125 795.585938 530.3125 734.179688 527.226562 C 658.75 523.398438 620.976562 517.890625 620.976562 517.890625 " transform="matrix(0.1,0,0,-0.1,0,108)"/>
<path style="fill-rule:nonzero;fill:rgb(13.729858%,12.159729%,12.548828%);fill-opacity:1;stroke-width:2;stroke-linecap:butt;stroke-linejoin:miter;stroke:rgb(13.729858%,12.159729%,12.548828%);stroke-opacity:1;stroke-miterlimit:4;" d="M 503.476562 755.976562 C 503.476562 755.976562 526.835938 752.539062 573.476562 750.117188 C 611.484375 748.164062 637.265625 748.203125 637.265625 748.203125 C 637.265625 748.203125 611.484375 744.0625 573.476562 742.109375 C 526.835938 739.726562 503.476562 736.289062 503.476562 736.289062 " transform="matrix(0.1,0,0,-0.1,0,108)"/>
<path style="fill-rule:nonzero;fill:rgb(13.729858%,12.159729%,12.548828%);fill-opacity:1;stroke-width:2;stroke-linecap:butt;stroke-linejoin:miter;stroke:rgb(13.729858%,12.159729%,12.548828%);stroke-opacity:1;stroke-miterlimit:4;" d="M 513.476562 335.976562 C 513.476562 335.976562 536.835938 332.539062 583.476562 330.117188 C 621.484375 328.164062 647.265625 328.203125 647.265625 328.203125 C 647.265625 328.203125 621.484375 324.0625 583.476562 322.109375 C 536.835938 319.726562 513.476562 316.289062 513.476562 316.289062 " transform="matrix(0.1,0,0,-0.1,0,108)"/>
<path style="fill-rule:nonzero;fill:rgb(13.729858%,12.159729%,12.548828%);fill-opacity:1;stroke-width:2;stroke-linecap:butt;stroke-linejoin:miter;stroke:rgb(13.729858%,12.159729%,12.548828%);stroke-opacity:1;stroke-miterlimit:4;" d="M 300.820312 674.570312 C 300.820312 674.570312 338.59375 669.0625 414.023438 665.195312 C 475.429688 662.109375 517.109375 662.1875 517.109375 662.1875 C 517.109375 662.1875 475.429688 655.546875 414.023438 652.421875 C 338.59375 648.59375 300.820312 643.125 300.820312 643.125 " transform="matrix(0.1,0,0,-0.1,0,108)"/>
<path style="fill-rule:nonzero;fill:rgb(13.729858%,12.159729%,12.548828%);fill-opacity:1;stroke-width:2;stroke-linecap:butt;stroke-linejoin:miter;stroke:rgb(13.729858%,12.159729%,12.548828%);stroke-opacity:1;stroke-miterlimit:4;" d="M 305.820312 738.320312 C 305.820312 738.320312 343.59375 732.8125 419.023438 728.945312 C 480.429688 725.859375 522.109375 725.898438 522.109375 725.898438 C 522.109375 725.898438 480.429688 719.257812 419.023438 716.171875 C 343.59375 712.34375 305.820312 706.835938 305.820312 706.835938 " transform="matrix(0.1,0,0,-0.1,0,108)"/>
<path style="fill-rule:nonzero;fill:rgb(13.729858%,12.159729%,12.548828%);fill-opacity:1;stroke-width:2;stroke-linecap:butt;stroke-linejoin:miter;stroke:rgb(13.729858%,12.159729%,12.548828%);stroke-opacity:1;stroke-miterlimit:4;" d="M 299.375 363.125 C 299.375 363.125 337.109375 357.617188 412.539062 353.75 C 473.945312 350.664062 515.625 350.742188 515.625 350.742188 C 515.625 350.742188 473.945312 344.101562 412.539062 340.976562 C 337.109375 337.148438 299.375 331.679688 299.375 331.679688 " transform="matrix(0.1,0,0,-0.1,0,108)"/>
<path style="fill-rule:nonzero;fill:rgb(13.729858%,12.159729%,12.548828%);fill-opacity:1;stroke-width:2;stroke-linecap:butt;stroke-linejoin:miter;stroke:rgb(13.729858%,12.159729%,12.548828%);stroke-opacity:1;stroke-miterlimit:4;" d="M 499.335938 749.53125 C 499.335938 749.53125 505.273438 698.945312 509.375 597.8125 C 512.773438 515.429688 516.289062 321.914062 516.289062 321.914062 C 516.289062 321.914062 519.804688 515.429688 523.164062 597.8125 C 527.265625 698.945312 533.203125 749.53125 533.203125 749.53125 " transform="matrix(0.1,0,0,-0.1,0,108)"/>
<path style="fill-rule:nonzero;fill:rgb(13.729858%,12.159729%,12.548828%);fill-opacity:1;stroke-width:2;stroke-linecap:butt;stroke-linejoin:miter;stroke:rgb(13.729858%,12.159729%,12.548828%);stroke-opacity:1;stroke-miterlimit:4;" d="M 601.835938 749.53125 C 601.835938 749.53125 607.773438 698.945312 611.875 597.8125 C 615.273438 515.429688 618.789062 321.914062 618.789062 321.914062 C 618.789062 321.914062 622.304688 515.429688 625.664062 597.8125 C 629.765625 698.945312 635.703125 749.53125 635.703125 749.53125 " transform="matrix(0.1,0,0,-0.1,0,108)"/>
</g>
</svg>
