<?xml version="1.0" encoding="UTF-8" standalone="no"?>
<!-- Created with Inkscape (http://www.inkscape.org/) -->

<svg
   version="1.1"
   id="svg2"
   width="144"
   height="144"
   viewBox="0 0 144 144"
   sodipodi:docname="M056-F.eps"
   xmlns:inkscape="http://www.inkscape.org/namespaces/inkscape"
   xmlns:sodipodi="http://sodipodi.sourceforge.net/DTD/sodipodi-0.dtd"
   xmlns="http://www.w3.org/2000/svg"
   xmlns:svg="http://www.w3.org/2000/svg">
  <defs
     id="defs6" />
  <sodipodi:namedview
     id="namedview4"
     pagecolor="#ffffff"
     bordercolor="#000000"
     borderopacity="0.25"
     inkscape:showpageshadow="2"
     inkscape:pageopacity="0.0"
     inkscape:pagecheckerboard="0"
     inkscape:deskcolor="#d1d1d1" />
  <g
     id="g8"
     inkscape:groupmode="layer"
     inkscape:label="ink_ext_XXXXXX"
     transform="matrix(1.3333333,0,0,-1.3333333,0,144)">
    <g
       id="g10"
       transform="scale(0.1)">
      <path
         d="m 191,540.332 c 0,0 23.547,12.684 99.285,44.668 61.668,26.031 221.086,90.004 221.086,90.004 0,0 -166.621,-54.672 -230.617,-74.316 C 202.152,576.57 179.289,572.543 179.289,572.543"
         style="fill:#231f20;fill-opacity:1;fill-rule:nonzero;stroke:none"
         id="path12" />
      <path
         d="m 191,540.332 c 0,0 23.547,12.684 99.285,44.668 61.668,26.031 221.086,90.004 221.086,90.004 0,0 -166.621,-54.672 -230.617,-74.316 C 202.152,576.57 179.289,572.543 179.289,572.543"
         style="fill:none;stroke:#231f20;stroke-width:2;stroke-linecap:butt;stroke-linejoin:miter;stroke-miterlimit:4;stroke-dasharray:none;stroke-opacity:1"
         id="path14" />
      <path
         d="m 290.199,437.934 c 0,0 23.547,12.687 99.285,44.668 61.672,26.031 221.086,90.003 221.086,90.003 0,0 -166.621,-54.671 -230.617,-74.32 -78.601,-24.117 -101.465,-28.144 -101.465,-28.144"
         style="fill:#231f20;fill-opacity:1;fill-rule:nonzero;stroke:none"
         id="path16" />
      <path
         d="m 290.199,437.934 c 0,0 23.547,12.687 99.285,44.668 61.672,26.031 221.086,90.003 221.086,90.003 0,0 -166.621,-54.671 -230.617,-74.32 -78.601,-24.117 -101.465,-28.144 -101.465,-28.144"
         style="fill:none;stroke:#231f20;stroke-width:2;stroke-linecap:butt;stroke-linejoin:miter;stroke-miterlimit:4;stroke-dasharray:none;stroke-opacity:1"
         id="path18" />
      <path
         d="m 520.207,685.781 c 0,0 17.402,-20 57.762,-64.703 32.855,-36.375 151.859,-161.5 151.859,-161.5 0,0 -126.66,118.961 -163.047,151.813 -44.699,40.359 -64.316,56.64 -64.316,56.64"
         style="fill:#231f20;fill-opacity:1;fill-rule:nonzero;stroke:none"
         id="path20" />
      <path
         d="m 520.207,685.781 c 0,0 17.402,-20 57.762,-64.703 32.855,-36.375 151.859,-161.5 151.859,-161.5 0,0 -126.66,118.961 -163.047,151.813 -44.699,40.359 -64.316,56.64 -64.316,56.64"
         style="fill:none;stroke:#231f20;stroke-width:2;stroke-linecap:butt;stroke-linejoin:miter;stroke-miterlimit:4;stroke-dasharray:none;stroke-opacity:1"
         id="path22" />
      <path
         d="m 188.176,667.66 c 0,0 0.219,-2.437 46.996,-40.379 38.066,-30.879 332.234,-251.004 332.234,-251.004 0,0 -300.781,212.852 -341.797,239.707 -50.39,32.985 -52.226,31.403 -52.226,31.403"
         style="fill:#231f20;fill-opacity:1;fill-rule:nonzero;stroke:none"
         id="path24" />
      <path
         d="m 188.176,667.66 c 0,0 0.219,-2.437 46.996,-40.379 38.066,-30.879 332.234,-251.004 332.234,-251.004 0,0 -300.781,212.852 -341.797,239.707 -50.39,32.985 -52.226,31.403 -52.226,31.403"
         style="fill:none;stroke:#231f20;stroke-width:2;stroke-linecap:butt;stroke-linejoin:miter;stroke-miterlimit:4;stroke-dasharray:none;stroke-opacity:1"
         id="path26" />
      <path
         d="m 273.793,755.707 c 0,0 -0.418,-2.41 34.996,-51.133 28.824,-39.644 256.313,-328.148 256.313,-328.148 0,0 -235.75,283.183 -268.461,319.707 -40.192,44.851 -42.368,43.805 -42.368,43.805"
         style="fill:#231f20;fill-opacity:1;fill-rule:nonzero;stroke:none"
         id="path28" />
      <path
         d="m 273.793,755.707 c 0,0 -0.418,-2.41 34.996,-51.133 28.824,-39.644 256.313,-328.148 256.313,-328.148 0,0 -235.75,283.183 -268.461,319.707 -40.192,44.851 -42.368,43.805 -42.368,43.805"
         style="fill:none;stroke:#231f20;stroke-width:2;stroke-linecap:butt;stroke-linejoin:miter;stroke-miterlimit:4;stroke-dasharray:none;stroke-opacity:1"
         id="path30" />
      <path
         d="m 198.566,556.059 c 0,0 9.422,-14.903 30.793,-42.559 17.383,-22.504 59.688,-74.176 59.688,-74.176 0,0 -44.594,49.696 -64.188,70.321 -24.062,25.339 -37.355,36.937 -37.355,36.937"
         style="fill:#231f20;fill-opacity:1;fill-rule:nonzero;stroke:none"
         id="path32" />
      <path
         d="m 198.566,556.059 c 0,0 9.422,-14.903 30.793,-42.559 17.383,-22.504 59.688,-74.176 59.688,-74.176 0,0 -44.594,49.696 -64.188,70.321 -24.062,25.339 -37.355,36.937 -37.355,36.937"
         style="fill:none;stroke:#231f20;stroke-width:2;stroke-linecap:butt;stroke-linejoin:miter;stroke-miterlimit:4;stroke-dasharray:none;stroke-opacity:1"
         id="path34" />
      <path
         d="m 798.414,604.867 c 0,0 7.613,-22.234 26.785,-64.711 15.586,-34.574 54.489,-114.66 54.489,-114.66 0,0 -42.477,78.238 -61.512,111.051 -23.383,40.305 -37.031,59.449 -37.031,59.449"
         style="fill:#231f20;fill-opacity:1;fill-rule:nonzero;stroke:none"
         id="path36" />
      <path
         d="m 798.414,604.867 c 0,0 7.613,-22.234 26.785,-64.711 15.586,-34.574 54.489,-114.66 54.489,-114.66 0,0 -42.477,78.238 -61.512,111.051 -23.383,40.305 -37.031,59.449 -37.031,59.449"
         style="fill:none;stroke:#231f20;stroke-width:2;stroke-linecap:butt;stroke-linejoin:miter;stroke-miterlimit:4;stroke-dasharray:none;stroke-opacity:1"
         id="path38" />
      <path
         d="m 726.859,459.145 c 0,0 19.864,12.558 56.739,41.058 30.015,23.184 98.902,79.586 98.902,79.586 0,0 -66.266,-59.457 -93.766,-85.586 -33.781,-32.086 -49.238,-49.801 -49.238,-49.801"
         style="fill:#231f20;fill-opacity:1;fill-rule:nonzero;stroke:none"
         id="path40" />
      <path
         d="m 726.859,459.145 c 0,0 19.864,12.558 56.739,41.058 30.015,23.184 98.902,79.586 98.902,79.586 0,0 -66.266,-59.457 -93.766,-85.586 -33.781,-32.086 -49.238,-49.801 -49.238,-49.801"
         style="fill:none;stroke:#231f20;stroke-width:2;stroke-linecap:butt;stroke-linejoin:miter;stroke-miterlimit:4;stroke-dasharray:none;stroke-opacity:1"
         id="path42" />
    </g>
  </g>
</svg>
